%TF.GenerationSoftware,KiCad,Pcbnew,(5.1.10)-1*%
%TF.CreationDate,2021-07-26T17:23:28+09:00*%
%TF.ProjectId,electrode_FPCB_rev1.1,656c6563-7472-46f6-9465-5f465043425f,1.1*%
%TF.SameCoordinates,Original*%
%TF.FileFunction,Copper,L1,Top*%
%TF.FilePolarity,Positive*%
%FSLAX46Y46*%
G04 Gerber Fmt 4.6, Leading zero omitted, Abs format (unit mm)*
G04 Created by KiCad (PCBNEW (5.1.10)-1) date 2021-07-26 17:23:28*
%MOMM*%
%LPD*%
G01*
G04 APERTURE LIST*
%TA.AperFunction,SMDPad,CuDef*%
%ADD10R,0.300000X4.000000*%
%TD*%
%TA.AperFunction,SMDPad,CuDef*%
%ADD11C,8.000000*%
%TD*%
%TA.AperFunction,Conductor*%
%ADD12C,0.300000*%
%TD*%
G04 APERTURE END LIST*
D10*
%TO.P,CN7,10*%
%TO.N,/CH4*%
X77250000Y-55000000D03*
%TO.P,CN7,9*%
%TO.N,/CH3*%
X76750000Y-55000000D03*
%TO.P,CN7,8*%
%TO.N,/Ground*%
X76250000Y-55000000D03*
%TO.P,CN7,7*%
X75750000Y-55000000D03*
%TO.P,CN7,6*%
X75250000Y-55000000D03*
%TO.P,CN7,5*%
%TO.N,/Reference*%
X74750000Y-55000000D03*
%TO.P,CN7,4*%
X74250000Y-55000000D03*
%TO.P,CN7,3*%
X73750000Y-55000000D03*
%TO.P,CN7,2*%
%TO.N,/CH2*%
X73250000Y-55000000D03*
%TO.P,CN7,1*%
%TO.N,/CH1*%
X72750000Y-55000000D03*
%TD*%
D11*
%TO.P,CN6,1*%
%TO.N,/CH4*%
X105000000Y-40000000D03*
%TD*%
%TO.P,CN5,1*%
%TO.N,/CH3*%
X105000000Y-20000000D03*
%TD*%
%TO.P,CN4,1*%
%TO.N,/CH2*%
X45000000Y-20000000D03*
%TD*%
%TO.P,CN3,1*%
%TO.N,/CH1*%
X45000000Y-40000000D03*
%TD*%
%TO.P,CN2,1*%
%TO.N,/Ground*%
X75000000Y-40000000D03*
%TD*%
%TO.P,CN1,1*%
%TO.N,/Reference*%
X75000000Y-20000000D03*
%TD*%
D12*
%TO.N,/Reference*%
X73750000Y-55000000D02*
X73750000Y-48350000D01*
X73750000Y-48350000D02*
X69250000Y-43850000D01*
X69250000Y-25750000D02*
X75000000Y-20000000D01*
X69250000Y-43850000D02*
X69250000Y-25750000D01*
X73750000Y-55000000D02*
X74250000Y-55000000D01*
X74750000Y-55000000D02*
X74250000Y-55000000D01*
%TO.N,/Ground*%
X75250000Y-40250000D02*
X75000000Y-40000000D01*
X75250000Y-55000000D02*
X75250000Y-40250000D01*
X75250000Y-55000000D02*
X75750000Y-55000000D01*
X76250000Y-55000000D02*
X75750000Y-55000000D01*
%TO.N,/CH1*%
X72750000Y-55000000D02*
X72750000Y-51850000D01*
X60900000Y-40000000D02*
X45000000Y-40000000D01*
X72750000Y-51850000D02*
X60900000Y-40000000D01*
%TO.N,/CH2*%
X73250000Y-55000000D02*
X73250000Y-50100000D01*
X45000000Y-21850000D02*
X45000000Y-20000000D01*
X73250000Y-50100000D02*
X45000000Y-21850000D01*
%TO.N,/CH3*%
X76750000Y-55000000D02*
X76750000Y-48500000D01*
X105000000Y-20250000D02*
X105000000Y-20000000D01*
X76750000Y-48500000D02*
X105000000Y-20250000D01*
%TO.N,/CH4*%
X77250000Y-55000000D02*
X77250000Y-50050000D01*
X87300000Y-40000000D02*
X105000000Y-40000000D01*
X77250000Y-50050000D02*
X87300000Y-40000000D01*
%TD*%
M02*
