G04 #@! TF.GenerationSoftware,KiCad,Pcbnew,(5.1.10)-1*
G04 #@! TF.CreationDate,2021-08-02T15:50:52+09:00*
G04 #@! TF.ProjectId,electrode_FPCB_rev1.2c,656c6563-7472-46f6-9465-5f465043425f,1.2*
G04 #@! TF.SameCoordinates,Original*
G04 #@! TF.FileFunction,Copper,L1,Top*
G04 #@! TF.FilePolarity,Positive*
%FSLAX46Y46*%
G04 Gerber Fmt 4.6, Leading zero omitted, Abs format (unit mm)*
G04 Created by KiCad (PCBNEW (5.1.10)-1) date 2021-08-02 15:50:52*
%MOMM*%
%LPD*%
G01*
G04 APERTURE LIST*
G04 #@! TA.AperFunction,SMDPad,CuDef*
%ADD10R,0.300000X4.000000*%
G04 #@! TD*
G04 #@! TA.AperFunction,SMDPad,CuDef*
%ADD11C,8.000000*%
G04 #@! TD*
G04 #@! TA.AperFunction,Conductor*
%ADD12C,0.300000*%
G04 #@! TD*
G04 APERTURE END LIST*
D10*
X98550000Y-85700000D03*
X98050000Y-85700000D03*
X97550000Y-85700000D03*
X97050000Y-85700000D03*
X96550000Y-85700000D03*
X96050000Y-85700000D03*
X95550000Y-85700000D03*
X95050000Y-85700000D03*
X94550000Y-85700000D03*
X94050000Y-85700000D03*
D11*
X125300000Y-65700000D03*
X67300000Y-65700000D03*
X125300000Y-35700000D03*
X67300000Y-35700000D03*
X96300000Y-65700000D03*
X96300000Y-35700000D03*
D12*
X95550000Y-85700000D02*
X96050000Y-85700000D01*
X95550000Y-85700000D02*
X95050000Y-85700000D01*
X95550000Y-85700000D02*
X95550000Y-73950000D01*
X91300000Y-69700000D02*
X91300000Y-62700000D01*
X96300000Y-57700000D02*
X96300000Y-35700000D01*
X91300000Y-62700000D02*
X96300000Y-57700000D01*
X95550000Y-73950000D02*
X91300000Y-69700000D01*
X97050000Y-66450000D02*
X96300000Y-65700000D01*
X97050000Y-85700000D02*
X97050000Y-66450000D01*
X97050000Y-85700000D02*
X97550000Y-85700000D01*
X97050000Y-85700000D02*
X96550000Y-85700000D01*
X94550000Y-85700000D02*
X94550000Y-78650000D01*
X67300000Y-51400000D02*
X67300000Y-35700000D01*
X94550000Y-78650000D02*
X67300000Y-51400000D01*
X98050000Y-85700000D02*
X98050000Y-78650000D01*
X98050000Y-78650000D02*
X125300000Y-51400000D01*
X125300000Y-51400000D02*
X125300000Y-35700000D01*
X94050000Y-85700000D02*
X94050000Y-80750000D01*
X94050000Y-80750000D02*
X89000000Y-75700000D01*
X77300000Y-75700000D02*
X67300000Y-65700000D01*
X89000000Y-75700000D02*
X77300000Y-75700000D01*
X98550000Y-85700000D02*
X98550000Y-80750000D01*
X98550000Y-80750000D02*
X103600000Y-75700000D01*
X115300000Y-75700000D02*
X125300000Y-65700000D01*
X103600000Y-75700000D02*
X115300000Y-75700000D01*
M02*
