G04 #@! TF.GenerationSoftware,KiCad,Pcbnew,(5.1.10)-1*
G04 #@! TF.CreationDate,2021-08-02T15:50:52+09:00*
G04 #@! TF.ProjectId,electrode_FPCB_rev1.2c,656c6563-7472-46f6-9465-5f465043425f,1.2*
G04 #@! TF.SameCoordinates,Original*
G04 #@! TF.FileFunction,Profile,NP*
%FSLAX46Y46*%
G04 Gerber Fmt 4.6, Leading zero omitted, Abs format (unit mm)*
G04 Created by KiCad (PCBNEW (5.1.10)-1) date 2021-08-02 15:50:52*
%MOMM*%
%LPD*%
G01*
G04 APERTURE LIST*
G04 #@! TA.AperFunction,Profile*
%ADD10C,0.100000*%
G04 #@! TD*
G04 APERTURE END LIST*
D10*
X114500000Y-68600000D02*
X121900000Y-61200000D01*
X121900000Y-61200000D02*
X128900000Y-54200000D01*
X125300000Y-71200000D02*
X114400000Y-82200000D01*
X114400000Y-82200000D02*
X99050000Y-82200000D01*
X78300000Y-82200000D02*
X93550000Y-82200000D01*
X67300000Y-71200000D02*
X78300000Y-82200000D01*
X71100000Y-61500000D02*
X78300000Y-68700000D01*
X71100000Y-61500000D02*
X67300000Y-57700000D01*
X67300000Y-57700000D02*
X63750000Y-54150000D01*
X78300000Y-68700000D02*
X78300000Y-71200000D01*
X72800000Y-65700000D02*
X78300000Y-71200000D01*
X114500000Y-68600000D02*
X114500000Y-71200000D01*
X89800000Y-68000000D02*
X89800000Y-62600000D01*
X78300000Y-56550001D02*
X89800000Y-68000000D01*
X90800000Y-61600000D02*
X89800000Y-62600000D01*
X90800000Y-35700000D02*
X90800000Y-61600000D01*
X121750000Y-49100000D02*
X121749649Y-39250351D01*
X101800000Y-69000000D02*
X121750000Y-49100000D01*
X101800000Y-35700000D02*
X101800000Y-69000000D01*
X90800000Y-35700000D02*
G75*
G02*
X101800000Y-35700000I5500000J0D01*
G01*
X128900000Y-54200000D02*
X128900000Y-39199999D01*
X70899999Y-49150000D02*
X78300000Y-56550001D01*
X70899999Y-39199999D02*
X70899999Y-49150000D01*
X63750000Y-54150000D02*
X63749649Y-39250351D01*
X121749649Y-39250351D02*
G75*
G02*
X128899999Y-39199999I3550351J3550351D01*
G01*
X63749649Y-39250351D02*
G75*
G02*
X70899999Y-39199999I3550351J3550351D01*
G01*
X119800000Y-65700000D02*
X114500000Y-71200000D01*
X119800000Y-65700000D02*
G75*
G02*
X125300000Y-71200000I5500000J0D01*
G01*
X67300000Y-71200000D02*
G75*
G02*
X72800000Y-65700000I0J5500000D01*
G01*
X93550000Y-83700000D02*
X93550000Y-82200000D01*
X99050000Y-83700000D02*
X99050000Y-82200000D01*
X99050000Y-87700000D02*
X99050000Y-83700000D01*
X93550000Y-87700000D02*
X99050000Y-87700000D01*
X93550000Y-83700000D02*
X93550000Y-87700000D01*
M02*
