M48
; DRILL file {KiCad (5.1.6)-1} date 08/03/20 18:03:04
; FORMAT={-:-/ absolute / inch / decimal}
; #@! TF.CreationDate,2020-08-03T18:03:04+09:00
; #@! TF.GenerationSoftware,Kicad,Pcbnew,(5.1.6)-1
FMAT,2
INCH
T1C0.0315
T2C0.0335
T3C0.0350
T4C0.0394
T5C0.0512
T6C0.0791
T7C0.0945
T8C0.1260
%
G90
G05
T1
X4.3701Y-4.685
X4.7701Y-4.685
X3.7008Y-4.685
X4.1008Y-4.685
X3.0709Y-4.685
X3.4709Y-4.685
T2
X3.9764Y-5.2756
X4.0748Y-5.2756
X4.1732Y-5.2756
X4.2717Y-5.2756
X4.685Y-5.2756
X4.7835Y-5.2756
X4.8819Y-5.2756
X4.9803Y-5.2756
X6.2992Y-4.8622
X6.2992Y-4.9606
X6.2992Y-3.563
X6.2992Y-3.6614
X6.2992Y-4.1929
X6.2992Y-4.2913
T3
X3.8764Y-3.2677
X3.9764Y-3.2677
X4.9Y-3.2677
X5.0Y-3.2677
X5.8843Y-3.2677
X5.9843Y-3.2677
T4
X5.8268Y-4.2094
X5.8268Y-4.3094
X5.8268Y-4.4094
X3.1102Y-3.6913
X3.1102Y-4.2913
X3.2102Y-3.6913
X3.2102Y-4.2913
X3.3102Y-3.6913
X3.3102Y-4.2913
X3.4102Y-3.6913
X3.4102Y-4.2913
X3.5102Y-3.6913
X3.5102Y-4.2913
X3.6102Y-3.6913
X3.6102Y-4.2913
X3.7102Y-3.6913
X3.7102Y-4.2913
X3.8102Y-3.6913
X3.8102Y-4.2913
X3.9102Y-3.6913
X3.9102Y-4.2913
X4.0102Y-3.6913
X4.0102Y-4.2913
X4.1102Y-3.6913
X4.1102Y-4.2913
X4.2102Y-3.6913
X4.2102Y-4.2913
X4.3102Y-3.6913
X4.3102Y-4.2913
X4.4102Y-3.6913
X4.4102Y-4.2913
X4.5102Y-3.6913
X4.5102Y-4.2913
X5.8268Y-3.6189
X5.8268Y-3.7189
X5.8268Y-3.8189
X5.8268Y-4.7606
X5.8268Y-4.8606
X5.8268Y-4.9606
T5
X6.9685Y-3.9567
X6.9685Y-4.4488
X7.1654Y-3.9567
X7.1654Y-4.4488
X6.9685Y-4.6654
X6.9685Y-5.1575
X7.1654Y-4.6654
X7.1654Y-5.1575
X6.9685Y-3.2087
X6.9685Y-3.7008
X7.1654Y-3.2087
X7.1654Y-3.7008
T6
X3.7764Y-3.0677
X4.1764Y-3.0677
X4.8Y-3.0677
X5.2Y-3.0677
X5.7843Y-3.0677
X6.1843Y-3.0677
T7
X3.4724Y-5.3445
T8
X2.9528Y-5.3543
X7.5197Y-5.3543
X7.5197Y-2.9528
X2.9528Y-2.9528
T4
G00X3.2323Y-5.4094
M15
G01X3.2323Y-5.3583
M16
G05
G00X3.2677Y-5.1161
M15
G01X3.2677Y-5.0768
M16
G05
G00X3.3504Y-5.1161
M15
G01X3.3504Y-5.0768
M16
G05
G00X3.4528Y-5.0571
M15
G01X3.4921Y-5.0571
M16
G05
G00X3.6063Y-5.1161
M15
G01X3.6063Y-5.0768
M16
G05
G00X3.6181Y-5.4094
M15
G01X3.6181Y-5.3583
M16
G05
T0
M30
