%TF.GenerationSoftware,KiCad,Pcbnew,(5.1.6)-1*%
%TF.CreationDate,2020-08-04T09:12:00+09:00*%
%TF.ProjectId,arduino_pcb,61726475-696e-46f5-9f70-63622e6b6963,rev?*%
%TF.SameCoordinates,Original*%
%TF.FileFunction,Copper,L1,Top*%
%TF.FilePolarity,Positive*%
%FSLAX46Y46*%
G04 Gerber Fmt 4.6, Leading zero omitted, Abs format (unit mm)*
G04 Created by KiCad (PCBNEW (5.1.6)-1) date 2020-08-04 09:12:00*
%MOMM*%
%LPD*%
G01*
G04 APERTURE LIST*
%TA.AperFunction,ComponentPad*%
%ADD10O,1.850000X3.048000*%
%TD*%
%TA.AperFunction,ComponentPad*%
%ADD11O,1.600000X1.600000*%
%TD*%
%TA.AperFunction,ComponentPad*%
%ADD12C,1.600000*%
%TD*%
%TA.AperFunction,ComponentPad*%
%ADD13C,2.000000*%
%TD*%
%TA.AperFunction,ComponentPad*%
%ADD14R,2.000000X2.000000*%
%TD*%
%TA.AperFunction,ComponentPad*%
%ADD15O,1.700000X1.850000*%
%TD*%
%TA.AperFunction,ComponentPad*%
%ADD16O,1.850000X1.700000*%
%TD*%
%TA.AperFunction,ComponentPad*%
%ADD17O,1.600000X2.500000*%
%TD*%
%TA.AperFunction,ComponentPad*%
%ADD18O,3.500000X7.000000*%
%TD*%
%TA.AperFunction,ComponentPad*%
%ADD19O,1.508000X3.016000*%
%TD*%
%TA.AperFunction,ComponentPad*%
%ADD20O,3.016000X1.508000*%
%TD*%
%TA.AperFunction,ComponentPad*%
%ADD21R,1.600000X1.600000*%
%TD*%
%TA.AperFunction,Conductor*%
%ADD22C,0.250000*%
%TD*%
%TA.AperFunction,Conductor*%
%ADD23C,0.254000*%
%TD*%
G04 APERTURE END LIST*
D10*
%TO.P,SW3,2*%
%TO.N,+3V3*%
X182000000Y-94000000D03*
%TO.P,SW3,1*%
%TO.N,/FREQ*%
X177000000Y-94000000D03*
%TO.P,SW3,2*%
%TO.N,+3V3*%
X182000000Y-81500000D03*
%TO.P,SW3,1*%
%TO.N,/FREQ*%
X177000000Y-81500000D03*
%TD*%
%TO.P,SW2,2*%
%TO.N,+3V3*%
X182000000Y-131000000D03*
%TO.P,SW2,1*%
%TO.N,/STATE*%
X177000000Y-131000000D03*
%TO.P,SW2,2*%
%TO.N,+3V3*%
X182000000Y-118500000D03*
%TO.P,SW2,1*%
%TO.N,/STATE*%
X177000000Y-118500000D03*
%TD*%
%TO.P,SW1,2*%
%TO.N,+3V3*%
X182000000Y-113000000D03*
%TO.P,SW1,1*%
%TO.N,/OPERATE*%
X177000000Y-113000000D03*
%TO.P,SW1,2*%
%TO.N,+3V3*%
X182000000Y-100500000D03*
%TO.P,SW1,1*%
%TO.N,/OPERATE*%
X177000000Y-100500000D03*
%TD*%
D11*
%TO.P,R3,2*%
%TO.N,GND*%
X121160000Y-119000000D03*
D12*
%TO.P,R3,1*%
%TO.N,/STATE*%
X111000000Y-119000000D03*
%TD*%
D11*
%TO.P,R2,2*%
%TO.N,GND*%
X104160000Y-119000000D03*
D12*
%TO.P,R2,1*%
%TO.N,/OPERATE*%
X94000000Y-119000000D03*
%TD*%
D11*
%TO.P,R1,2*%
%TO.N,GND*%
X88160000Y-119000000D03*
D12*
%TO.P,R1,1*%
%TO.N,/FREQ*%
X78000000Y-119000000D03*
%TD*%
D13*
%TO.P,Q3,3*%
%TO.N,GND*%
X148000000Y-91920000D03*
%TO.P,Q3,2*%
%TO.N,/BLUELED*%
X148000000Y-94460000D03*
D14*
%TO.P,Q3,1*%
%TO.N,/BLUEPIN*%
X148000000Y-97000000D03*
%TD*%
D13*
%TO.P,Q2,3*%
%TO.N,GND*%
X148000000Y-106920000D03*
%TO.P,Q2,2*%
%TO.N,/GREENLED*%
X148000000Y-109460000D03*
D14*
%TO.P,Q2,1*%
%TO.N,/GREENPIN*%
X148000000Y-112000000D03*
%TD*%
D13*
%TO.P,Q1,3*%
%TO.N,GND*%
X148000000Y-120920000D03*
%TO.P,Q1,2*%
%TO.N,/REDLED*%
X148000000Y-123460000D03*
D14*
%TO.P,Q1,1*%
%TO.N,/REDPIN*%
X148000000Y-126000000D03*
%TD*%
D15*
%TO.P,J9,4*%
%TO.N,/BLUELED*%
X126500000Y-134000000D03*
%TO.P,J9,3*%
%TO.N,/REDLED*%
X124000000Y-134000000D03*
%TO.P,J9,2*%
%TO.N,/GREENLED*%
X121500000Y-134000000D03*
%TO.P,J9,1*%
%TO.N,+12V*%
%TA.AperFunction,ComponentPad*%
G36*
G01*
X118150000Y-134675000D02*
X118150000Y-133325000D01*
G75*
G02*
X118400000Y-133075000I250000J0D01*
G01*
X119600000Y-133075000D01*
G75*
G02*
X119850000Y-133325000I0J-250000D01*
G01*
X119850000Y-134675000D01*
G75*
G02*
X119600000Y-134925000I-250000J0D01*
G01*
X118400000Y-134925000D01*
G75*
G02*
X118150000Y-134675000I0J250000D01*
G01*
G37*
%TD.AperFunction*%
%TD*%
D16*
%TO.P,J8,2*%
%TO.N,/FREQ*%
X160000000Y-90500000D03*
%TO.P,J8,1*%
%TO.N,+3V3*%
%TA.AperFunction,ComponentPad*%
G36*
G01*
X160675000Y-93850000D02*
X159325000Y-93850000D01*
G75*
G02*
X159075000Y-93600000I0J250000D01*
G01*
X159075000Y-92400000D01*
G75*
G02*
X159325000Y-92150000I250000J0D01*
G01*
X160675000Y-92150000D01*
G75*
G02*
X160925000Y-92400000I0J-250000D01*
G01*
X160925000Y-93600000D01*
G75*
G02*
X160675000Y-93850000I-250000J0D01*
G01*
G37*
%TD.AperFunction*%
%TD*%
%TO.P,J7,2*%
%TO.N,/STATE*%
X160000000Y-123500000D03*
%TO.P,J7,1*%
%TO.N,+3V3*%
%TA.AperFunction,ComponentPad*%
G36*
G01*
X160675000Y-126850000D02*
X159325000Y-126850000D01*
G75*
G02*
X159075000Y-126600000I0J250000D01*
G01*
X159075000Y-125400000D01*
G75*
G02*
X159325000Y-125150000I250000J0D01*
G01*
X160675000Y-125150000D01*
G75*
G02*
X160925000Y-125400000I0J-250000D01*
G01*
X160925000Y-126600000D01*
G75*
G02*
X160675000Y-126850000I-250000J0D01*
G01*
G37*
%TD.AperFunction*%
%TD*%
%TO.P,J6,2*%
%TO.N,/OPERATE*%
X160000000Y-106500000D03*
%TO.P,J6,1*%
%TO.N,+3V3*%
%TA.AperFunction,ComponentPad*%
G36*
G01*
X160675000Y-109850000D02*
X159325000Y-109850000D01*
G75*
G02*
X159075000Y-109600000I0J250000D01*
G01*
X159075000Y-108400000D01*
G75*
G02*
X159325000Y-108150000I250000J0D01*
G01*
X160675000Y-108150000D01*
G75*
G02*
X160925000Y-108400000I0J-250000D01*
G01*
X160925000Y-109600000D01*
G75*
G02*
X160675000Y-109850000I-250000J0D01*
G01*
G37*
%TD.AperFunction*%
%TD*%
D15*
%TO.P,J5,4*%
%TO.N,/BLUELED*%
X108500000Y-134000000D03*
%TO.P,J5,3*%
%TO.N,/REDLED*%
X106000000Y-134000000D03*
%TO.P,J5,2*%
%TO.N,/GREENLED*%
X103500000Y-134000000D03*
%TO.P,J5,1*%
%TO.N,+12V*%
%TA.AperFunction,ComponentPad*%
G36*
G01*
X100150000Y-134675000D02*
X100150000Y-133325000D01*
G75*
G02*
X100400000Y-133075000I250000J0D01*
G01*
X101600000Y-133075000D01*
G75*
G02*
X101850000Y-133325000I0J-250000D01*
G01*
X101850000Y-134675000D01*
G75*
G02*
X101600000Y-134925000I-250000J0D01*
G01*
X100400000Y-134925000D01*
G75*
G02*
X100150000Y-134675000I0J250000D01*
G01*
G37*
%TD.AperFunction*%
%TD*%
D17*
%TO.P,J4,2*%
%TO.N,GND*%
X149460000Y-83000000D03*
%TO.P,J4,1*%
%TO.N,/TDTPIN2*%
X152000000Y-83000000D03*
D18*
%TO.P,J4,2*%
%TO.N,GND*%
X157080000Y-77920000D03*
X146920000Y-77920000D03*
%TD*%
D17*
%TO.P,J3,2*%
%TO.N,GND*%
X124460000Y-83000000D03*
%TO.P,J3,1*%
%TO.N,/TDTPIN1*%
X127000000Y-83000000D03*
D18*
%TO.P,J3,2*%
%TO.N,GND*%
X132080000Y-77920000D03*
X121920000Y-77920000D03*
%TD*%
D17*
%TO.P,J2,2*%
%TO.N,GND*%
X98460000Y-83000000D03*
%TO.P,J2,1*%
%TO.N,/TDTPIN0*%
X101000000Y-83000000D03*
D18*
%TO.P,J2,2*%
%TO.N,GND*%
X106080000Y-77920000D03*
X95920000Y-77920000D03*
%TD*%
D19*
%TO.P,J1,6*%
%TO.N,N/C*%
X91900000Y-136750000D03*
%TO.P,J1,5*%
X82100000Y-136750000D03*
%TO.P,J1,4*%
X91600000Y-129450000D03*
%TO.P,J1,2*%
%TO.N,GND*%
X83000000Y-129450000D03*
%TO.P,J1,3*%
%TO.N,N/C*%
X85100000Y-129450000D03*
D20*
%TO.P,J1,1*%
%TO.N,+12V*%
X88200000Y-128450000D03*
%TD*%
D11*
%TO.P,A1,16*%
%TO.N,Net-(A1-Pad16)*%
X114560000Y-93760000D03*
%TO.P,A1,15*%
%TO.N,/OPERATE*%
X114560000Y-109000000D03*
%TO.P,A1,30*%
%TO.N,+12V*%
X79000000Y-93760000D03*
%TO.P,A1,14*%
%TO.N,/TDTPIN2*%
X112020000Y-109000000D03*
%TO.P,A1,29*%
%TO.N,GND*%
X81540000Y-93760000D03*
%TO.P,A1,13*%
%TO.N,/TDTPIN1*%
X109480000Y-109000000D03*
%TO.P,A1,28*%
%TO.N,Net-(A1-Pad28)*%
X84080000Y-93760000D03*
%TO.P,A1,12*%
%TO.N,/TDTPIN0*%
X106940000Y-109000000D03*
%TO.P,A1,27*%
%TO.N,+5V*%
X86620000Y-93760000D03*
%TO.P,A1,11*%
%TO.N,/FREQ*%
X104400000Y-109000000D03*
%TO.P,A1,26*%
%TO.N,Net-(A1-Pad26)*%
X89160000Y-93760000D03*
%TO.P,A1,10*%
%TO.N,/STATE*%
X101860000Y-109000000D03*
%TO.P,A1,25*%
%TO.N,Net-(A1-Pad25)*%
X91700000Y-93760000D03*
%TO.P,A1,9*%
%TO.N,/GREENPIN*%
X99320000Y-109000000D03*
%TO.P,A1,24*%
%TO.N,Net-(A1-Pad24)*%
X94240000Y-93760000D03*
%TO.P,A1,8*%
%TO.N,/REDPIN*%
X96780000Y-109000000D03*
%TO.P,A1,23*%
%TO.N,Net-(A1-Pad23)*%
X96780000Y-93760000D03*
%TO.P,A1,7*%
%TO.N,Net-(A1-Pad7)*%
X94240000Y-109000000D03*
%TO.P,A1,22*%
%TO.N,Net-(A1-Pad22)*%
X99320000Y-93760000D03*
%TO.P,A1,6*%
%TO.N,/BLUEPIN*%
X91700000Y-109000000D03*
%TO.P,A1,21*%
%TO.N,Net-(A1-Pad21)*%
X101860000Y-93760000D03*
%TO.P,A1,5*%
%TO.N,Net-(A1-Pad5)*%
X89160000Y-109000000D03*
%TO.P,A1,20*%
%TO.N,Net-(A1-Pad20)*%
X104400000Y-93760000D03*
%TO.P,A1,4*%
%TO.N,GND*%
X86620000Y-109000000D03*
%TO.P,A1,19*%
%TO.N,Net-(A1-Pad19)*%
X106940000Y-93760000D03*
%TO.P,A1,3*%
%TO.N,Net-(A1-Pad3)*%
X84080000Y-109000000D03*
%TO.P,A1,18*%
%TO.N,Net-(A1-Pad18)*%
X109480000Y-93760000D03*
%TO.P,A1,2*%
%TO.N,Net-(A1-Pad2)*%
X81540000Y-109000000D03*
%TO.P,A1,17*%
%TO.N,+3V3*%
X112020000Y-93760000D03*
D21*
%TO.P,A1,1*%
%TO.N,Net-(A1-Pad1)*%
X79000000Y-109000000D03*
%TD*%
D22*
%TO.N,/OPERATE*%
X173437000Y-105912300D02*
X177000000Y-102349300D01*
X160000000Y-105912300D02*
X173437000Y-105912300D01*
X173437000Y-105912300D02*
X173437000Y-107587700D01*
X173437000Y-107587700D02*
X177000000Y-111150700D01*
X177000000Y-113000000D02*
X177000000Y-111150700D01*
X177000000Y-100500000D02*
X177000000Y-102349300D01*
X160000000Y-105912300D02*
X160000000Y-105324700D01*
X160000000Y-106500000D02*
X160000000Y-105912300D01*
X114560000Y-109000000D02*
X115685300Y-109000000D01*
X115685300Y-109000000D02*
X119360600Y-105324700D01*
X119360600Y-105324700D02*
X160000000Y-105324700D01*
%TO.N,GND*%
X157080000Y-77920000D02*
X153575300Y-81424700D01*
X153575300Y-81424700D02*
X149460000Y-81424700D01*
X146920000Y-77920000D02*
X146920000Y-81745300D01*
X146920000Y-81745300D02*
X147883000Y-81745300D01*
X147883000Y-81745300D02*
X148203600Y-81424700D01*
X148203600Y-81424700D02*
X149460000Y-81424700D01*
X132080000Y-77920000D02*
X146920000Y-77920000D01*
X149460000Y-83000000D02*
X149460000Y-81424700D01*
X98460000Y-83000000D02*
X98460000Y-81424700D01*
X98460000Y-81424700D02*
X102575300Y-81424700D01*
X102575300Y-81424700D02*
X106080000Y-77920000D01*
X86620000Y-109000000D02*
X86620000Y-107874700D01*
X86620000Y-107874700D02*
X81540000Y-102794700D01*
X81540000Y-102794700D02*
X81540000Y-93760000D01*
X104160000Y-119000000D02*
X103034700Y-119000000D01*
X88160000Y-119000000D02*
X89285300Y-119000000D01*
X89285300Y-119000000D02*
X90410600Y-117874700D01*
X90410600Y-117874700D02*
X101909400Y-117874700D01*
X101909400Y-117874700D02*
X103034700Y-119000000D01*
X106080000Y-77920000D02*
X121920000Y-77920000D01*
%TO.N,/FREQ*%
X177000000Y-81500000D02*
X177000000Y-83349300D01*
X176837600Y-93837600D02*
X177000000Y-94000000D01*
X161265500Y-93837600D02*
X176837600Y-93837600D01*
X177000000Y-83349300D02*
X176837600Y-83511700D01*
X176837600Y-83511700D02*
X176837600Y-93837600D01*
X161265500Y-93837600D02*
X151833300Y-103269800D01*
X151833300Y-103269800D02*
X110974200Y-103269800D01*
X110974200Y-103269800D02*
X105525300Y-108718700D01*
X105525300Y-108718700D02*
X105525300Y-109000000D01*
X160000000Y-91675300D02*
X160791000Y-91675300D01*
X160791000Y-91675300D02*
X161265500Y-92149800D01*
X161265500Y-92149800D02*
X161265500Y-93837600D01*
X104400000Y-109000000D02*
X105525300Y-109000000D01*
X104400000Y-109000000D02*
X103274700Y-109000000D01*
X103274700Y-109000000D02*
X103274700Y-108718700D01*
X103274700Y-108718700D02*
X102417200Y-107861200D01*
X102417200Y-107861200D02*
X96324100Y-107861200D01*
X96324100Y-107861200D02*
X95510000Y-108675300D01*
X95510000Y-108675300D02*
X95510000Y-109400300D01*
X95510000Y-109400300D02*
X85910300Y-119000000D01*
X85910300Y-119000000D02*
X78000000Y-119000000D01*
X160000000Y-90500000D02*
X160000000Y-91675300D01*
%TO.N,/STATE*%
X111000000Y-119000000D02*
X112133700Y-120133700D01*
X112133700Y-120133700D02*
X145841800Y-120133700D01*
X145841800Y-120133700D02*
X146399800Y-119575700D01*
X146399800Y-119575700D02*
X156663400Y-119575700D01*
X156663400Y-119575700D02*
X160000000Y-122912300D01*
X174437000Y-122912300D02*
X177000000Y-120349300D01*
X160000000Y-122912300D02*
X174437000Y-122912300D01*
X174437000Y-122912300D02*
X174437000Y-126587700D01*
X174437000Y-126587700D02*
X177000000Y-129150700D01*
X177000000Y-131000000D02*
X177000000Y-129150700D01*
X177000000Y-118500000D02*
X177000000Y-120349300D01*
X160000000Y-123500000D02*
X160000000Y-122912300D01*
%TO.N,/GREENPIN*%
X99320000Y-109000000D02*
X100445300Y-109000000D01*
X100445300Y-109000000D02*
X100445300Y-109281300D01*
X100445300Y-109281300D02*
X103164000Y-112000000D01*
X103164000Y-112000000D02*
X148000000Y-112000000D01*
%TO.N,/REDPIN*%
X96780000Y-109000000D02*
X97905300Y-109000000D01*
X97905300Y-109000000D02*
X97905300Y-109281300D01*
X97905300Y-109281300D02*
X114624000Y-126000000D01*
X114624000Y-126000000D02*
X148000000Y-126000000D01*
%TO.N,/BLUEPIN*%
X91700000Y-109000000D02*
X92825300Y-109000000D01*
X92825300Y-109000000D02*
X92825300Y-108718700D01*
X92825300Y-108718700D02*
X104544000Y-97000000D01*
X104544000Y-97000000D02*
X148000000Y-97000000D01*
%TO.N,+3V3*%
X112020000Y-93760000D02*
X113145300Y-93760000D01*
X113145300Y-93760000D02*
X113145300Y-93478700D01*
X113145300Y-93478700D02*
X116032800Y-90591200D01*
X116032800Y-90591200D02*
X157591200Y-90591200D01*
X157591200Y-90591200D02*
X160000000Y-93000000D01*
%TO.N,/BLUELED*%
X125324700Y-134000000D02*
X125324700Y-133559300D01*
X125324700Y-133559300D02*
X124052300Y-132286900D01*
X124052300Y-132286900D02*
X111388400Y-132286900D01*
X111388400Y-132286900D02*
X109675300Y-134000000D01*
X108500000Y-134000000D02*
X109675300Y-134000000D01*
X126500000Y-134000000D02*
X125324700Y-134000000D01*
%TO.N,/GREENLED*%
X103500000Y-134000000D02*
X104675300Y-134000000D01*
X121500000Y-134000000D02*
X120324700Y-134000000D01*
X120324700Y-134000000D02*
X120324700Y-133192000D01*
X120324700Y-133192000D02*
X119869900Y-132737200D01*
X119869900Y-132737200D02*
X112194900Y-132737200D01*
X112194900Y-132737200D02*
X109666100Y-135266000D01*
X109666100Y-135266000D02*
X105500600Y-135266000D01*
X105500600Y-135266000D02*
X104675300Y-134440700D01*
X104675300Y-134440700D02*
X104675300Y-134000000D01*
%TD*%
D23*
%TO.N,GND*%
G36*
X186563000Y-78740000D02*
G01*
X186565440Y-78764776D01*
X186572667Y-78788601D01*
X186584403Y-78810557D01*
X186600197Y-78829803D01*
X186619443Y-78845597D01*
X186641399Y-78857333D01*
X186665224Y-78864560D01*
X186690000Y-78867000D01*
X194183000Y-78867000D01*
X194183000Y-130683000D01*
X186690000Y-130683000D01*
X186665224Y-130685440D01*
X186641399Y-130692667D01*
X186619443Y-130704403D01*
X186600197Y-130720197D01*
X186584403Y-130739443D01*
X186572667Y-130761399D01*
X186565440Y-130785224D01*
X186563000Y-130810000D01*
X186563000Y-138303000D01*
X93041147Y-138303000D01*
X93060499Y-138279420D01*
X93189477Y-138038119D01*
X93268902Y-137776291D01*
X93289000Y-137572230D01*
X93289000Y-135927770D01*
X93268902Y-135723709D01*
X93189477Y-135461881D01*
X93060499Y-135220580D01*
X92886922Y-135009077D01*
X92675419Y-134835501D01*
X92434118Y-134706523D01*
X92172290Y-134627098D01*
X91900000Y-134600280D01*
X91627709Y-134627098D01*
X91365881Y-134706523D01*
X91124580Y-134835501D01*
X90913077Y-135009078D01*
X90739501Y-135220581D01*
X90610523Y-135461882D01*
X90531098Y-135723710D01*
X90511000Y-135927771D01*
X90511000Y-137572230D01*
X90531098Y-137776291D01*
X90610524Y-138038119D01*
X90739502Y-138279420D01*
X90758854Y-138303000D01*
X83241147Y-138303000D01*
X83260499Y-138279420D01*
X83389477Y-138038119D01*
X83468902Y-137776291D01*
X83489000Y-137572230D01*
X83489000Y-135927770D01*
X83468902Y-135723709D01*
X83422053Y-135569268D01*
X86365000Y-135569268D01*
X86365000Y-135930732D01*
X86435518Y-136285250D01*
X86573844Y-136619199D01*
X86774662Y-136919744D01*
X87030256Y-137175338D01*
X87330801Y-137376156D01*
X87664750Y-137514482D01*
X88019268Y-137585000D01*
X88380732Y-137585000D01*
X88735250Y-137514482D01*
X89069199Y-137376156D01*
X89369744Y-137175338D01*
X89625338Y-136919744D01*
X89826156Y-136619199D01*
X89964482Y-136285250D01*
X90035000Y-135930732D01*
X90035000Y-135569268D01*
X89964482Y-135214750D01*
X89826156Y-134880801D01*
X89625338Y-134580256D01*
X89369744Y-134324662D01*
X89069199Y-134123844D01*
X88735250Y-133985518D01*
X88380732Y-133915000D01*
X88019268Y-133915000D01*
X87664750Y-133985518D01*
X87330801Y-134123844D01*
X87030256Y-134324662D01*
X86774662Y-134580256D01*
X86573844Y-134880801D01*
X86435518Y-135214750D01*
X86365000Y-135569268D01*
X83422053Y-135569268D01*
X83389477Y-135461881D01*
X83260499Y-135220580D01*
X83086922Y-135009077D01*
X82875419Y-134835501D01*
X82634118Y-134706523D01*
X82372290Y-134627098D01*
X82100000Y-134600280D01*
X81827709Y-134627098D01*
X81565881Y-134706523D01*
X81324580Y-134835501D01*
X81113077Y-135009078D01*
X80939501Y-135220581D01*
X80810523Y-135461882D01*
X80731098Y-135723710D01*
X80711000Y-135927771D01*
X80711000Y-137572230D01*
X80731098Y-137776291D01*
X80810524Y-138038119D01*
X80939502Y-138279420D01*
X80958854Y-138303000D01*
X78867000Y-138303000D01*
X78867000Y-133325000D01*
X99511928Y-133325000D01*
X99511928Y-134675000D01*
X99528992Y-134848254D01*
X99579528Y-135014850D01*
X99661595Y-135168386D01*
X99772038Y-135302962D01*
X99906614Y-135413405D01*
X100060150Y-135495472D01*
X100226746Y-135546008D01*
X100400000Y-135563072D01*
X101600000Y-135563072D01*
X101773254Y-135546008D01*
X101939850Y-135495472D01*
X102093386Y-135413405D01*
X102227962Y-135302962D01*
X102338405Y-135168386D01*
X102392777Y-135066663D01*
X102444866Y-135130134D01*
X102670987Y-135315706D01*
X102928967Y-135453599D01*
X103208890Y-135538513D01*
X103500000Y-135567185D01*
X103791111Y-135538513D01*
X104071034Y-135453599D01*
X104329014Y-135315706D01*
X104409473Y-135249675D01*
X104936805Y-135777008D01*
X104960599Y-135806001D01*
X104989592Y-135829795D01*
X104989596Y-135829799D01*
X105060285Y-135887811D01*
X105076324Y-135900974D01*
X105208353Y-135971546D01*
X105351614Y-136015003D01*
X105463267Y-136026000D01*
X105463276Y-136026000D01*
X105500599Y-136029676D01*
X105537922Y-136026000D01*
X109628778Y-136026000D01*
X109666100Y-136029676D01*
X109703422Y-136026000D01*
X109703433Y-136026000D01*
X109815086Y-136015003D01*
X109958347Y-135971546D01*
X110090376Y-135900974D01*
X110206101Y-135806001D01*
X110229904Y-135776997D01*
X112509702Y-133497200D01*
X117511928Y-133497200D01*
X117511928Y-134675000D01*
X117528992Y-134848254D01*
X117579528Y-135014850D01*
X117661595Y-135168386D01*
X117772038Y-135302962D01*
X117906614Y-135413405D01*
X118060150Y-135495472D01*
X118226746Y-135546008D01*
X118400000Y-135563072D01*
X119600000Y-135563072D01*
X119773254Y-135546008D01*
X119939850Y-135495472D01*
X120093386Y-135413405D01*
X120227962Y-135302962D01*
X120338405Y-135168386D01*
X120392777Y-135066663D01*
X120444866Y-135130134D01*
X120670987Y-135315706D01*
X120928967Y-135453599D01*
X121208890Y-135538513D01*
X121500000Y-135567185D01*
X121791111Y-135538513D01*
X122071034Y-135453599D01*
X122329014Y-135315706D01*
X122555134Y-135130134D01*
X122740706Y-134904013D01*
X122750000Y-134886626D01*
X122759294Y-134904014D01*
X122944866Y-135130134D01*
X123170987Y-135315706D01*
X123428967Y-135453599D01*
X123708890Y-135538513D01*
X124000000Y-135567185D01*
X124291111Y-135538513D01*
X124571034Y-135453599D01*
X124829014Y-135315706D01*
X125055134Y-135130134D01*
X125240706Y-134904013D01*
X125250000Y-134886626D01*
X125259294Y-134904014D01*
X125444866Y-135130134D01*
X125670987Y-135315706D01*
X125928967Y-135453599D01*
X126208890Y-135538513D01*
X126500000Y-135567185D01*
X126791111Y-135538513D01*
X127071034Y-135453599D01*
X127329014Y-135315706D01*
X127555134Y-135130134D01*
X127740706Y-134904013D01*
X127878599Y-134646033D01*
X127963513Y-134366110D01*
X127985000Y-134147949D01*
X127985000Y-133852050D01*
X127963513Y-133633889D01*
X127878599Y-133353966D01*
X127740706Y-133095986D01*
X127555134Y-132869866D01*
X127329013Y-132684294D01*
X127071033Y-132546401D01*
X126791110Y-132461487D01*
X126500000Y-132432815D01*
X126208889Y-132461487D01*
X125928966Y-132546401D01*
X125670986Y-132684294D01*
X125590527Y-132750325D01*
X124616104Y-131775903D01*
X124592301Y-131746899D01*
X124476576Y-131651926D01*
X124344547Y-131581354D01*
X124201286Y-131537897D01*
X124089633Y-131526900D01*
X124089622Y-131526900D01*
X124052300Y-131523224D01*
X124014978Y-131526900D01*
X111425722Y-131526900D01*
X111388399Y-131523224D01*
X111351076Y-131526900D01*
X111351067Y-131526900D01*
X111239414Y-131537897D01*
X111096153Y-131581354D01*
X110964124Y-131651926D01*
X110848399Y-131746899D01*
X110824601Y-131775897D01*
X109634241Y-132966258D01*
X109555134Y-132869866D01*
X109329013Y-132684294D01*
X109071033Y-132546401D01*
X108791110Y-132461487D01*
X108500000Y-132432815D01*
X108208889Y-132461487D01*
X107928966Y-132546401D01*
X107670986Y-132684294D01*
X107444866Y-132869866D01*
X107259294Y-133095987D01*
X107250000Y-133113374D01*
X107240706Y-133095986D01*
X107055134Y-132869866D01*
X106829013Y-132684294D01*
X106571033Y-132546401D01*
X106291110Y-132461487D01*
X106000000Y-132432815D01*
X105708889Y-132461487D01*
X105428966Y-132546401D01*
X105170986Y-132684294D01*
X104944866Y-132869866D01*
X104759294Y-133095987D01*
X104750000Y-133113374D01*
X104740706Y-133095986D01*
X104555134Y-132869866D01*
X104329013Y-132684294D01*
X104071033Y-132546401D01*
X103791110Y-132461487D01*
X103500000Y-132432815D01*
X103208889Y-132461487D01*
X102928966Y-132546401D01*
X102670986Y-132684294D01*
X102444866Y-132869866D01*
X102392777Y-132933337D01*
X102338405Y-132831614D01*
X102227962Y-132697038D01*
X102093386Y-132586595D01*
X101939850Y-132504528D01*
X101773254Y-132453992D01*
X101600000Y-132436928D01*
X100400000Y-132436928D01*
X100226746Y-132453992D01*
X100060150Y-132504528D01*
X99906614Y-132586595D01*
X99772038Y-132697038D01*
X99661595Y-132831614D01*
X99579528Y-132985150D01*
X99528992Y-133151746D01*
X99511928Y-133325000D01*
X78867000Y-133325000D01*
X78867000Y-132080000D01*
X78864560Y-132055224D01*
X78857333Y-132031399D01*
X78845597Y-132009443D01*
X78829803Y-131990197D01*
X78810557Y-131974403D01*
X78788601Y-131962667D01*
X78764776Y-131955440D01*
X78740000Y-131953000D01*
X72517000Y-131953000D01*
X72517000Y-129577000D01*
X81611000Y-129577000D01*
X81611000Y-130331000D01*
X81662466Y-130599540D01*
X81765332Y-130852880D01*
X81915646Y-131081284D01*
X82107631Y-131275974D01*
X82333909Y-131429469D01*
X82585785Y-131535870D01*
X82658186Y-131550286D01*
X82873000Y-131427677D01*
X82873000Y-129577000D01*
X81611000Y-129577000D01*
X72517000Y-129577000D01*
X72517000Y-128569000D01*
X81611000Y-128569000D01*
X81611000Y-129323000D01*
X82873000Y-129323000D01*
X82873000Y-127472323D01*
X83127000Y-127472323D01*
X83127000Y-129323000D01*
X83147000Y-129323000D01*
X83147000Y-129577000D01*
X83127000Y-129577000D01*
X83127000Y-131427677D01*
X83341814Y-131550286D01*
X83414215Y-131535870D01*
X83666091Y-131429469D01*
X83892369Y-131275974D01*
X84050923Y-131115186D01*
X84113078Y-131190923D01*
X84324581Y-131364499D01*
X84565882Y-131493477D01*
X84827710Y-131572902D01*
X85100000Y-131599720D01*
X85372291Y-131572902D01*
X85634119Y-131493477D01*
X85875420Y-131364499D01*
X86086923Y-131190923D01*
X86260499Y-130979420D01*
X86389477Y-130738119D01*
X86468902Y-130476291D01*
X86489000Y-130272230D01*
X86489000Y-129461480D01*
X86670580Y-129610499D01*
X86911881Y-129739477D01*
X87173709Y-129818902D01*
X87377770Y-129839000D01*
X89022230Y-129839000D01*
X89226291Y-129818902D01*
X89488119Y-129739477D01*
X89729420Y-129610499D01*
X89940923Y-129436923D01*
X90114499Y-129225420D01*
X90211000Y-129044879D01*
X90211000Y-130272230D01*
X90231098Y-130476291D01*
X90310524Y-130738119D01*
X90439502Y-130979420D01*
X90613078Y-131190923D01*
X90824581Y-131364499D01*
X91065882Y-131493477D01*
X91327710Y-131572902D01*
X91600000Y-131599720D01*
X91872291Y-131572902D01*
X92134119Y-131493477D01*
X92375420Y-131364499D01*
X92586923Y-131190923D01*
X92760499Y-130979420D01*
X92889477Y-130738119D01*
X92968902Y-130476291D01*
X92989000Y-130272230D01*
X92989000Y-128627770D01*
X92968902Y-128423709D01*
X92889477Y-128161881D01*
X92760499Y-127920580D01*
X92586922Y-127709077D01*
X92375419Y-127535501D01*
X92134118Y-127406523D01*
X91872290Y-127327098D01*
X91600000Y-127300280D01*
X91327709Y-127327098D01*
X91065881Y-127406523D01*
X90824580Y-127535501D01*
X90613077Y-127709078D01*
X90439501Y-127920581D01*
X90315357Y-128152838D01*
X90243477Y-127915881D01*
X90114499Y-127674580D01*
X89940923Y-127463077D01*
X89729420Y-127289501D01*
X89488119Y-127160523D01*
X89226291Y-127081098D01*
X89022230Y-127061000D01*
X87377770Y-127061000D01*
X87173709Y-127081098D01*
X86911881Y-127160523D01*
X86670580Y-127289501D01*
X86459077Y-127463077D01*
X86285501Y-127674580D01*
X86196012Y-127842003D01*
X86086922Y-127709077D01*
X85875419Y-127535501D01*
X85634118Y-127406523D01*
X85372290Y-127327098D01*
X85100000Y-127300280D01*
X84827709Y-127327098D01*
X84565881Y-127406523D01*
X84324580Y-127535501D01*
X84113077Y-127709078D01*
X84050923Y-127784813D01*
X83892369Y-127624026D01*
X83666091Y-127470531D01*
X83414215Y-127364130D01*
X83341814Y-127349714D01*
X83127000Y-127472323D01*
X82873000Y-127472323D01*
X82658186Y-127349714D01*
X82585785Y-127364130D01*
X82333909Y-127470531D01*
X82107631Y-127624026D01*
X81915646Y-127818716D01*
X81765332Y-128047120D01*
X81662466Y-128300460D01*
X81611000Y-128569000D01*
X72517000Y-128569000D01*
X72517000Y-118858665D01*
X76565000Y-118858665D01*
X76565000Y-119141335D01*
X76620147Y-119418574D01*
X76728320Y-119679727D01*
X76885363Y-119914759D01*
X77085241Y-120114637D01*
X77320273Y-120271680D01*
X77581426Y-120379853D01*
X77858665Y-120435000D01*
X78141335Y-120435000D01*
X78418574Y-120379853D01*
X78679727Y-120271680D01*
X78914759Y-120114637D01*
X79114637Y-119914759D01*
X79218043Y-119760000D01*
X85872978Y-119760000D01*
X85910300Y-119763676D01*
X85947622Y-119760000D01*
X85947633Y-119760000D01*
X86059286Y-119749003D01*
X86202547Y-119705546D01*
X86334576Y-119634974D01*
X86450301Y-119540001D01*
X86474104Y-119510997D01*
X86858099Y-119127002D01*
X86890084Y-119127002D01*
X86768096Y-119349039D01*
X86808754Y-119483087D01*
X86928963Y-119737420D01*
X87096481Y-119963414D01*
X87304869Y-120152385D01*
X87546119Y-120297070D01*
X87810960Y-120391909D01*
X88033000Y-120270624D01*
X88033000Y-119127000D01*
X88287000Y-119127000D01*
X88287000Y-120270624D01*
X88509040Y-120391909D01*
X88773881Y-120297070D01*
X89015131Y-120152385D01*
X89223519Y-119963414D01*
X89391037Y-119737420D01*
X89511246Y-119483087D01*
X89551904Y-119349039D01*
X89429915Y-119127000D01*
X88287000Y-119127000D01*
X88033000Y-119127000D01*
X88013000Y-119127000D01*
X88013000Y-118873000D01*
X88033000Y-118873000D01*
X88033000Y-118853000D01*
X88287000Y-118853000D01*
X88287000Y-118873000D01*
X89429915Y-118873000D01*
X89437790Y-118858665D01*
X92565000Y-118858665D01*
X92565000Y-119141335D01*
X92620147Y-119418574D01*
X92728320Y-119679727D01*
X92885363Y-119914759D01*
X93085241Y-120114637D01*
X93320273Y-120271680D01*
X93581426Y-120379853D01*
X93858665Y-120435000D01*
X94141335Y-120435000D01*
X94418574Y-120379853D01*
X94679727Y-120271680D01*
X94914759Y-120114637D01*
X95114637Y-119914759D01*
X95271680Y-119679727D01*
X95379853Y-119418574D01*
X95393684Y-119349039D01*
X102768096Y-119349039D01*
X102808754Y-119483087D01*
X102928963Y-119737420D01*
X103096481Y-119963414D01*
X103304869Y-120152385D01*
X103546119Y-120297070D01*
X103810960Y-120391909D01*
X104033000Y-120270624D01*
X104033000Y-119127000D01*
X104287000Y-119127000D01*
X104287000Y-120270624D01*
X104509040Y-120391909D01*
X104773881Y-120297070D01*
X105015131Y-120152385D01*
X105223519Y-119963414D01*
X105391037Y-119737420D01*
X105511246Y-119483087D01*
X105551904Y-119349039D01*
X105429915Y-119127000D01*
X104287000Y-119127000D01*
X104033000Y-119127000D01*
X102890085Y-119127000D01*
X102768096Y-119349039D01*
X95393684Y-119349039D01*
X95435000Y-119141335D01*
X95435000Y-118858665D01*
X95393685Y-118650961D01*
X102768096Y-118650961D01*
X102890085Y-118873000D01*
X104033000Y-118873000D01*
X104033000Y-117729376D01*
X104287000Y-117729376D01*
X104287000Y-118873000D01*
X105429915Y-118873000D01*
X105551904Y-118650961D01*
X105511246Y-118516913D01*
X105391037Y-118262580D01*
X105223519Y-118036586D01*
X105015131Y-117847615D01*
X104773881Y-117702930D01*
X104509040Y-117608091D01*
X104287000Y-117729376D01*
X104033000Y-117729376D01*
X103810960Y-117608091D01*
X103546119Y-117702930D01*
X103304869Y-117847615D01*
X103096481Y-118036586D01*
X102928963Y-118262580D01*
X102808754Y-118516913D01*
X102768096Y-118650961D01*
X95393685Y-118650961D01*
X95379853Y-118581426D01*
X95271680Y-118320273D01*
X95114637Y-118085241D01*
X94914759Y-117885363D01*
X94679727Y-117728320D01*
X94418574Y-117620147D01*
X94141335Y-117565000D01*
X93858665Y-117565000D01*
X93581426Y-117620147D01*
X93320273Y-117728320D01*
X93085241Y-117885363D01*
X92885363Y-118085241D01*
X92728320Y-118320273D01*
X92620147Y-118581426D01*
X92565000Y-118858665D01*
X89437790Y-118858665D01*
X89551904Y-118650961D01*
X89511246Y-118516913D01*
X89391037Y-118262580D01*
X89223519Y-118036586D01*
X89015131Y-117847615D01*
X88773881Y-117702930D01*
X88509040Y-117608091D01*
X88287002Y-117729375D01*
X88287002Y-117698099D01*
X95868373Y-110116729D01*
X96100273Y-110271680D01*
X96361426Y-110379853D01*
X96638665Y-110435000D01*
X96921335Y-110435000D01*
X97198574Y-110379853D01*
X97459727Y-110271680D01*
X97676222Y-110127023D01*
X114060201Y-126511003D01*
X114083999Y-126540001D01*
X114199724Y-126634974D01*
X114331753Y-126705546D01*
X114475014Y-126749003D01*
X114586667Y-126760000D01*
X114586676Y-126760000D01*
X114623999Y-126763676D01*
X114661322Y-126760000D01*
X146361928Y-126760000D01*
X146361928Y-127000000D01*
X146374188Y-127124482D01*
X146410498Y-127244180D01*
X146469463Y-127354494D01*
X146548815Y-127451185D01*
X146645506Y-127530537D01*
X146755820Y-127589502D01*
X146875518Y-127625812D01*
X147000000Y-127638072D01*
X149000000Y-127638072D01*
X149124482Y-127625812D01*
X149244180Y-127589502D01*
X149354494Y-127530537D01*
X149451185Y-127451185D01*
X149530537Y-127354494D01*
X149589502Y-127244180D01*
X149625812Y-127124482D01*
X149638072Y-127000000D01*
X149638072Y-125000000D01*
X149625812Y-124875518D01*
X149589502Y-124755820D01*
X149530537Y-124645506D01*
X149451185Y-124548815D01*
X149354494Y-124469463D01*
X149308370Y-124444809D01*
X149448918Y-124234463D01*
X149572168Y-123936912D01*
X149635000Y-123621033D01*
X149635000Y-123298967D01*
X149572168Y-122983088D01*
X149448918Y-122685537D01*
X149269987Y-122417748D01*
X149042252Y-122190013D01*
X148933400Y-122117280D01*
X148955808Y-122055413D01*
X148000000Y-121099605D01*
X147044192Y-122055413D01*
X147066600Y-122117280D01*
X146957748Y-122190013D01*
X146730013Y-122417748D01*
X146551082Y-122685537D01*
X146427832Y-122983088D01*
X146365000Y-123298967D01*
X146365000Y-123621033D01*
X146427832Y-123936912D01*
X146551082Y-124234463D01*
X146691630Y-124444809D01*
X146645506Y-124469463D01*
X146548815Y-124548815D01*
X146469463Y-124645506D01*
X146410498Y-124755820D01*
X146374188Y-124875518D01*
X146361928Y-125000000D01*
X146361928Y-125240000D01*
X114938802Y-125240000D01*
X108557467Y-118858665D01*
X109565000Y-118858665D01*
X109565000Y-119141335D01*
X109620147Y-119418574D01*
X109728320Y-119679727D01*
X109885363Y-119914759D01*
X110085241Y-120114637D01*
X110320273Y-120271680D01*
X110581426Y-120379853D01*
X110858665Y-120435000D01*
X111141335Y-120435000D01*
X111323886Y-120398688D01*
X111569901Y-120644703D01*
X111593699Y-120673701D01*
X111622697Y-120697499D01*
X111709423Y-120768674D01*
X111841453Y-120839246D01*
X111984714Y-120882703D01*
X112096367Y-120893700D01*
X112096377Y-120893700D01*
X112133700Y-120897376D01*
X112171023Y-120893700D01*
X145804478Y-120893700D01*
X145841800Y-120897376D01*
X145879122Y-120893700D01*
X145879133Y-120893700D01*
X145990786Y-120882703D01*
X146134047Y-120839246D01*
X146266076Y-120768674D01*
X146376602Y-120677968D01*
X146358282Y-120982595D01*
X146402039Y-121301675D01*
X146507205Y-121606088D01*
X146600186Y-121780044D01*
X146864587Y-121875808D01*
X147820395Y-120920000D01*
X147806253Y-120905858D01*
X147985858Y-120726253D01*
X148000000Y-120740395D01*
X148014143Y-120726253D01*
X148193748Y-120905858D01*
X148179605Y-120920000D01*
X149135413Y-121875808D01*
X149399814Y-121780044D01*
X149540704Y-121490429D01*
X149622384Y-121178892D01*
X149641718Y-120857405D01*
X149597961Y-120538325D01*
X149527960Y-120335700D01*
X156348599Y-120335700D01*
X158684151Y-122671253D01*
X158546401Y-122928966D01*
X158461487Y-123208889D01*
X158432815Y-123500000D01*
X158461487Y-123791111D01*
X158546401Y-124071034D01*
X158684294Y-124329014D01*
X158869866Y-124555134D01*
X158933337Y-124607223D01*
X158831614Y-124661595D01*
X158697038Y-124772038D01*
X158586595Y-124906614D01*
X158504528Y-125060150D01*
X158453992Y-125226746D01*
X158436928Y-125400000D01*
X158436928Y-126600000D01*
X158453992Y-126773254D01*
X158504528Y-126939850D01*
X158586595Y-127093386D01*
X158697038Y-127227962D01*
X158831614Y-127338405D01*
X158985150Y-127420472D01*
X159151746Y-127471008D01*
X159325000Y-127488072D01*
X160675000Y-127488072D01*
X160848254Y-127471008D01*
X161014850Y-127420472D01*
X161168386Y-127338405D01*
X161302962Y-127227962D01*
X161413405Y-127093386D01*
X161495472Y-126939850D01*
X161546008Y-126773254D01*
X161563072Y-126600000D01*
X161563072Y-125400000D01*
X161546008Y-125226746D01*
X161495472Y-125060150D01*
X161413405Y-124906614D01*
X161302962Y-124772038D01*
X161168386Y-124661595D01*
X161066663Y-124607223D01*
X161130134Y-124555134D01*
X161315706Y-124329014D01*
X161453599Y-124071034D01*
X161538513Y-123791111D01*
X161550215Y-123672300D01*
X173677000Y-123672300D01*
X173677001Y-126550368D01*
X173673324Y-126587700D01*
X173687998Y-126736685D01*
X173731454Y-126879946D01*
X173802026Y-127011976D01*
X173858754Y-127081098D01*
X173897000Y-127127701D01*
X173925998Y-127151499D01*
X175987968Y-129213469D01*
X175891576Y-129292576D01*
X175696631Y-129530118D01*
X175551774Y-129801126D01*
X175462572Y-130095188D01*
X175440000Y-130324365D01*
X175440000Y-131675636D01*
X175462572Y-131904813D01*
X175551774Y-132198875D01*
X175696632Y-132469883D01*
X175891577Y-132707424D01*
X176129118Y-132902369D01*
X176400126Y-133047226D01*
X176694188Y-133136428D01*
X177000000Y-133166548D01*
X177305813Y-133136428D01*
X177599875Y-133047226D01*
X177870883Y-132902369D01*
X178108424Y-132707424D01*
X178303369Y-132469883D01*
X178448226Y-132198875D01*
X178537428Y-131904813D01*
X178560000Y-131675636D01*
X178560000Y-130324365D01*
X180440000Y-130324365D01*
X180440000Y-131675636D01*
X180462572Y-131904813D01*
X180551774Y-132198875D01*
X180696632Y-132469883D01*
X180891577Y-132707424D01*
X181129118Y-132902369D01*
X181400126Y-133047226D01*
X181694188Y-133136428D01*
X182000000Y-133166548D01*
X182305813Y-133136428D01*
X182599875Y-133047226D01*
X182870883Y-132902369D01*
X183108424Y-132707424D01*
X183303369Y-132469883D01*
X183448226Y-132198875D01*
X183537428Y-131904813D01*
X183560000Y-131675636D01*
X183560000Y-130324364D01*
X183537428Y-130095187D01*
X183448226Y-129801125D01*
X183303369Y-129530117D01*
X183108424Y-129292576D01*
X182870882Y-129097631D01*
X182599874Y-128952774D01*
X182305812Y-128863572D01*
X182000000Y-128833452D01*
X181694187Y-128863572D01*
X181400125Y-128952774D01*
X181129117Y-129097631D01*
X180891576Y-129292576D01*
X180696631Y-129530118D01*
X180551774Y-129801126D01*
X180462572Y-130095188D01*
X180440000Y-130324365D01*
X178560000Y-130324365D01*
X178560000Y-130324364D01*
X178537428Y-130095187D01*
X178448226Y-129801125D01*
X178303369Y-129530117D01*
X178108424Y-129292576D01*
X177870882Y-129097631D01*
X177752202Y-129034195D01*
X177749003Y-129001714D01*
X177705546Y-128858453D01*
X177634974Y-128726424D01*
X177540001Y-128610699D01*
X177511003Y-128586901D01*
X175197000Y-126272899D01*
X175197000Y-123227101D01*
X177511003Y-120913099D01*
X177540001Y-120889301D01*
X177634974Y-120773576D01*
X177705546Y-120641547D01*
X177749003Y-120498286D01*
X177752202Y-120465805D01*
X177870883Y-120402369D01*
X178108424Y-120207424D01*
X178303369Y-119969883D01*
X178448226Y-119698875D01*
X178537428Y-119404813D01*
X178560000Y-119175636D01*
X178560000Y-117824365D01*
X180440000Y-117824365D01*
X180440000Y-119175636D01*
X180462572Y-119404813D01*
X180551774Y-119698875D01*
X180696632Y-119969883D01*
X180891577Y-120207424D01*
X181129118Y-120402369D01*
X181400126Y-120547226D01*
X181694188Y-120636428D01*
X182000000Y-120666548D01*
X182305813Y-120636428D01*
X182599875Y-120547226D01*
X182870883Y-120402369D01*
X183108424Y-120207424D01*
X183303369Y-119969883D01*
X183448226Y-119698875D01*
X183537428Y-119404813D01*
X183560000Y-119175636D01*
X183560000Y-117824364D01*
X183537428Y-117595187D01*
X183448226Y-117301125D01*
X183303369Y-117030117D01*
X183108424Y-116792576D01*
X182870882Y-116597631D01*
X182599874Y-116452774D01*
X182305812Y-116363572D01*
X182000000Y-116333452D01*
X181694187Y-116363572D01*
X181400125Y-116452774D01*
X181129117Y-116597631D01*
X180891576Y-116792576D01*
X180696631Y-117030118D01*
X180551774Y-117301126D01*
X180462572Y-117595188D01*
X180440000Y-117824365D01*
X178560000Y-117824365D01*
X178560000Y-117824364D01*
X178537428Y-117595187D01*
X178448226Y-117301125D01*
X178303369Y-117030117D01*
X178108424Y-116792576D01*
X177870882Y-116597631D01*
X177599874Y-116452774D01*
X177305812Y-116363572D01*
X177000000Y-116333452D01*
X176694187Y-116363572D01*
X176400125Y-116452774D01*
X176129117Y-116597631D01*
X175891576Y-116792576D01*
X175696631Y-117030118D01*
X175551774Y-117301126D01*
X175462572Y-117595188D01*
X175440000Y-117824365D01*
X175440000Y-119175636D01*
X175462572Y-119404813D01*
X175551774Y-119698875D01*
X175696632Y-119969883D01*
X175891577Y-120207424D01*
X175987968Y-120286530D01*
X174122199Y-122152300D01*
X160703842Y-122152300D01*
X160646034Y-122121401D01*
X160366111Y-122036487D01*
X160180730Y-122018229D01*
X157227204Y-119064703D01*
X157203401Y-119035699D01*
X157087676Y-118940726D01*
X156955647Y-118870154D01*
X156812386Y-118826697D01*
X156700733Y-118815700D01*
X156700722Y-118815700D01*
X156663400Y-118812024D01*
X156626078Y-118815700D01*
X146437122Y-118815700D01*
X146399799Y-118812024D01*
X146362476Y-118815700D01*
X146362467Y-118815700D01*
X146250814Y-118826697D01*
X146107553Y-118870154D01*
X145975524Y-118940726D01*
X145859799Y-119035699D01*
X145836000Y-119064698D01*
X145526999Y-119373700D01*
X122544424Y-119373700D01*
X122551904Y-119349039D01*
X122429915Y-119127000D01*
X121287000Y-119127000D01*
X121287000Y-119147000D01*
X121033000Y-119147000D01*
X121033000Y-119127000D01*
X119890085Y-119127000D01*
X119768096Y-119349039D01*
X119775576Y-119373700D01*
X112448502Y-119373700D01*
X112398688Y-119323886D01*
X112435000Y-119141335D01*
X112435000Y-118858665D01*
X112393685Y-118650961D01*
X119768096Y-118650961D01*
X119890085Y-118873000D01*
X121033000Y-118873000D01*
X121033000Y-117729376D01*
X121287000Y-117729376D01*
X121287000Y-118873000D01*
X122429915Y-118873000D01*
X122551904Y-118650961D01*
X122511246Y-118516913D01*
X122391037Y-118262580D01*
X122223519Y-118036586D01*
X122015131Y-117847615D01*
X121773881Y-117702930D01*
X121509040Y-117608091D01*
X121287000Y-117729376D01*
X121033000Y-117729376D01*
X120810960Y-117608091D01*
X120546119Y-117702930D01*
X120304869Y-117847615D01*
X120096481Y-118036586D01*
X119928963Y-118262580D01*
X119808754Y-118516913D01*
X119768096Y-118650961D01*
X112393685Y-118650961D01*
X112379853Y-118581426D01*
X112271680Y-118320273D01*
X112114637Y-118085241D01*
X111914759Y-117885363D01*
X111679727Y-117728320D01*
X111418574Y-117620147D01*
X111141335Y-117565000D01*
X110858665Y-117565000D01*
X110581426Y-117620147D01*
X110320273Y-117728320D01*
X110085241Y-117885363D01*
X109885363Y-118085241D01*
X109728320Y-118320273D01*
X109620147Y-118581426D01*
X109565000Y-118858665D01*
X108557467Y-118858665D01*
X99979047Y-110280246D01*
X99999727Y-110271680D01*
X100216222Y-110127023D01*
X102600205Y-112511008D01*
X102623999Y-112540001D01*
X102652992Y-112563795D01*
X102652996Y-112563799D01*
X102723685Y-112621811D01*
X102739724Y-112634974D01*
X102871753Y-112705546D01*
X103015014Y-112749003D01*
X103126667Y-112760000D01*
X103126676Y-112760000D01*
X103163999Y-112763676D01*
X103201322Y-112760000D01*
X146361928Y-112760000D01*
X146361928Y-113000000D01*
X146374188Y-113124482D01*
X146410498Y-113244180D01*
X146469463Y-113354494D01*
X146548815Y-113451185D01*
X146645506Y-113530537D01*
X146755820Y-113589502D01*
X146875518Y-113625812D01*
X147000000Y-113638072D01*
X149000000Y-113638072D01*
X149124482Y-113625812D01*
X149244180Y-113589502D01*
X149354494Y-113530537D01*
X149451185Y-113451185D01*
X149530537Y-113354494D01*
X149589502Y-113244180D01*
X149625812Y-113124482D01*
X149638072Y-113000000D01*
X149638072Y-111000000D01*
X149625812Y-110875518D01*
X149589502Y-110755820D01*
X149530537Y-110645506D01*
X149451185Y-110548815D01*
X149354494Y-110469463D01*
X149308370Y-110444809D01*
X149448918Y-110234463D01*
X149572168Y-109936912D01*
X149635000Y-109621033D01*
X149635000Y-109298967D01*
X149572168Y-108983088D01*
X149448918Y-108685537D01*
X149269987Y-108417748D01*
X149042252Y-108190013D01*
X148933400Y-108117280D01*
X148955808Y-108055413D01*
X148000000Y-107099605D01*
X147044192Y-108055413D01*
X147066600Y-108117280D01*
X146957748Y-108190013D01*
X146730013Y-108417748D01*
X146551082Y-108685537D01*
X146427832Y-108983088D01*
X146365000Y-109298967D01*
X146365000Y-109621033D01*
X146427832Y-109936912D01*
X146551082Y-110234463D01*
X146691630Y-110444809D01*
X146645506Y-110469463D01*
X146548815Y-110548815D01*
X146469463Y-110645506D01*
X146410498Y-110755820D01*
X146374188Y-110875518D01*
X146361928Y-111000000D01*
X146361928Y-111240000D01*
X103478803Y-111240000D01*
X102519048Y-110280246D01*
X102539727Y-110271680D01*
X102774759Y-110114637D01*
X102974637Y-109914759D01*
X103092187Y-109738833D01*
X103125714Y-109749003D01*
X103178053Y-109754158D01*
X103285363Y-109914759D01*
X103485241Y-110114637D01*
X103720273Y-110271680D01*
X103981426Y-110379853D01*
X104258665Y-110435000D01*
X104541335Y-110435000D01*
X104818574Y-110379853D01*
X105079727Y-110271680D01*
X105314759Y-110114637D01*
X105514637Y-109914759D01*
X105621947Y-109754158D01*
X105674286Y-109749003D01*
X105707813Y-109738833D01*
X105825363Y-109914759D01*
X106025241Y-110114637D01*
X106260273Y-110271680D01*
X106521426Y-110379853D01*
X106798665Y-110435000D01*
X107081335Y-110435000D01*
X107358574Y-110379853D01*
X107619727Y-110271680D01*
X107854759Y-110114637D01*
X108054637Y-109914759D01*
X108210000Y-109682241D01*
X108365363Y-109914759D01*
X108565241Y-110114637D01*
X108800273Y-110271680D01*
X109061426Y-110379853D01*
X109338665Y-110435000D01*
X109621335Y-110435000D01*
X109898574Y-110379853D01*
X110159727Y-110271680D01*
X110394759Y-110114637D01*
X110594637Y-109914759D01*
X110750000Y-109682241D01*
X110905363Y-109914759D01*
X111105241Y-110114637D01*
X111340273Y-110271680D01*
X111601426Y-110379853D01*
X111878665Y-110435000D01*
X112161335Y-110435000D01*
X112438574Y-110379853D01*
X112699727Y-110271680D01*
X112934759Y-110114637D01*
X113134637Y-109914759D01*
X113290000Y-109682241D01*
X113445363Y-109914759D01*
X113645241Y-110114637D01*
X113880273Y-110271680D01*
X114141426Y-110379853D01*
X114418665Y-110435000D01*
X114701335Y-110435000D01*
X114978574Y-110379853D01*
X115239727Y-110271680D01*
X115474759Y-110114637D01*
X115674637Y-109914759D01*
X115781947Y-109754158D01*
X115834286Y-109749003D01*
X115977547Y-109705546D01*
X116109576Y-109634974D01*
X116225301Y-109540001D01*
X116249104Y-109510997D01*
X119675402Y-106084700D01*
X146588149Y-106084700D01*
X146459296Y-106349571D01*
X146377616Y-106661108D01*
X146358282Y-106982595D01*
X146402039Y-107301675D01*
X146507205Y-107606088D01*
X146600186Y-107780044D01*
X146864587Y-107875808D01*
X147820395Y-106920000D01*
X147806253Y-106905858D01*
X147985858Y-106726253D01*
X148000000Y-106740395D01*
X148014143Y-106726253D01*
X148193748Y-106905858D01*
X148179605Y-106920000D01*
X149135413Y-107875808D01*
X149399814Y-107780044D01*
X149540704Y-107490429D01*
X149622384Y-107178892D01*
X149641718Y-106857405D01*
X149597961Y-106538325D01*
X149492795Y-106233912D01*
X149413040Y-106084700D01*
X158499159Y-106084700D01*
X158461487Y-106208889D01*
X158432815Y-106500000D01*
X158461487Y-106791111D01*
X158546401Y-107071034D01*
X158684294Y-107329014D01*
X158869866Y-107555134D01*
X158933337Y-107607223D01*
X158831614Y-107661595D01*
X158697038Y-107772038D01*
X158586595Y-107906614D01*
X158504528Y-108060150D01*
X158453992Y-108226746D01*
X158436928Y-108400000D01*
X158436928Y-109600000D01*
X158453992Y-109773254D01*
X158504528Y-109939850D01*
X158586595Y-110093386D01*
X158697038Y-110227962D01*
X158831614Y-110338405D01*
X158985150Y-110420472D01*
X159151746Y-110471008D01*
X159325000Y-110488072D01*
X160675000Y-110488072D01*
X160848254Y-110471008D01*
X161014850Y-110420472D01*
X161168386Y-110338405D01*
X161302962Y-110227962D01*
X161413405Y-110093386D01*
X161495472Y-109939850D01*
X161546008Y-109773254D01*
X161563072Y-109600000D01*
X161563072Y-108400000D01*
X161546008Y-108226746D01*
X161495472Y-108060150D01*
X161413405Y-107906614D01*
X161302962Y-107772038D01*
X161168386Y-107661595D01*
X161066663Y-107607223D01*
X161130134Y-107555134D01*
X161315706Y-107329014D01*
X161453599Y-107071034D01*
X161538513Y-106791111D01*
X161550215Y-106672300D01*
X172677000Y-106672300D01*
X172677001Y-107550368D01*
X172673324Y-107587700D01*
X172677001Y-107625033D01*
X172687998Y-107736686D01*
X172691677Y-107748815D01*
X172731454Y-107879946D01*
X172802026Y-108011976D01*
X172862154Y-108085241D01*
X172897000Y-108127701D01*
X172925998Y-108151499D01*
X175987968Y-111213469D01*
X175891576Y-111292576D01*
X175696631Y-111530118D01*
X175551774Y-111801126D01*
X175462572Y-112095188D01*
X175440000Y-112324365D01*
X175440000Y-113675636D01*
X175462572Y-113904813D01*
X175551774Y-114198875D01*
X175696632Y-114469883D01*
X175891577Y-114707424D01*
X176129118Y-114902369D01*
X176400126Y-115047226D01*
X176694188Y-115136428D01*
X177000000Y-115166548D01*
X177305813Y-115136428D01*
X177599875Y-115047226D01*
X177870883Y-114902369D01*
X178108424Y-114707424D01*
X178303369Y-114469883D01*
X178448226Y-114198875D01*
X178537428Y-113904813D01*
X178560000Y-113675636D01*
X178560000Y-112324365D01*
X180440000Y-112324365D01*
X180440000Y-113675636D01*
X180462572Y-113904813D01*
X180551774Y-114198875D01*
X180696632Y-114469883D01*
X180891577Y-114707424D01*
X181129118Y-114902369D01*
X181400126Y-115047226D01*
X181694188Y-115136428D01*
X182000000Y-115166548D01*
X182305813Y-115136428D01*
X182599875Y-115047226D01*
X182870883Y-114902369D01*
X183108424Y-114707424D01*
X183303369Y-114469883D01*
X183448226Y-114198875D01*
X183537428Y-113904813D01*
X183560000Y-113675636D01*
X183560000Y-112324364D01*
X183537428Y-112095187D01*
X183448226Y-111801125D01*
X183303369Y-111530117D01*
X183108424Y-111292576D01*
X182870882Y-111097631D01*
X182599874Y-110952774D01*
X182305812Y-110863572D01*
X182000000Y-110833452D01*
X181694187Y-110863572D01*
X181400125Y-110952774D01*
X181129117Y-111097631D01*
X180891576Y-111292576D01*
X180696631Y-111530118D01*
X180551774Y-111801126D01*
X180462572Y-112095188D01*
X180440000Y-112324365D01*
X178560000Y-112324365D01*
X178560000Y-112324364D01*
X178537428Y-112095187D01*
X178448226Y-111801125D01*
X178303369Y-111530117D01*
X178108424Y-111292576D01*
X177870882Y-111097631D01*
X177752202Y-111034195D01*
X177749003Y-111001714D01*
X177705546Y-110858453D01*
X177634974Y-110726423D01*
X177563799Y-110639697D01*
X177540001Y-110610699D01*
X177511003Y-110586901D01*
X174197000Y-107272899D01*
X174197000Y-106227101D01*
X177511003Y-102913099D01*
X177540001Y-102889301D01*
X177575928Y-102845524D01*
X177634974Y-102773577D01*
X177705546Y-102641547D01*
X177707585Y-102634826D01*
X177749003Y-102498286D01*
X177752202Y-102465805D01*
X177870883Y-102402369D01*
X178108424Y-102207424D01*
X178303369Y-101969883D01*
X178448226Y-101698875D01*
X178537428Y-101404813D01*
X178560000Y-101175636D01*
X178560000Y-99824365D01*
X180440000Y-99824365D01*
X180440000Y-101175636D01*
X180462572Y-101404813D01*
X180551774Y-101698875D01*
X180696632Y-101969883D01*
X180891577Y-102207424D01*
X181129118Y-102402369D01*
X181400126Y-102547226D01*
X181694188Y-102636428D01*
X182000000Y-102666548D01*
X182305813Y-102636428D01*
X182599875Y-102547226D01*
X182870883Y-102402369D01*
X183108424Y-102207424D01*
X183303369Y-101969883D01*
X183448226Y-101698875D01*
X183537428Y-101404813D01*
X183560000Y-101175636D01*
X183560000Y-99824364D01*
X183537428Y-99595187D01*
X183448226Y-99301125D01*
X183303369Y-99030117D01*
X183108424Y-98792576D01*
X182870882Y-98597631D01*
X182599874Y-98452774D01*
X182305812Y-98363572D01*
X182000000Y-98333452D01*
X181694187Y-98363572D01*
X181400125Y-98452774D01*
X181129117Y-98597631D01*
X180891576Y-98792576D01*
X180696631Y-99030118D01*
X180551774Y-99301126D01*
X180462572Y-99595188D01*
X180440000Y-99824365D01*
X178560000Y-99824365D01*
X178560000Y-99824364D01*
X178537428Y-99595187D01*
X178448226Y-99301125D01*
X178303369Y-99030117D01*
X178108424Y-98792576D01*
X177870882Y-98597631D01*
X177599874Y-98452774D01*
X177305812Y-98363572D01*
X177000000Y-98333452D01*
X176694187Y-98363572D01*
X176400125Y-98452774D01*
X176129117Y-98597631D01*
X175891576Y-98792576D01*
X175696631Y-99030118D01*
X175551774Y-99301126D01*
X175462572Y-99595188D01*
X175440000Y-99824365D01*
X175440000Y-101175636D01*
X175462572Y-101404813D01*
X175551774Y-101698875D01*
X175696632Y-101969883D01*
X175891577Y-102207424D01*
X175987968Y-102286530D01*
X173122199Y-105152300D01*
X160741901Y-105152300D01*
X160705546Y-105032453D01*
X160634974Y-104900424D01*
X160540001Y-104784699D01*
X160424276Y-104689726D01*
X160292247Y-104619154D01*
X160148986Y-104575697D01*
X160037333Y-104564700D01*
X160000000Y-104561023D01*
X159962667Y-104564700D01*
X119397922Y-104564700D01*
X119360599Y-104561024D01*
X119323276Y-104564700D01*
X119323267Y-104564700D01*
X119211614Y-104575697D01*
X119068353Y-104619154D01*
X118936323Y-104689726D01*
X118852683Y-104758368D01*
X118820599Y-104784699D01*
X118796801Y-104813697D01*
X115599947Y-108010551D01*
X115474759Y-107885363D01*
X115239727Y-107728320D01*
X114978574Y-107620147D01*
X114701335Y-107565000D01*
X114418665Y-107565000D01*
X114141426Y-107620147D01*
X113880273Y-107728320D01*
X113645241Y-107885363D01*
X113445363Y-108085241D01*
X113290000Y-108317759D01*
X113134637Y-108085241D01*
X112934759Y-107885363D01*
X112699727Y-107728320D01*
X112438574Y-107620147D01*
X112161335Y-107565000D01*
X111878665Y-107565000D01*
X111601426Y-107620147D01*
X111340273Y-107728320D01*
X111105241Y-107885363D01*
X110905363Y-108085241D01*
X110750000Y-108317759D01*
X110594637Y-108085241D01*
X110394759Y-107885363D01*
X110159727Y-107728320D01*
X109898574Y-107620147D01*
X109621335Y-107565000D01*
X109338665Y-107565000D01*
X109061426Y-107620147D01*
X108800273Y-107728320D01*
X108565241Y-107885363D01*
X108365363Y-108085241D01*
X108210000Y-108317759D01*
X108054637Y-108085241D01*
X107854759Y-107885363D01*
X107619727Y-107728320D01*
X107599047Y-107719754D01*
X111289002Y-104029800D01*
X151795978Y-104029800D01*
X151833300Y-104033476D01*
X151870622Y-104029800D01*
X151870633Y-104029800D01*
X151982286Y-104018803D01*
X152125547Y-103975346D01*
X152257576Y-103904774D01*
X152373301Y-103809801D01*
X152397104Y-103780797D01*
X161580302Y-94597600D01*
X175440000Y-94597600D01*
X175440000Y-94675636D01*
X175462572Y-94904813D01*
X175551774Y-95198875D01*
X175696632Y-95469883D01*
X175891577Y-95707424D01*
X176129118Y-95902369D01*
X176400126Y-96047226D01*
X176694188Y-96136428D01*
X177000000Y-96166548D01*
X177305813Y-96136428D01*
X177599875Y-96047226D01*
X177870883Y-95902369D01*
X178108424Y-95707424D01*
X178303369Y-95469883D01*
X178448226Y-95198875D01*
X178537428Y-94904813D01*
X178560000Y-94675636D01*
X178560000Y-93324365D01*
X180440000Y-93324365D01*
X180440000Y-94675636D01*
X180462572Y-94904813D01*
X180551774Y-95198875D01*
X180696632Y-95469883D01*
X180891577Y-95707424D01*
X181129118Y-95902369D01*
X181400126Y-96047226D01*
X181694188Y-96136428D01*
X182000000Y-96166548D01*
X182305813Y-96136428D01*
X182599875Y-96047226D01*
X182870883Y-95902369D01*
X183108424Y-95707424D01*
X183303369Y-95469883D01*
X183448226Y-95198875D01*
X183537428Y-94904813D01*
X183560000Y-94675636D01*
X183560000Y-93324364D01*
X183537428Y-93095187D01*
X183448226Y-92801125D01*
X183303369Y-92530117D01*
X183108424Y-92292576D01*
X182870882Y-92097631D01*
X182599874Y-91952774D01*
X182305812Y-91863572D01*
X182000000Y-91833452D01*
X181694187Y-91863572D01*
X181400125Y-91952774D01*
X181129117Y-92097631D01*
X180891576Y-92292576D01*
X180696631Y-92530118D01*
X180551774Y-92801126D01*
X180462572Y-93095188D01*
X180440000Y-93324365D01*
X178560000Y-93324365D01*
X178560000Y-93324364D01*
X178537428Y-93095187D01*
X178448226Y-92801125D01*
X178303369Y-92530117D01*
X178108424Y-92292576D01*
X177870882Y-92097631D01*
X177599874Y-91952774D01*
X177597600Y-91952084D01*
X177597600Y-83819116D01*
X177634974Y-83773576D01*
X177705546Y-83641547D01*
X177749003Y-83498286D01*
X177752202Y-83465805D01*
X177870883Y-83402369D01*
X178108424Y-83207424D01*
X178303369Y-82969883D01*
X178448226Y-82698875D01*
X178537428Y-82404813D01*
X178560000Y-82175636D01*
X178560000Y-80824365D01*
X180440000Y-80824365D01*
X180440000Y-82175636D01*
X180462572Y-82404813D01*
X180551774Y-82698875D01*
X180696632Y-82969883D01*
X180891577Y-83207424D01*
X181129118Y-83402369D01*
X181400126Y-83547226D01*
X181694188Y-83636428D01*
X182000000Y-83666548D01*
X182305813Y-83636428D01*
X182599875Y-83547226D01*
X182870883Y-83402369D01*
X183108424Y-83207424D01*
X183303369Y-82969883D01*
X183448226Y-82698875D01*
X183537428Y-82404813D01*
X183560000Y-82175636D01*
X183560000Y-80824364D01*
X183537428Y-80595187D01*
X183448226Y-80301125D01*
X183303369Y-80030117D01*
X183108424Y-79792576D01*
X182870882Y-79597631D01*
X182599874Y-79452774D01*
X182305812Y-79363572D01*
X182000000Y-79333452D01*
X181694187Y-79363572D01*
X181400125Y-79452774D01*
X181129117Y-79597631D01*
X180891576Y-79792576D01*
X180696631Y-80030118D01*
X180551774Y-80301126D01*
X180462572Y-80595188D01*
X180440000Y-80824365D01*
X178560000Y-80824365D01*
X178560000Y-80824364D01*
X178537428Y-80595187D01*
X178448226Y-80301125D01*
X178303369Y-80030117D01*
X178108424Y-79792576D01*
X177870882Y-79597631D01*
X177599874Y-79452774D01*
X177305812Y-79363572D01*
X177000000Y-79333452D01*
X176694187Y-79363572D01*
X176400125Y-79452774D01*
X176129117Y-79597631D01*
X175891576Y-79792576D01*
X175696631Y-80030118D01*
X175551774Y-80301126D01*
X175462572Y-80595188D01*
X175440000Y-80824365D01*
X175440000Y-82175636D01*
X175462572Y-82404813D01*
X175551774Y-82698875D01*
X175696632Y-82969883D01*
X175891577Y-83207424D01*
X176088014Y-83368636D01*
X176077600Y-83474368D01*
X176077600Y-83474378D01*
X176073924Y-83511700D01*
X176077600Y-83549022D01*
X176077601Y-92139909D01*
X175891576Y-92292576D01*
X175696631Y-92530118D01*
X175551774Y-92801126D01*
X175467907Y-93077600D01*
X162025500Y-93077600D01*
X162025500Y-92187122D01*
X162029176Y-92149799D01*
X162025500Y-92112476D01*
X162025500Y-92112467D01*
X162014503Y-92000814D01*
X161971046Y-91857553D01*
X161900474Y-91725524D01*
X161805501Y-91609799D01*
X161776498Y-91585997D01*
X161386698Y-91196197D01*
X161453599Y-91071034D01*
X161538513Y-90791111D01*
X161567185Y-90500000D01*
X161538513Y-90208889D01*
X161453599Y-89928966D01*
X161315706Y-89670986D01*
X161130134Y-89444866D01*
X160904014Y-89259294D01*
X160646034Y-89121401D01*
X160366111Y-89036487D01*
X160147950Y-89015000D01*
X159852050Y-89015000D01*
X159633889Y-89036487D01*
X159353966Y-89121401D01*
X159095986Y-89259294D01*
X158869866Y-89444866D01*
X158684294Y-89670986D01*
X158546401Y-89928966D01*
X158461487Y-90208889D01*
X158445546Y-90370744D01*
X158155004Y-90080203D01*
X158131201Y-90051199D01*
X158015476Y-89956226D01*
X157883447Y-89885654D01*
X157740186Y-89842197D01*
X157628533Y-89831200D01*
X157628522Y-89831200D01*
X157591200Y-89827524D01*
X157553878Y-89831200D01*
X116070125Y-89831200D01*
X116032800Y-89827524D01*
X115995475Y-89831200D01*
X115995467Y-89831200D01*
X115883814Y-89842197D01*
X115740553Y-89885654D01*
X115608524Y-89956226D01*
X115492799Y-90051199D01*
X115469001Y-90080197D01*
X112916222Y-92632977D01*
X112699727Y-92488320D01*
X112438574Y-92380147D01*
X112161335Y-92325000D01*
X111878665Y-92325000D01*
X111601426Y-92380147D01*
X111340273Y-92488320D01*
X111105241Y-92645363D01*
X110905363Y-92845241D01*
X110750000Y-93077759D01*
X110594637Y-92845241D01*
X110394759Y-92645363D01*
X110159727Y-92488320D01*
X109898574Y-92380147D01*
X109621335Y-92325000D01*
X109338665Y-92325000D01*
X109061426Y-92380147D01*
X108800273Y-92488320D01*
X108565241Y-92645363D01*
X108365363Y-92845241D01*
X108210000Y-93077759D01*
X108054637Y-92845241D01*
X107854759Y-92645363D01*
X107619727Y-92488320D01*
X107358574Y-92380147D01*
X107081335Y-92325000D01*
X106798665Y-92325000D01*
X106521426Y-92380147D01*
X106260273Y-92488320D01*
X106025241Y-92645363D01*
X105825363Y-92845241D01*
X105670000Y-93077759D01*
X105514637Y-92845241D01*
X105314759Y-92645363D01*
X105079727Y-92488320D01*
X104818574Y-92380147D01*
X104541335Y-92325000D01*
X104258665Y-92325000D01*
X103981426Y-92380147D01*
X103720273Y-92488320D01*
X103485241Y-92645363D01*
X103285363Y-92845241D01*
X103130000Y-93077759D01*
X102974637Y-92845241D01*
X102774759Y-92645363D01*
X102539727Y-92488320D01*
X102278574Y-92380147D01*
X102001335Y-92325000D01*
X101718665Y-92325000D01*
X101441426Y-92380147D01*
X101180273Y-92488320D01*
X100945241Y-92645363D01*
X100745363Y-92845241D01*
X100590000Y-93077759D01*
X100434637Y-92845241D01*
X100234759Y-92645363D01*
X99999727Y-92488320D01*
X99738574Y-92380147D01*
X99461335Y-92325000D01*
X99178665Y-92325000D01*
X98901426Y-92380147D01*
X98640273Y-92488320D01*
X98405241Y-92645363D01*
X98205363Y-92845241D01*
X98050000Y-93077759D01*
X97894637Y-92845241D01*
X97694759Y-92645363D01*
X97459727Y-92488320D01*
X97198574Y-92380147D01*
X96921335Y-92325000D01*
X96638665Y-92325000D01*
X96361426Y-92380147D01*
X96100273Y-92488320D01*
X95865241Y-92645363D01*
X95665363Y-92845241D01*
X95510000Y-93077759D01*
X95354637Y-92845241D01*
X95154759Y-92645363D01*
X94919727Y-92488320D01*
X94658574Y-92380147D01*
X94381335Y-92325000D01*
X94098665Y-92325000D01*
X93821426Y-92380147D01*
X93560273Y-92488320D01*
X93325241Y-92645363D01*
X93125363Y-92845241D01*
X92970000Y-93077759D01*
X92814637Y-92845241D01*
X92614759Y-92645363D01*
X92379727Y-92488320D01*
X92118574Y-92380147D01*
X91841335Y-92325000D01*
X91558665Y-92325000D01*
X91281426Y-92380147D01*
X91020273Y-92488320D01*
X90785241Y-92645363D01*
X90585363Y-92845241D01*
X90430000Y-93077759D01*
X90274637Y-92845241D01*
X90074759Y-92645363D01*
X89839727Y-92488320D01*
X89578574Y-92380147D01*
X89301335Y-92325000D01*
X89018665Y-92325000D01*
X88741426Y-92380147D01*
X88480273Y-92488320D01*
X88245241Y-92645363D01*
X88045363Y-92845241D01*
X87890000Y-93077759D01*
X87734637Y-92845241D01*
X87534759Y-92645363D01*
X87299727Y-92488320D01*
X87038574Y-92380147D01*
X86761335Y-92325000D01*
X86478665Y-92325000D01*
X86201426Y-92380147D01*
X85940273Y-92488320D01*
X85705241Y-92645363D01*
X85505363Y-92845241D01*
X85350000Y-93077759D01*
X85194637Y-92845241D01*
X84994759Y-92645363D01*
X84759727Y-92488320D01*
X84498574Y-92380147D01*
X84221335Y-92325000D01*
X83938665Y-92325000D01*
X83661426Y-92380147D01*
X83400273Y-92488320D01*
X83165241Y-92645363D01*
X82965363Y-92845241D01*
X82808320Y-93080273D01*
X82803933Y-93090865D01*
X82692385Y-92904869D01*
X82503414Y-92696481D01*
X82277420Y-92528963D01*
X82023087Y-92408754D01*
X81889039Y-92368096D01*
X81667000Y-92490085D01*
X81667000Y-93633000D01*
X81687000Y-93633000D01*
X81687000Y-93887000D01*
X81667000Y-93887000D01*
X81667000Y-95029915D01*
X81889039Y-95151904D01*
X82023087Y-95111246D01*
X82277420Y-94991037D01*
X82503414Y-94823519D01*
X82692385Y-94615131D01*
X82803933Y-94429135D01*
X82808320Y-94439727D01*
X82965363Y-94674759D01*
X83165241Y-94874637D01*
X83400273Y-95031680D01*
X83661426Y-95139853D01*
X83938665Y-95195000D01*
X84221335Y-95195000D01*
X84498574Y-95139853D01*
X84759727Y-95031680D01*
X84994759Y-94874637D01*
X85194637Y-94674759D01*
X85350000Y-94442241D01*
X85505363Y-94674759D01*
X85705241Y-94874637D01*
X85940273Y-95031680D01*
X86201426Y-95139853D01*
X86478665Y-95195000D01*
X86761335Y-95195000D01*
X87038574Y-95139853D01*
X87299727Y-95031680D01*
X87534759Y-94874637D01*
X87734637Y-94674759D01*
X87890000Y-94442241D01*
X88045363Y-94674759D01*
X88245241Y-94874637D01*
X88480273Y-95031680D01*
X88741426Y-95139853D01*
X89018665Y-95195000D01*
X89301335Y-95195000D01*
X89578574Y-95139853D01*
X89839727Y-95031680D01*
X90074759Y-94874637D01*
X90274637Y-94674759D01*
X90430000Y-94442241D01*
X90585363Y-94674759D01*
X90785241Y-94874637D01*
X91020273Y-95031680D01*
X91281426Y-95139853D01*
X91558665Y-95195000D01*
X91841335Y-95195000D01*
X92118574Y-95139853D01*
X92379727Y-95031680D01*
X92614759Y-94874637D01*
X92814637Y-94674759D01*
X92970000Y-94442241D01*
X93125363Y-94674759D01*
X93325241Y-94874637D01*
X93560273Y-95031680D01*
X93821426Y-95139853D01*
X94098665Y-95195000D01*
X94381335Y-95195000D01*
X94658574Y-95139853D01*
X94919727Y-95031680D01*
X95154759Y-94874637D01*
X95354637Y-94674759D01*
X95510000Y-94442241D01*
X95665363Y-94674759D01*
X95865241Y-94874637D01*
X96100273Y-95031680D01*
X96361426Y-95139853D01*
X96638665Y-95195000D01*
X96921335Y-95195000D01*
X97198574Y-95139853D01*
X97459727Y-95031680D01*
X97694759Y-94874637D01*
X97894637Y-94674759D01*
X98050000Y-94442241D01*
X98205363Y-94674759D01*
X98405241Y-94874637D01*
X98640273Y-95031680D01*
X98901426Y-95139853D01*
X99178665Y-95195000D01*
X99461335Y-95195000D01*
X99738574Y-95139853D01*
X99999727Y-95031680D01*
X100234759Y-94874637D01*
X100434637Y-94674759D01*
X100590000Y-94442241D01*
X100745363Y-94674759D01*
X100945241Y-94874637D01*
X101180273Y-95031680D01*
X101441426Y-95139853D01*
X101718665Y-95195000D01*
X102001335Y-95195000D01*
X102278574Y-95139853D01*
X102539727Y-95031680D01*
X102774759Y-94874637D01*
X102974637Y-94674759D01*
X103130000Y-94442241D01*
X103285363Y-94674759D01*
X103485241Y-94874637D01*
X103720273Y-95031680D01*
X103981426Y-95139853D01*
X104258665Y-95195000D01*
X104541335Y-95195000D01*
X104818574Y-95139853D01*
X105079727Y-95031680D01*
X105314759Y-94874637D01*
X105514637Y-94674759D01*
X105670000Y-94442241D01*
X105825363Y-94674759D01*
X106025241Y-94874637D01*
X106260273Y-95031680D01*
X106521426Y-95139853D01*
X106798665Y-95195000D01*
X107081335Y-95195000D01*
X107358574Y-95139853D01*
X107619727Y-95031680D01*
X107854759Y-94874637D01*
X108054637Y-94674759D01*
X108210000Y-94442241D01*
X108365363Y-94674759D01*
X108565241Y-94874637D01*
X108800273Y-95031680D01*
X109061426Y-95139853D01*
X109338665Y-95195000D01*
X109621335Y-95195000D01*
X109898574Y-95139853D01*
X110159727Y-95031680D01*
X110394759Y-94874637D01*
X110594637Y-94674759D01*
X110750000Y-94442241D01*
X110905363Y-94674759D01*
X111105241Y-94874637D01*
X111340273Y-95031680D01*
X111601426Y-95139853D01*
X111878665Y-95195000D01*
X112161335Y-95195000D01*
X112438574Y-95139853D01*
X112699727Y-95031680D01*
X112934759Y-94874637D01*
X113134637Y-94674759D01*
X113241947Y-94514158D01*
X113294286Y-94509003D01*
X113327813Y-94498833D01*
X113445363Y-94674759D01*
X113645241Y-94874637D01*
X113880273Y-95031680D01*
X114141426Y-95139853D01*
X114418665Y-95195000D01*
X114701335Y-95195000D01*
X114978574Y-95139853D01*
X115239727Y-95031680D01*
X115474759Y-94874637D01*
X115674637Y-94674759D01*
X115831680Y-94439727D01*
X115939853Y-94178574D01*
X115995000Y-93901335D01*
X115995000Y-93618665D01*
X115939853Y-93341426D01*
X115831680Y-93080273D01*
X115674637Y-92845241D01*
X115474759Y-92645363D01*
X115239727Y-92488320D01*
X115219047Y-92479754D01*
X116347602Y-91351200D01*
X146458869Y-91351200D01*
X146377616Y-91661108D01*
X146358282Y-91982595D01*
X146402039Y-92301675D01*
X146507205Y-92606088D01*
X146600186Y-92780044D01*
X146864587Y-92875808D01*
X147820395Y-91920000D01*
X147806253Y-91905858D01*
X147985858Y-91726253D01*
X148000000Y-91740395D01*
X148014143Y-91726253D01*
X148193748Y-91905858D01*
X148179605Y-91920000D01*
X149135413Y-92875808D01*
X149399814Y-92780044D01*
X149540704Y-92490429D01*
X149622384Y-92178892D01*
X149641718Y-91857405D01*
X149597961Y-91538325D01*
X149533315Y-91351200D01*
X157276399Y-91351200D01*
X158436928Y-92511730D01*
X158436928Y-93600000D01*
X158453992Y-93773254D01*
X158504528Y-93939850D01*
X158586595Y-94093386D01*
X158697038Y-94227962D01*
X158831614Y-94338405D01*
X158985150Y-94420472D01*
X159151746Y-94471008D01*
X159325000Y-94488072D01*
X159540226Y-94488072D01*
X151518499Y-102509800D01*
X111011522Y-102509800D01*
X110974199Y-102506124D01*
X110936876Y-102509800D01*
X110936867Y-102509800D01*
X110825214Y-102520797D01*
X110681953Y-102564254D01*
X110549924Y-102634826D01*
X110434199Y-102729799D01*
X110410401Y-102758797D01*
X105296222Y-107872977D01*
X105079727Y-107728320D01*
X104818574Y-107620147D01*
X104541335Y-107565000D01*
X104258665Y-107565000D01*
X103981426Y-107620147D01*
X103720273Y-107728320D01*
X103503778Y-107872977D01*
X102981003Y-107350202D01*
X102957201Y-107321199D01*
X102841476Y-107226226D01*
X102709447Y-107155654D01*
X102566186Y-107112197D01*
X102454533Y-107101200D01*
X102454522Y-107101200D01*
X102417200Y-107097524D01*
X102379878Y-107101200D01*
X96361422Y-107101200D01*
X96324099Y-107097524D01*
X96286776Y-107101200D01*
X96286767Y-107101200D01*
X96175114Y-107112197D01*
X96031853Y-107155654D01*
X95899824Y-107226226D01*
X95784099Y-107321199D01*
X95760301Y-107350198D01*
X95189947Y-107920551D01*
X95154759Y-107885363D01*
X94919727Y-107728320D01*
X94899047Y-107719754D01*
X104858803Y-97760000D01*
X146361928Y-97760000D01*
X146361928Y-98000000D01*
X146374188Y-98124482D01*
X146410498Y-98244180D01*
X146469463Y-98354494D01*
X146548815Y-98451185D01*
X146645506Y-98530537D01*
X146755820Y-98589502D01*
X146875518Y-98625812D01*
X147000000Y-98638072D01*
X149000000Y-98638072D01*
X149124482Y-98625812D01*
X149244180Y-98589502D01*
X149354494Y-98530537D01*
X149451185Y-98451185D01*
X149530537Y-98354494D01*
X149589502Y-98244180D01*
X149625812Y-98124482D01*
X149638072Y-98000000D01*
X149638072Y-96000000D01*
X149625812Y-95875518D01*
X149589502Y-95755820D01*
X149530537Y-95645506D01*
X149451185Y-95548815D01*
X149354494Y-95469463D01*
X149308370Y-95444809D01*
X149448918Y-95234463D01*
X149572168Y-94936912D01*
X149635000Y-94621033D01*
X149635000Y-94298967D01*
X149572168Y-93983088D01*
X149448918Y-93685537D01*
X149269987Y-93417748D01*
X149042252Y-93190013D01*
X148933400Y-93117280D01*
X148955808Y-93055413D01*
X148000000Y-92099605D01*
X147044192Y-93055413D01*
X147066600Y-93117280D01*
X146957748Y-93190013D01*
X146730013Y-93417748D01*
X146551082Y-93685537D01*
X146427832Y-93983088D01*
X146365000Y-94298967D01*
X146365000Y-94621033D01*
X146427832Y-94936912D01*
X146551082Y-95234463D01*
X146691630Y-95444809D01*
X146645506Y-95469463D01*
X146548815Y-95548815D01*
X146469463Y-95645506D01*
X146410498Y-95755820D01*
X146374188Y-95875518D01*
X146361928Y-96000000D01*
X146361928Y-96240000D01*
X104581322Y-96240000D01*
X104543999Y-96236324D01*
X104506676Y-96240000D01*
X104506667Y-96240000D01*
X104395014Y-96250997D01*
X104251753Y-96294454D01*
X104119724Y-96365026D01*
X104119722Y-96365027D01*
X104119723Y-96365027D01*
X104032996Y-96436201D01*
X104032992Y-96436205D01*
X104003999Y-96459999D01*
X103980205Y-96488992D01*
X92596222Y-107872977D01*
X92379727Y-107728320D01*
X92118574Y-107620147D01*
X91841335Y-107565000D01*
X91558665Y-107565000D01*
X91281426Y-107620147D01*
X91020273Y-107728320D01*
X90785241Y-107885363D01*
X90585363Y-108085241D01*
X90430000Y-108317759D01*
X90274637Y-108085241D01*
X90074759Y-107885363D01*
X89839727Y-107728320D01*
X89578574Y-107620147D01*
X89301335Y-107565000D01*
X89018665Y-107565000D01*
X88741426Y-107620147D01*
X88480273Y-107728320D01*
X88245241Y-107885363D01*
X88045363Y-108085241D01*
X87888320Y-108320273D01*
X87883933Y-108330865D01*
X87772385Y-108144869D01*
X87583414Y-107936481D01*
X87357420Y-107768963D01*
X87103087Y-107648754D01*
X86969039Y-107608096D01*
X86747000Y-107730085D01*
X86747000Y-108873000D01*
X86767000Y-108873000D01*
X86767000Y-109127000D01*
X86747000Y-109127000D01*
X86747000Y-110269915D01*
X86969039Y-110391904D01*
X87103087Y-110351246D01*
X87357420Y-110231037D01*
X87583414Y-110063519D01*
X87772385Y-109855131D01*
X87883933Y-109669135D01*
X87888320Y-109679727D01*
X88045363Y-109914759D01*
X88245241Y-110114637D01*
X88480273Y-110271680D01*
X88741426Y-110379853D01*
X89018665Y-110435000D01*
X89301335Y-110435000D01*
X89578574Y-110379853D01*
X89839727Y-110271680D01*
X90074759Y-110114637D01*
X90274637Y-109914759D01*
X90430000Y-109682241D01*
X90585363Y-109914759D01*
X90785241Y-110114637D01*
X91020273Y-110271680D01*
X91281426Y-110379853D01*
X91558665Y-110435000D01*
X91841335Y-110435000D01*
X92118574Y-110379853D01*
X92379727Y-110271680D01*
X92614759Y-110114637D01*
X92814637Y-109914759D01*
X92921947Y-109754158D01*
X92974286Y-109749003D01*
X93007813Y-109738833D01*
X93125363Y-109914759D01*
X93325241Y-110114637D01*
X93560273Y-110271680D01*
X93562780Y-110272718D01*
X85595499Y-118240000D01*
X79218043Y-118240000D01*
X79114637Y-118085241D01*
X78914759Y-117885363D01*
X78679727Y-117728320D01*
X78418574Y-117620147D01*
X78141335Y-117565000D01*
X77858665Y-117565000D01*
X77581426Y-117620147D01*
X77320273Y-117728320D01*
X77085241Y-117885363D01*
X76885363Y-118085241D01*
X76728320Y-118320273D01*
X76620147Y-118581426D01*
X76565000Y-118858665D01*
X72517000Y-118858665D01*
X72517000Y-108200000D01*
X77561928Y-108200000D01*
X77561928Y-109800000D01*
X77574188Y-109924482D01*
X77610498Y-110044180D01*
X77669463Y-110154494D01*
X77748815Y-110251185D01*
X77845506Y-110330537D01*
X77955820Y-110389502D01*
X78075518Y-110425812D01*
X78200000Y-110438072D01*
X79800000Y-110438072D01*
X79924482Y-110425812D01*
X80044180Y-110389502D01*
X80154494Y-110330537D01*
X80251185Y-110251185D01*
X80330537Y-110154494D01*
X80389502Y-110044180D01*
X80425812Y-109924482D01*
X80426643Y-109916039D01*
X80625241Y-110114637D01*
X80860273Y-110271680D01*
X81121426Y-110379853D01*
X81398665Y-110435000D01*
X81681335Y-110435000D01*
X81958574Y-110379853D01*
X82219727Y-110271680D01*
X82454759Y-110114637D01*
X82654637Y-109914759D01*
X82810000Y-109682241D01*
X82965363Y-109914759D01*
X83165241Y-110114637D01*
X83400273Y-110271680D01*
X83661426Y-110379853D01*
X83938665Y-110435000D01*
X84221335Y-110435000D01*
X84498574Y-110379853D01*
X84759727Y-110271680D01*
X84994759Y-110114637D01*
X85194637Y-109914759D01*
X85351680Y-109679727D01*
X85356067Y-109669135D01*
X85467615Y-109855131D01*
X85656586Y-110063519D01*
X85882580Y-110231037D01*
X86136913Y-110351246D01*
X86270961Y-110391904D01*
X86493000Y-110269915D01*
X86493000Y-109127000D01*
X86473000Y-109127000D01*
X86473000Y-108873000D01*
X86493000Y-108873000D01*
X86493000Y-107730085D01*
X86270961Y-107608096D01*
X86136913Y-107648754D01*
X85882580Y-107768963D01*
X85656586Y-107936481D01*
X85467615Y-108144869D01*
X85356067Y-108330865D01*
X85351680Y-108320273D01*
X85194637Y-108085241D01*
X84994759Y-107885363D01*
X84759727Y-107728320D01*
X84498574Y-107620147D01*
X84221335Y-107565000D01*
X83938665Y-107565000D01*
X83661426Y-107620147D01*
X83400273Y-107728320D01*
X83165241Y-107885363D01*
X82965363Y-108085241D01*
X82810000Y-108317759D01*
X82654637Y-108085241D01*
X82454759Y-107885363D01*
X82219727Y-107728320D01*
X81958574Y-107620147D01*
X81681335Y-107565000D01*
X81398665Y-107565000D01*
X81121426Y-107620147D01*
X80860273Y-107728320D01*
X80625241Y-107885363D01*
X80426643Y-108083961D01*
X80425812Y-108075518D01*
X80389502Y-107955820D01*
X80330537Y-107845506D01*
X80251185Y-107748815D01*
X80154494Y-107669463D01*
X80044180Y-107610498D01*
X79924482Y-107574188D01*
X79800000Y-107561928D01*
X78200000Y-107561928D01*
X78075518Y-107574188D01*
X77955820Y-107610498D01*
X77845506Y-107669463D01*
X77748815Y-107748815D01*
X77669463Y-107845506D01*
X77610498Y-107955820D01*
X77574188Y-108075518D01*
X77561928Y-108200000D01*
X72517000Y-108200000D01*
X72517000Y-93618665D01*
X77565000Y-93618665D01*
X77565000Y-93901335D01*
X77620147Y-94178574D01*
X77728320Y-94439727D01*
X77885363Y-94674759D01*
X78085241Y-94874637D01*
X78320273Y-95031680D01*
X78581426Y-95139853D01*
X78858665Y-95195000D01*
X79141335Y-95195000D01*
X79418574Y-95139853D01*
X79679727Y-95031680D01*
X79914759Y-94874637D01*
X80114637Y-94674759D01*
X80271680Y-94439727D01*
X80276067Y-94429135D01*
X80387615Y-94615131D01*
X80576586Y-94823519D01*
X80802580Y-94991037D01*
X81056913Y-95111246D01*
X81190961Y-95151904D01*
X81413000Y-95029915D01*
X81413000Y-93887000D01*
X81393000Y-93887000D01*
X81393000Y-93633000D01*
X81413000Y-93633000D01*
X81413000Y-92490085D01*
X81190961Y-92368096D01*
X81056913Y-92408754D01*
X80802580Y-92528963D01*
X80576586Y-92696481D01*
X80387615Y-92904869D01*
X80276067Y-93090865D01*
X80271680Y-93080273D01*
X80114637Y-92845241D01*
X79914759Y-92645363D01*
X79679727Y-92488320D01*
X79418574Y-92380147D01*
X79141335Y-92325000D01*
X78858665Y-92325000D01*
X78581426Y-92380147D01*
X78320273Y-92488320D01*
X78085241Y-92645363D01*
X77885363Y-92845241D01*
X77728320Y-93080273D01*
X77620147Y-93341426D01*
X77565000Y-93618665D01*
X72517000Y-93618665D01*
X72517000Y-83127000D01*
X97025000Y-83127000D01*
X97025000Y-83577000D01*
X97077350Y-83854514D01*
X97182834Y-84116483D01*
X97337399Y-84352839D01*
X97535105Y-84554500D01*
X97768354Y-84713715D01*
X98028182Y-84824367D01*
X98110961Y-84841904D01*
X98333000Y-84719915D01*
X98333000Y-83127000D01*
X97025000Y-83127000D01*
X72517000Y-83127000D01*
X72517000Y-82423000D01*
X97025000Y-82423000D01*
X97025000Y-82873000D01*
X98333000Y-82873000D01*
X98333000Y-81280085D01*
X98587000Y-81280085D01*
X98587000Y-82873000D01*
X98607000Y-82873000D01*
X98607000Y-83127000D01*
X98587000Y-83127000D01*
X98587000Y-84719915D01*
X98809039Y-84841904D01*
X98891818Y-84824367D01*
X99151646Y-84713715D01*
X99384895Y-84554500D01*
X99582601Y-84352839D01*
X99732735Y-84123259D01*
X99801068Y-84251101D01*
X99980393Y-84469608D01*
X100198900Y-84648932D01*
X100448193Y-84782182D01*
X100718692Y-84864236D01*
X101000000Y-84891943D01*
X101281309Y-84864236D01*
X101551808Y-84782182D01*
X101801101Y-84648932D01*
X102019608Y-84469608D01*
X102198932Y-84251101D01*
X102332182Y-84001808D01*
X102414236Y-83731309D01*
X102435000Y-83520491D01*
X102435000Y-83127000D01*
X123025000Y-83127000D01*
X123025000Y-83577000D01*
X123077350Y-83854514D01*
X123182834Y-84116483D01*
X123337399Y-84352839D01*
X123535105Y-84554500D01*
X123768354Y-84713715D01*
X124028182Y-84824367D01*
X124110961Y-84841904D01*
X124333000Y-84719915D01*
X124333000Y-83127000D01*
X123025000Y-83127000D01*
X102435000Y-83127000D01*
X102435000Y-82479508D01*
X102429435Y-82423000D01*
X123025000Y-82423000D01*
X123025000Y-82873000D01*
X124333000Y-82873000D01*
X124333000Y-81280085D01*
X124587000Y-81280085D01*
X124587000Y-82873000D01*
X124607000Y-82873000D01*
X124607000Y-83127000D01*
X124587000Y-83127000D01*
X124587000Y-84719915D01*
X124809039Y-84841904D01*
X124891818Y-84824367D01*
X125151646Y-84713715D01*
X125384895Y-84554500D01*
X125582601Y-84352839D01*
X125732735Y-84123259D01*
X125801068Y-84251101D01*
X125980393Y-84469608D01*
X126198900Y-84648932D01*
X126448193Y-84782182D01*
X126718692Y-84864236D01*
X127000000Y-84891943D01*
X127281309Y-84864236D01*
X127551808Y-84782182D01*
X127801101Y-84648932D01*
X128019608Y-84469608D01*
X128198932Y-84251101D01*
X128332182Y-84001808D01*
X128414236Y-83731309D01*
X128435000Y-83520491D01*
X128435000Y-83127000D01*
X148025000Y-83127000D01*
X148025000Y-83577000D01*
X148077350Y-83854514D01*
X148182834Y-84116483D01*
X148337399Y-84352839D01*
X148535105Y-84554500D01*
X148768354Y-84713715D01*
X149028182Y-84824367D01*
X149110961Y-84841904D01*
X149333000Y-84719915D01*
X149333000Y-83127000D01*
X148025000Y-83127000D01*
X128435000Y-83127000D01*
X128435000Y-82479508D01*
X128429435Y-82423000D01*
X148025000Y-82423000D01*
X148025000Y-82873000D01*
X149333000Y-82873000D01*
X149333000Y-81280085D01*
X149587000Y-81280085D01*
X149587000Y-82873000D01*
X149607000Y-82873000D01*
X149607000Y-83127000D01*
X149587000Y-83127000D01*
X149587000Y-84719915D01*
X149809039Y-84841904D01*
X149891818Y-84824367D01*
X150151646Y-84713715D01*
X150384895Y-84554500D01*
X150582601Y-84352839D01*
X150732735Y-84123259D01*
X150801068Y-84251101D01*
X150980393Y-84469608D01*
X151198900Y-84648932D01*
X151448193Y-84782182D01*
X151718692Y-84864236D01*
X152000000Y-84891943D01*
X152281309Y-84864236D01*
X152551808Y-84782182D01*
X152801101Y-84648932D01*
X153019608Y-84469608D01*
X153198932Y-84251101D01*
X153332182Y-84001808D01*
X153414236Y-83731309D01*
X153435000Y-83520491D01*
X153435000Y-82479508D01*
X153414236Y-82268691D01*
X153332182Y-81998192D01*
X153198932Y-81748899D01*
X153019607Y-81530392D01*
X152801100Y-81351068D01*
X152551807Y-81217818D01*
X152281308Y-81135764D01*
X152000000Y-81108057D01*
X151718691Y-81135764D01*
X151448192Y-81217818D01*
X151198899Y-81351068D01*
X150980392Y-81530393D01*
X150801068Y-81748900D01*
X150732735Y-81876742D01*
X150582601Y-81647161D01*
X150384895Y-81445500D01*
X150151646Y-81286285D01*
X149891818Y-81175633D01*
X149809039Y-81158096D01*
X149587000Y-81280085D01*
X149333000Y-81280085D01*
X149110961Y-81158096D01*
X149028182Y-81175633D01*
X148768354Y-81286285D01*
X148535105Y-81445500D01*
X148337399Y-81647161D01*
X148182834Y-81883517D01*
X148077350Y-82145486D01*
X148025000Y-82423000D01*
X128429435Y-82423000D01*
X128414236Y-82268691D01*
X128332182Y-81998192D01*
X128198932Y-81748899D01*
X128019607Y-81530392D01*
X127801100Y-81351068D01*
X127551807Y-81217818D01*
X127281308Y-81135764D01*
X127000000Y-81108057D01*
X126718691Y-81135764D01*
X126448192Y-81217818D01*
X126198899Y-81351068D01*
X125980392Y-81530393D01*
X125801068Y-81748900D01*
X125732735Y-81876742D01*
X125582601Y-81647161D01*
X125384895Y-81445500D01*
X125151646Y-81286285D01*
X124891818Y-81175633D01*
X124809039Y-81158096D01*
X124587000Y-81280085D01*
X124333000Y-81280085D01*
X124110961Y-81158096D01*
X124028182Y-81175633D01*
X123768354Y-81286285D01*
X123535105Y-81445500D01*
X123337399Y-81647161D01*
X123182834Y-81883517D01*
X123077350Y-82145486D01*
X123025000Y-82423000D01*
X102429435Y-82423000D01*
X102414236Y-82268691D01*
X102332182Y-81998192D01*
X102198932Y-81748899D01*
X102019607Y-81530392D01*
X101801100Y-81351068D01*
X101551807Y-81217818D01*
X101281308Y-81135764D01*
X101000000Y-81108057D01*
X100718691Y-81135764D01*
X100448192Y-81217818D01*
X100198899Y-81351068D01*
X99980392Y-81530393D01*
X99801068Y-81748900D01*
X99732735Y-81876742D01*
X99582601Y-81647161D01*
X99384895Y-81445500D01*
X99151646Y-81286285D01*
X98891818Y-81175633D01*
X98809039Y-81158096D01*
X98587000Y-81280085D01*
X98333000Y-81280085D01*
X98110961Y-81158096D01*
X98028182Y-81175633D01*
X97768354Y-81286285D01*
X97535105Y-81445500D01*
X97337399Y-81647161D01*
X97182834Y-81883517D01*
X97077350Y-82145486D01*
X97025000Y-82423000D01*
X72517000Y-82423000D01*
X72517000Y-78867000D01*
X80010000Y-78867000D01*
X80034776Y-78864560D01*
X80058601Y-78857333D01*
X80080557Y-78845597D01*
X80099803Y-78829803D01*
X80115597Y-78810557D01*
X80127333Y-78788601D01*
X80134560Y-78764776D01*
X80137000Y-78740000D01*
X80137000Y-78047000D01*
X93535000Y-78047000D01*
X93535000Y-79797000D01*
X93605604Y-80259850D01*
X93765148Y-80700032D01*
X94007502Y-81100631D01*
X94323352Y-81446252D01*
X94700561Y-81723612D01*
X95124632Y-81922053D01*
X95421997Y-82002427D01*
X95793000Y-81892625D01*
X95793000Y-78047000D01*
X96047000Y-78047000D01*
X96047000Y-81892625D01*
X96418003Y-82002427D01*
X96715368Y-81922053D01*
X97139439Y-81723612D01*
X97516648Y-81446252D01*
X97832498Y-81100631D01*
X98074852Y-80700032D01*
X98234396Y-80259850D01*
X98305000Y-79797000D01*
X98305000Y-78047000D01*
X103695000Y-78047000D01*
X103695000Y-79797000D01*
X103765604Y-80259850D01*
X103925148Y-80700032D01*
X104167502Y-81100631D01*
X104483352Y-81446252D01*
X104860561Y-81723612D01*
X105284632Y-81922053D01*
X105581997Y-82002427D01*
X105953000Y-81892625D01*
X105953000Y-78047000D01*
X106207000Y-78047000D01*
X106207000Y-81892625D01*
X106578003Y-82002427D01*
X106875368Y-81922053D01*
X107299439Y-81723612D01*
X107676648Y-81446252D01*
X107992498Y-81100631D01*
X108234852Y-80700032D01*
X108394396Y-80259850D01*
X108465000Y-79797000D01*
X108465000Y-78047000D01*
X119535000Y-78047000D01*
X119535000Y-79797000D01*
X119605604Y-80259850D01*
X119765148Y-80700032D01*
X120007502Y-81100631D01*
X120323352Y-81446252D01*
X120700561Y-81723612D01*
X121124632Y-81922053D01*
X121421997Y-82002427D01*
X121793000Y-81892625D01*
X121793000Y-78047000D01*
X122047000Y-78047000D01*
X122047000Y-81892625D01*
X122418003Y-82002427D01*
X122715368Y-81922053D01*
X123139439Y-81723612D01*
X123516648Y-81446252D01*
X123832498Y-81100631D01*
X124074852Y-80700032D01*
X124234396Y-80259850D01*
X124305000Y-79797000D01*
X124305000Y-78047000D01*
X129695000Y-78047000D01*
X129695000Y-79797000D01*
X129765604Y-80259850D01*
X129925148Y-80700032D01*
X130167502Y-81100631D01*
X130483352Y-81446252D01*
X130860561Y-81723612D01*
X131284632Y-81922053D01*
X131581997Y-82002427D01*
X131953000Y-81892625D01*
X131953000Y-78047000D01*
X132207000Y-78047000D01*
X132207000Y-81892625D01*
X132578003Y-82002427D01*
X132875368Y-81922053D01*
X133299439Y-81723612D01*
X133676648Y-81446252D01*
X133992498Y-81100631D01*
X134234852Y-80700032D01*
X134394396Y-80259850D01*
X134465000Y-79797000D01*
X134465000Y-78047000D01*
X144535000Y-78047000D01*
X144535000Y-79797000D01*
X144605604Y-80259850D01*
X144765148Y-80700032D01*
X145007502Y-81100631D01*
X145323352Y-81446252D01*
X145700561Y-81723612D01*
X146124632Y-81922053D01*
X146421997Y-82002427D01*
X146793000Y-81892625D01*
X146793000Y-78047000D01*
X147047000Y-78047000D01*
X147047000Y-81892625D01*
X147418003Y-82002427D01*
X147715368Y-81922053D01*
X148139439Y-81723612D01*
X148516648Y-81446252D01*
X148832498Y-81100631D01*
X149074852Y-80700032D01*
X149234396Y-80259850D01*
X149305000Y-79797000D01*
X149305000Y-78047000D01*
X154695000Y-78047000D01*
X154695000Y-79797000D01*
X154765604Y-80259850D01*
X154925148Y-80700032D01*
X155167502Y-81100631D01*
X155483352Y-81446252D01*
X155860561Y-81723612D01*
X156284632Y-81922053D01*
X156581997Y-82002427D01*
X156953000Y-81892625D01*
X156953000Y-78047000D01*
X157207000Y-78047000D01*
X157207000Y-81892625D01*
X157578003Y-82002427D01*
X157875368Y-81922053D01*
X158299439Y-81723612D01*
X158676648Y-81446252D01*
X158992498Y-81100631D01*
X159234852Y-80700032D01*
X159394396Y-80259850D01*
X159465000Y-79797000D01*
X159465000Y-78047000D01*
X157207000Y-78047000D01*
X156953000Y-78047000D01*
X154695000Y-78047000D01*
X149305000Y-78047000D01*
X147047000Y-78047000D01*
X146793000Y-78047000D01*
X144535000Y-78047000D01*
X134465000Y-78047000D01*
X132207000Y-78047000D01*
X131953000Y-78047000D01*
X129695000Y-78047000D01*
X124305000Y-78047000D01*
X122047000Y-78047000D01*
X121793000Y-78047000D01*
X119535000Y-78047000D01*
X108465000Y-78047000D01*
X106207000Y-78047000D01*
X105953000Y-78047000D01*
X103695000Y-78047000D01*
X98305000Y-78047000D01*
X96047000Y-78047000D01*
X95793000Y-78047000D01*
X93535000Y-78047000D01*
X80137000Y-78047000D01*
X80137000Y-76043000D01*
X93535000Y-76043000D01*
X93535000Y-77793000D01*
X95793000Y-77793000D01*
X95793000Y-73947375D01*
X96047000Y-73947375D01*
X96047000Y-77793000D01*
X98305000Y-77793000D01*
X98305000Y-76043000D01*
X103695000Y-76043000D01*
X103695000Y-77793000D01*
X105953000Y-77793000D01*
X105953000Y-73947375D01*
X106207000Y-73947375D01*
X106207000Y-77793000D01*
X108465000Y-77793000D01*
X108465000Y-76043000D01*
X119535000Y-76043000D01*
X119535000Y-77793000D01*
X121793000Y-77793000D01*
X121793000Y-73947375D01*
X122047000Y-73947375D01*
X122047000Y-77793000D01*
X124305000Y-77793000D01*
X124305000Y-76043000D01*
X129695000Y-76043000D01*
X129695000Y-77793000D01*
X131953000Y-77793000D01*
X131953000Y-73947375D01*
X132207000Y-73947375D01*
X132207000Y-77793000D01*
X134465000Y-77793000D01*
X134465000Y-76043000D01*
X144535000Y-76043000D01*
X144535000Y-77793000D01*
X146793000Y-77793000D01*
X146793000Y-73947375D01*
X147047000Y-73947375D01*
X147047000Y-77793000D01*
X149305000Y-77793000D01*
X149305000Y-76043000D01*
X154695000Y-76043000D01*
X154695000Y-77793000D01*
X156953000Y-77793000D01*
X156953000Y-73947375D01*
X157207000Y-73947375D01*
X157207000Y-77793000D01*
X159465000Y-77793000D01*
X159465000Y-76043000D01*
X159394396Y-75580150D01*
X159234852Y-75139968D01*
X158992498Y-74739369D01*
X158676648Y-74393748D01*
X158299439Y-74116388D01*
X157875368Y-73917947D01*
X157578003Y-73837573D01*
X157207000Y-73947375D01*
X156953000Y-73947375D01*
X156581997Y-73837573D01*
X156284632Y-73917947D01*
X155860561Y-74116388D01*
X155483352Y-74393748D01*
X155167502Y-74739369D01*
X154925148Y-75139968D01*
X154765604Y-75580150D01*
X154695000Y-76043000D01*
X149305000Y-76043000D01*
X149234396Y-75580150D01*
X149074852Y-75139968D01*
X148832498Y-74739369D01*
X148516648Y-74393748D01*
X148139439Y-74116388D01*
X147715368Y-73917947D01*
X147418003Y-73837573D01*
X147047000Y-73947375D01*
X146793000Y-73947375D01*
X146421997Y-73837573D01*
X146124632Y-73917947D01*
X145700561Y-74116388D01*
X145323352Y-74393748D01*
X145007502Y-74739369D01*
X144765148Y-75139968D01*
X144605604Y-75580150D01*
X144535000Y-76043000D01*
X134465000Y-76043000D01*
X134394396Y-75580150D01*
X134234852Y-75139968D01*
X133992498Y-74739369D01*
X133676648Y-74393748D01*
X133299439Y-74116388D01*
X132875368Y-73917947D01*
X132578003Y-73837573D01*
X132207000Y-73947375D01*
X131953000Y-73947375D01*
X131581997Y-73837573D01*
X131284632Y-73917947D01*
X130860561Y-74116388D01*
X130483352Y-74393748D01*
X130167502Y-74739369D01*
X129925148Y-75139968D01*
X129765604Y-75580150D01*
X129695000Y-76043000D01*
X124305000Y-76043000D01*
X124234396Y-75580150D01*
X124074852Y-75139968D01*
X123832498Y-74739369D01*
X123516648Y-74393748D01*
X123139439Y-74116388D01*
X122715368Y-73917947D01*
X122418003Y-73837573D01*
X122047000Y-73947375D01*
X121793000Y-73947375D01*
X121421997Y-73837573D01*
X121124632Y-73917947D01*
X120700561Y-74116388D01*
X120323352Y-74393748D01*
X120007502Y-74739369D01*
X119765148Y-75139968D01*
X119605604Y-75580150D01*
X119535000Y-76043000D01*
X108465000Y-76043000D01*
X108394396Y-75580150D01*
X108234852Y-75139968D01*
X107992498Y-74739369D01*
X107676648Y-74393748D01*
X107299439Y-74116388D01*
X106875368Y-73917947D01*
X106578003Y-73837573D01*
X106207000Y-73947375D01*
X105953000Y-73947375D01*
X105581997Y-73837573D01*
X105284632Y-73917947D01*
X104860561Y-74116388D01*
X104483352Y-74393748D01*
X104167502Y-74739369D01*
X103925148Y-75139968D01*
X103765604Y-75580150D01*
X103695000Y-76043000D01*
X98305000Y-76043000D01*
X98234396Y-75580150D01*
X98074852Y-75139968D01*
X97832498Y-74739369D01*
X97516648Y-74393748D01*
X97139439Y-74116388D01*
X96715368Y-73917947D01*
X96418003Y-73837573D01*
X96047000Y-73947375D01*
X95793000Y-73947375D01*
X95421997Y-73837573D01*
X95124632Y-73917947D01*
X94700561Y-74116388D01*
X94323352Y-74393748D01*
X94007502Y-74739369D01*
X93765148Y-75139968D01*
X93605604Y-75580150D01*
X93535000Y-76043000D01*
X80137000Y-76043000D01*
X80137000Y-72517000D01*
X186563000Y-72517000D01*
X186563000Y-78740000D01*
G37*
X186563000Y-78740000D02*
X186565440Y-78764776D01*
X186572667Y-78788601D01*
X186584403Y-78810557D01*
X186600197Y-78829803D01*
X186619443Y-78845597D01*
X186641399Y-78857333D01*
X186665224Y-78864560D01*
X186690000Y-78867000D01*
X194183000Y-78867000D01*
X194183000Y-130683000D01*
X186690000Y-130683000D01*
X186665224Y-130685440D01*
X186641399Y-130692667D01*
X186619443Y-130704403D01*
X186600197Y-130720197D01*
X186584403Y-130739443D01*
X186572667Y-130761399D01*
X186565440Y-130785224D01*
X186563000Y-130810000D01*
X186563000Y-138303000D01*
X93041147Y-138303000D01*
X93060499Y-138279420D01*
X93189477Y-138038119D01*
X93268902Y-137776291D01*
X93289000Y-137572230D01*
X93289000Y-135927770D01*
X93268902Y-135723709D01*
X93189477Y-135461881D01*
X93060499Y-135220580D01*
X92886922Y-135009077D01*
X92675419Y-134835501D01*
X92434118Y-134706523D01*
X92172290Y-134627098D01*
X91900000Y-134600280D01*
X91627709Y-134627098D01*
X91365881Y-134706523D01*
X91124580Y-134835501D01*
X90913077Y-135009078D01*
X90739501Y-135220581D01*
X90610523Y-135461882D01*
X90531098Y-135723710D01*
X90511000Y-135927771D01*
X90511000Y-137572230D01*
X90531098Y-137776291D01*
X90610524Y-138038119D01*
X90739502Y-138279420D01*
X90758854Y-138303000D01*
X83241147Y-138303000D01*
X83260499Y-138279420D01*
X83389477Y-138038119D01*
X83468902Y-137776291D01*
X83489000Y-137572230D01*
X83489000Y-135927770D01*
X83468902Y-135723709D01*
X83422053Y-135569268D01*
X86365000Y-135569268D01*
X86365000Y-135930732D01*
X86435518Y-136285250D01*
X86573844Y-136619199D01*
X86774662Y-136919744D01*
X87030256Y-137175338D01*
X87330801Y-137376156D01*
X87664750Y-137514482D01*
X88019268Y-137585000D01*
X88380732Y-137585000D01*
X88735250Y-137514482D01*
X89069199Y-137376156D01*
X89369744Y-137175338D01*
X89625338Y-136919744D01*
X89826156Y-136619199D01*
X89964482Y-136285250D01*
X90035000Y-135930732D01*
X90035000Y-135569268D01*
X89964482Y-135214750D01*
X89826156Y-134880801D01*
X89625338Y-134580256D01*
X89369744Y-134324662D01*
X89069199Y-134123844D01*
X88735250Y-133985518D01*
X88380732Y-133915000D01*
X88019268Y-133915000D01*
X87664750Y-133985518D01*
X87330801Y-134123844D01*
X87030256Y-134324662D01*
X86774662Y-134580256D01*
X86573844Y-134880801D01*
X86435518Y-135214750D01*
X86365000Y-135569268D01*
X83422053Y-135569268D01*
X83389477Y-135461881D01*
X83260499Y-135220580D01*
X83086922Y-135009077D01*
X82875419Y-134835501D01*
X82634118Y-134706523D01*
X82372290Y-134627098D01*
X82100000Y-134600280D01*
X81827709Y-134627098D01*
X81565881Y-134706523D01*
X81324580Y-134835501D01*
X81113077Y-135009078D01*
X80939501Y-135220581D01*
X80810523Y-135461882D01*
X80731098Y-135723710D01*
X80711000Y-135927771D01*
X80711000Y-137572230D01*
X80731098Y-137776291D01*
X80810524Y-138038119D01*
X80939502Y-138279420D01*
X80958854Y-138303000D01*
X78867000Y-138303000D01*
X78867000Y-133325000D01*
X99511928Y-133325000D01*
X99511928Y-134675000D01*
X99528992Y-134848254D01*
X99579528Y-135014850D01*
X99661595Y-135168386D01*
X99772038Y-135302962D01*
X99906614Y-135413405D01*
X100060150Y-135495472D01*
X100226746Y-135546008D01*
X100400000Y-135563072D01*
X101600000Y-135563072D01*
X101773254Y-135546008D01*
X101939850Y-135495472D01*
X102093386Y-135413405D01*
X102227962Y-135302962D01*
X102338405Y-135168386D01*
X102392777Y-135066663D01*
X102444866Y-135130134D01*
X102670987Y-135315706D01*
X102928967Y-135453599D01*
X103208890Y-135538513D01*
X103500000Y-135567185D01*
X103791111Y-135538513D01*
X104071034Y-135453599D01*
X104329014Y-135315706D01*
X104409473Y-135249675D01*
X104936805Y-135777008D01*
X104960599Y-135806001D01*
X104989592Y-135829795D01*
X104989596Y-135829799D01*
X105060285Y-135887811D01*
X105076324Y-135900974D01*
X105208353Y-135971546D01*
X105351614Y-136015003D01*
X105463267Y-136026000D01*
X105463276Y-136026000D01*
X105500599Y-136029676D01*
X105537922Y-136026000D01*
X109628778Y-136026000D01*
X109666100Y-136029676D01*
X109703422Y-136026000D01*
X109703433Y-136026000D01*
X109815086Y-136015003D01*
X109958347Y-135971546D01*
X110090376Y-135900974D01*
X110206101Y-135806001D01*
X110229904Y-135776997D01*
X112509702Y-133497200D01*
X117511928Y-133497200D01*
X117511928Y-134675000D01*
X117528992Y-134848254D01*
X117579528Y-135014850D01*
X117661595Y-135168386D01*
X117772038Y-135302962D01*
X117906614Y-135413405D01*
X118060150Y-135495472D01*
X118226746Y-135546008D01*
X118400000Y-135563072D01*
X119600000Y-135563072D01*
X119773254Y-135546008D01*
X119939850Y-135495472D01*
X120093386Y-135413405D01*
X120227962Y-135302962D01*
X120338405Y-135168386D01*
X120392777Y-135066663D01*
X120444866Y-135130134D01*
X120670987Y-135315706D01*
X120928967Y-135453599D01*
X121208890Y-135538513D01*
X121500000Y-135567185D01*
X121791111Y-135538513D01*
X122071034Y-135453599D01*
X122329014Y-135315706D01*
X122555134Y-135130134D01*
X122740706Y-134904013D01*
X122750000Y-134886626D01*
X122759294Y-134904014D01*
X122944866Y-135130134D01*
X123170987Y-135315706D01*
X123428967Y-135453599D01*
X123708890Y-135538513D01*
X124000000Y-135567185D01*
X124291111Y-135538513D01*
X124571034Y-135453599D01*
X124829014Y-135315706D01*
X125055134Y-135130134D01*
X125240706Y-134904013D01*
X125250000Y-134886626D01*
X125259294Y-134904014D01*
X125444866Y-135130134D01*
X125670987Y-135315706D01*
X125928967Y-135453599D01*
X126208890Y-135538513D01*
X126500000Y-135567185D01*
X126791111Y-135538513D01*
X127071034Y-135453599D01*
X127329014Y-135315706D01*
X127555134Y-135130134D01*
X127740706Y-134904013D01*
X127878599Y-134646033D01*
X127963513Y-134366110D01*
X127985000Y-134147949D01*
X127985000Y-133852050D01*
X127963513Y-133633889D01*
X127878599Y-133353966D01*
X127740706Y-133095986D01*
X127555134Y-132869866D01*
X127329013Y-132684294D01*
X127071033Y-132546401D01*
X126791110Y-132461487D01*
X126500000Y-132432815D01*
X126208889Y-132461487D01*
X125928966Y-132546401D01*
X125670986Y-132684294D01*
X125590527Y-132750325D01*
X124616104Y-131775903D01*
X124592301Y-131746899D01*
X124476576Y-131651926D01*
X124344547Y-131581354D01*
X124201286Y-131537897D01*
X124089633Y-131526900D01*
X124089622Y-131526900D01*
X124052300Y-131523224D01*
X124014978Y-131526900D01*
X111425722Y-131526900D01*
X111388399Y-131523224D01*
X111351076Y-131526900D01*
X111351067Y-131526900D01*
X111239414Y-131537897D01*
X111096153Y-131581354D01*
X110964124Y-131651926D01*
X110848399Y-131746899D01*
X110824601Y-131775897D01*
X109634241Y-132966258D01*
X109555134Y-132869866D01*
X109329013Y-132684294D01*
X109071033Y-132546401D01*
X108791110Y-132461487D01*
X108500000Y-132432815D01*
X108208889Y-132461487D01*
X107928966Y-132546401D01*
X107670986Y-132684294D01*
X107444866Y-132869866D01*
X107259294Y-133095987D01*
X107250000Y-133113374D01*
X107240706Y-133095986D01*
X107055134Y-132869866D01*
X106829013Y-132684294D01*
X106571033Y-132546401D01*
X106291110Y-132461487D01*
X106000000Y-132432815D01*
X105708889Y-132461487D01*
X105428966Y-132546401D01*
X105170986Y-132684294D01*
X104944866Y-132869866D01*
X104759294Y-133095987D01*
X104750000Y-133113374D01*
X104740706Y-133095986D01*
X104555134Y-132869866D01*
X104329013Y-132684294D01*
X104071033Y-132546401D01*
X103791110Y-132461487D01*
X103500000Y-132432815D01*
X103208889Y-132461487D01*
X102928966Y-132546401D01*
X102670986Y-132684294D01*
X102444866Y-132869866D01*
X102392777Y-132933337D01*
X102338405Y-132831614D01*
X102227962Y-132697038D01*
X102093386Y-132586595D01*
X101939850Y-132504528D01*
X101773254Y-132453992D01*
X101600000Y-132436928D01*
X100400000Y-132436928D01*
X100226746Y-132453992D01*
X100060150Y-132504528D01*
X99906614Y-132586595D01*
X99772038Y-132697038D01*
X99661595Y-132831614D01*
X99579528Y-132985150D01*
X99528992Y-133151746D01*
X99511928Y-133325000D01*
X78867000Y-133325000D01*
X78867000Y-132080000D01*
X78864560Y-132055224D01*
X78857333Y-132031399D01*
X78845597Y-132009443D01*
X78829803Y-131990197D01*
X78810557Y-131974403D01*
X78788601Y-131962667D01*
X78764776Y-131955440D01*
X78740000Y-131953000D01*
X72517000Y-131953000D01*
X72517000Y-129577000D01*
X81611000Y-129577000D01*
X81611000Y-130331000D01*
X81662466Y-130599540D01*
X81765332Y-130852880D01*
X81915646Y-131081284D01*
X82107631Y-131275974D01*
X82333909Y-131429469D01*
X82585785Y-131535870D01*
X82658186Y-131550286D01*
X82873000Y-131427677D01*
X82873000Y-129577000D01*
X81611000Y-129577000D01*
X72517000Y-129577000D01*
X72517000Y-128569000D01*
X81611000Y-128569000D01*
X81611000Y-129323000D01*
X82873000Y-129323000D01*
X82873000Y-127472323D01*
X83127000Y-127472323D01*
X83127000Y-129323000D01*
X83147000Y-129323000D01*
X83147000Y-129577000D01*
X83127000Y-129577000D01*
X83127000Y-131427677D01*
X83341814Y-131550286D01*
X83414215Y-131535870D01*
X83666091Y-131429469D01*
X83892369Y-131275974D01*
X84050923Y-131115186D01*
X84113078Y-131190923D01*
X84324581Y-131364499D01*
X84565882Y-131493477D01*
X84827710Y-131572902D01*
X85100000Y-131599720D01*
X85372291Y-131572902D01*
X85634119Y-131493477D01*
X85875420Y-131364499D01*
X86086923Y-131190923D01*
X86260499Y-130979420D01*
X86389477Y-130738119D01*
X86468902Y-130476291D01*
X86489000Y-130272230D01*
X86489000Y-129461480D01*
X86670580Y-129610499D01*
X86911881Y-129739477D01*
X87173709Y-129818902D01*
X87377770Y-129839000D01*
X89022230Y-129839000D01*
X89226291Y-129818902D01*
X89488119Y-129739477D01*
X89729420Y-129610499D01*
X89940923Y-129436923D01*
X90114499Y-129225420D01*
X90211000Y-129044879D01*
X90211000Y-130272230D01*
X90231098Y-130476291D01*
X90310524Y-130738119D01*
X90439502Y-130979420D01*
X90613078Y-131190923D01*
X90824581Y-131364499D01*
X91065882Y-131493477D01*
X91327710Y-131572902D01*
X91600000Y-131599720D01*
X91872291Y-131572902D01*
X92134119Y-131493477D01*
X92375420Y-131364499D01*
X92586923Y-131190923D01*
X92760499Y-130979420D01*
X92889477Y-130738119D01*
X92968902Y-130476291D01*
X92989000Y-130272230D01*
X92989000Y-128627770D01*
X92968902Y-128423709D01*
X92889477Y-128161881D01*
X92760499Y-127920580D01*
X92586922Y-127709077D01*
X92375419Y-127535501D01*
X92134118Y-127406523D01*
X91872290Y-127327098D01*
X91600000Y-127300280D01*
X91327709Y-127327098D01*
X91065881Y-127406523D01*
X90824580Y-127535501D01*
X90613077Y-127709078D01*
X90439501Y-127920581D01*
X90315357Y-128152838D01*
X90243477Y-127915881D01*
X90114499Y-127674580D01*
X89940923Y-127463077D01*
X89729420Y-127289501D01*
X89488119Y-127160523D01*
X89226291Y-127081098D01*
X89022230Y-127061000D01*
X87377770Y-127061000D01*
X87173709Y-127081098D01*
X86911881Y-127160523D01*
X86670580Y-127289501D01*
X86459077Y-127463077D01*
X86285501Y-127674580D01*
X86196012Y-127842003D01*
X86086922Y-127709077D01*
X85875419Y-127535501D01*
X85634118Y-127406523D01*
X85372290Y-127327098D01*
X85100000Y-127300280D01*
X84827709Y-127327098D01*
X84565881Y-127406523D01*
X84324580Y-127535501D01*
X84113077Y-127709078D01*
X84050923Y-127784813D01*
X83892369Y-127624026D01*
X83666091Y-127470531D01*
X83414215Y-127364130D01*
X83341814Y-127349714D01*
X83127000Y-127472323D01*
X82873000Y-127472323D01*
X82658186Y-127349714D01*
X82585785Y-127364130D01*
X82333909Y-127470531D01*
X82107631Y-127624026D01*
X81915646Y-127818716D01*
X81765332Y-128047120D01*
X81662466Y-128300460D01*
X81611000Y-128569000D01*
X72517000Y-128569000D01*
X72517000Y-118858665D01*
X76565000Y-118858665D01*
X76565000Y-119141335D01*
X76620147Y-119418574D01*
X76728320Y-119679727D01*
X76885363Y-119914759D01*
X77085241Y-120114637D01*
X77320273Y-120271680D01*
X77581426Y-120379853D01*
X77858665Y-120435000D01*
X78141335Y-120435000D01*
X78418574Y-120379853D01*
X78679727Y-120271680D01*
X78914759Y-120114637D01*
X79114637Y-119914759D01*
X79218043Y-119760000D01*
X85872978Y-119760000D01*
X85910300Y-119763676D01*
X85947622Y-119760000D01*
X85947633Y-119760000D01*
X86059286Y-119749003D01*
X86202547Y-119705546D01*
X86334576Y-119634974D01*
X86450301Y-119540001D01*
X86474104Y-119510997D01*
X86858099Y-119127002D01*
X86890084Y-119127002D01*
X86768096Y-119349039D01*
X86808754Y-119483087D01*
X86928963Y-119737420D01*
X87096481Y-119963414D01*
X87304869Y-120152385D01*
X87546119Y-120297070D01*
X87810960Y-120391909D01*
X88033000Y-120270624D01*
X88033000Y-119127000D01*
X88287000Y-119127000D01*
X88287000Y-120270624D01*
X88509040Y-120391909D01*
X88773881Y-120297070D01*
X89015131Y-120152385D01*
X89223519Y-119963414D01*
X89391037Y-119737420D01*
X89511246Y-119483087D01*
X89551904Y-119349039D01*
X89429915Y-119127000D01*
X88287000Y-119127000D01*
X88033000Y-119127000D01*
X88013000Y-119127000D01*
X88013000Y-118873000D01*
X88033000Y-118873000D01*
X88033000Y-118853000D01*
X88287000Y-118853000D01*
X88287000Y-118873000D01*
X89429915Y-118873000D01*
X89437790Y-118858665D01*
X92565000Y-118858665D01*
X92565000Y-119141335D01*
X92620147Y-119418574D01*
X92728320Y-119679727D01*
X92885363Y-119914759D01*
X93085241Y-120114637D01*
X93320273Y-120271680D01*
X93581426Y-120379853D01*
X93858665Y-120435000D01*
X94141335Y-120435000D01*
X94418574Y-120379853D01*
X94679727Y-120271680D01*
X94914759Y-120114637D01*
X95114637Y-119914759D01*
X95271680Y-119679727D01*
X95379853Y-119418574D01*
X95393684Y-119349039D01*
X102768096Y-119349039D01*
X102808754Y-119483087D01*
X102928963Y-119737420D01*
X103096481Y-119963414D01*
X103304869Y-120152385D01*
X103546119Y-120297070D01*
X103810960Y-120391909D01*
X104033000Y-120270624D01*
X104033000Y-119127000D01*
X104287000Y-119127000D01*
X104287000Y-120270624D01*
X104509040Y-120391909D01*
X104773881Y-120297070D01*
X105015131Y-120152385D01*
X105223519Y-119963414D01*
X105391037Y-119737420D01*
X105511246Y-119483087D01*
X105551904Y-119349039D01*
X105429915Y-119127000D01*
X104287000Y-119127000D01*
X104033000Y-119127000D01*
X102890085Y-119127000D01*
X102768096Y-119349039D01*
X95393684Y-119349039D01*
X95435000Y-119141335D01*
X95435000Y-118858665D01*
X95393685Y-118650961D01*
X102768096Y-118650961D01*
X102890085Y-118873000D01*
X104033000Y-118873000D01*
X104033000Y-117729376D01*
X104287000Y-117729376D01*
X104287000Y-118873000D01*
X105429915Y-118873000D01*
X105551904Y-118650961D01*
X105511246Y-118516913D01*
X105391037Y-118262580D01*
X105223519Y-118036586D01*
X105015131Y-117847615D01*
X104773881Y-117702930D01*
X104509040Y-117608091D01*
X104287000Y-117729376D01*
X104033000Y-117729376D01*
X103810960Y-117608091D01*
X103546119Y-117702930D01*
X103304869Y-117847615D01*
X103096481Y-118036586D01*
X102928963Y-118262580D01*
X102808754Y-118516913D01*
X102768096Y-118650961D01*
X95393685Y-118650961D01*
X95379853Y-118581426D01*
X95271680Y-118320273D01*
X95114637Y-118085241D01*
X94914759Y-117885363D01*
X94679727Y-117728320D01*
X94418574Y-117620147D01*
X94141335Y-117565000D01*
X93858665Y-117565000D01*
X93581426Y-117620147D01*
X93320273Y-117728320D01*
X93085241Y-117885363D01*
X92885363Y-118085241D01*
X92728320Y-118320273D01*
X92620147Y-118581426D01*
X92565000Y-118858665D01*
X89437790Y-118858665D01*
X89551904Y-118650961D01*
X89511246Y-118516913D01*
X89391037Y-118262580D01*
X89223519Y-118036586D01*
X89015131Y-117847615D01*
X88773881Y-117702930D01*
X88509040Y-117608091D01*
X88287002Y-117729375D01*
X88287002Y-117698099D01*
X95868373Y-110116729D01*
X96100273Y-110271680D01*
X96361426Y-110379853D01*
X96638665Y-110435000D01*
X96921335Y-110435000D01*
X97198574Y-110379853D01*
X97459727Y-110271680D01*
X97676222Y-110127023D01*
X114060201Y-126511003D01*
X114083999Y-126540001D01*
X114199724Y-126634974D01*
X114331753Y-126705546D01*
X114475014Y-126749003D01*
X114586667Y-126760000D01*
X114586676Y-126760000D01*
X114623999Y-126763676D01*
X114661322Y-126760000D01*
X146361928Y-126760000D01*
X146361928Y-127000000D01*
X146374188Y-127124482D01*
X146410498Y-127244180D01*
X146469463Y-127354494D01*
X146548815Y-127451185D01*
X146645506Y-127530537D01*
X146755820Y-127589502D01*
X146875518Y-127625812D01*
X147000000Y-127638072D01*
X149000000Y-127638072D01*
X149124482Y-127625812D01*
X149244180Y-127589502D01*
X149354494Y-127530537D01*
X149451185Y-127451185D01*
X149530537Y-127354494D01*
X149589502Y-127244180D01*
X149625812Y-127124482D01*
X149638072Y-127000000D01*
X149638072Y-125000000D01*
X149625812Y-124875518D01*
X149589502Y-124755820D01*
X149530537Y-124645506D01*
X149451185Y-124548815D01*
X149354494Y-124469463D01*
X149308370Y-124444809D01*
X149448918Y-124234463D01*
X149572168Y-123936912D01*
X149635000Y-123621033D01*
X149635000Y-123298967D01*
X149572168Y-122983088D01*
X149448918Y-122685537D01*
X149269987Y-122417748D01*
X149042252Y-122190013D01*
X148933400Y-122117280D01*
X148955808Y-122055413D01*
X148000000Y-121099605D01*
X147044192Y-122055413D01*
X147066600Y-122117280D01*
X146957748Y-122190013D01*
X146730013Y-122417748D01*
X146551082Y-122685537D01*
X146427832Y-122983088D01*
X146365000Y-123298967D01*
X146365000Y-123621033D01*
X146427832Y-123936912D01*
X146551082Y-124234463D01*
X146691630Y-124444809D01*
X146645506Y-124469463D01*
X146548815Y-124548815D01*
X146469463Y-124645506D01*
X146410498Y-124755820D01*
X146374188Y-124875518D01*
X146361928Y-125000000D01*
X146361928Y-125240000D01*
X114938802Y-125240000D01*
X108557467Y-118858665D01*
X109565000Y-118858665D01*
X109565000Y-119141335D01*
X109620147Y-119418574D01*
X109728320Y-119679727D01*
X109885363Y-119914759D01*
X110085241Y-120114637D01*
X110320273Y-120271680D01*
X110581426Y-120379853D01*
X110858665Y-120435000D01*
X111141335Y-120435000D01*
X111323886Y-120398688D01*
X111569901Y-120644703D01*
X111593699Y-120673701D01*
X111622697Y-120697499D01*
X111709423Y-120768674D01*
X111841453Y-120839246D01*
X111984714Y-120882703D01*
X112096367Y-120893700D01*
X112096377Y-120893700D01*
X112133700Y-120897376D01*
X112171023Y-120893700D01*
X145804478Y-120893700D01*
X145841800Y-120897376D01*
X145879122Y-120893700D01*
X145879133Y-120893700D01*
X145990786Y-120882703D01*
X146134047Y-120839246D01*
X146266076Y-120768674D01*
X146376602Y-120677968D01*
X146358282Y-120982595D01*
X146402039Y-121301675D01*
X146507205Y-121606088D01*
X146600186Y-121780044D01*
X146864587Y-121875808D01*
X147820395Y-120920000D01*
X147806253Y-120905858D01*
X147985858Y-120726253D01*
X148000000Y-120740395D01*
X148014143Y-120726253D01*
X148193748Y-120905858D01*
X148179605Y-120920000D01*
X149135413Y-121875808D01*
X149399814Y-121780044D01*
X149540704Y-121490429D01*
X149622384Y-121178892D01*
X149641718Y-120857405D01*
X149597961Y-120538325D01*
X149527960Y-120335700D01*
X156348599Y-120335700D01*
X158684151Y-122671253D01*
X158546401Y-122928966D01*
X158461487Y-123208889D01*
X158432815Y-123500000D01*
X158461487Y-123791111D01*
X158546401Y-124071034D01*
X158684294Y-124329014D01*
X158869866Y-124555134D01*
X158933337Y-124607223D01*
X158831614Y-124661595D01*
X158697038Y-124772038D01*
X158586595Y-124906614D01*
X158504528Y-125060150D01*
X158453992Y-125226746D01*
X158436928Y-125400000D01*
X158436928Y-126600000D01*
X158453992Y-126773254D01*
X158504528Y-126939850D01*
X158586595Y-127093386D01*
X158697038Y-127227962D01*
X158831614Y-127338405D01*
X158985150Y-127420472D01*
X159151746Y-127471008D01*
X159325000Y-127488072D01*
X160675000Y-127488072D01*
X160848254Y-127471008D01*
X161014850Y-127420472D01*
X161168386Y-127338405D01*
X161302962Y-127227962D01*
X161413405Y-127093386D01*
X161495472Y-126939850D01*
X161546008Y-126773254D01*
X161563072Y-126600000D01*
X161563072Y-125400000D01*
X161546008Y-125226746D01*
X161495472Y-125060150D01*
X161413405Y-124906614D01*
X161302962Y-124772038D01*
X161168386Y-124661595D01*
X161066663Y-124607223D01*
X161130134Y-124555134D01*
X161315706Y-124329014D01*
X161453599Y-124071034D01*
X161538513Y-123791111D01*
X161550215Y-123672300D01*
X173677000Y-123672300D01*
X173677001Y-126550368D01*
X173673324Y-126587700D01*
X173687998Y-126736685D01*
X173731454Y-126879946D01*
X173802026Y-127011976D01*
X173858754Y-127081098D01*
X173897000Y-127127701D01*
X173925998Y-127151499D01*
X175987968Y-129213469D01*
X175891576Y-129292576D01*
X175696631Y-129530118D01*
X175551774Y-129801126D01*
X175462572Y-130095188D01*
X175440000Y-130324365D01*
X175440000Y-131675636D01*
X175462572Y-131904813D01*
X175551774Y-132198875D01*
X175696632Y-132469883D01*
X175891577Y-132707424D01*
X176129118Y-132902369D01*
X176400126Y-133047226D01*
X176694188Y-133136428D01*
X177000000Y-133166548D01*
X177305813Y-133136428D01*
X177599875Y-133047226D01*
X177870883Y-132902369D01*
X178108424Y-132707424D01*
X178303369Y-132469883D01*
X178448226Y-132198875D01*
X178537428Y-131904813D01*
X178560000Y-131675636D01*
X178560000Y-130324365D01*
X180440000Y-130324365D01*
X180440000Y-131675636D01*
X180462572Y-131904813D01*
X180551774Y-132198875D01*
X180696632Y-132469883D01*
X180891577Y-132707424D01*
X181129118Y-132902369D01*
X181400126Y-133047226D01*
X181694188Y-133136428D01*
X182000000Y-133166548D01*
X182305813Y-133136428D01*
X182599875Y-133047226D01*
X182870883Y-132902369D01*
X183108424Y-132707424D01*
X183303369Y-132469883D01*
X183448226Y-132198875D01*
X183537428Y-131904813D01*
X183560000Y-131675636D01*
X183560000Y-130324364D01*
X183537428Y-130095187D01*
X183448226Y-129801125D01*
X183303369Y-129530117D01*
X183108424Y-129292576D01*
X182870882Y-129097631D01*
X182599874Y-128952774D01*
X182305812Y-128863572D01*
X182000000Y-128833452D01*
X181694187Y-128863572D01*
X181400125Y-128952774D01*
X181129117Y-129097631D01*
X180891576Y-129292576D01*
X180696631Y-129530118D01*
X180551774Y-129801126D01*
X180462572Y-130095188D01*
X180440000Y-130324365D01*
X178560000Y-130324365D01*
X178560000Y-130324364D01*
X178537428Y-130095187D01*
X178448226Y-129801125D01*
X178303369Y-129530117D01*
X178108424Y-129292576D01*
X177870882Y-129097631D01*
X177752202Y-129034195D01*
X177749003Y-129001714D01*
X177705546Y-128858453D01*
X177634974Y-128726424D01*
X177540001Y-128610699D01*
X177511003Y-128586901D01*
X175197000Y-126272899D01*
X175197000Y-123227101D01*
X177511003Y-120913099D01*
X177540001Y-120889301D01*
X177634974Y-120773576D01*
X177705546Y-120641547D01*
X177749003Y-120498286D01*
X177752202Y-120465805D01*
X177870883Y-120402369D01*
X178108424Y-120207424D01*
X178303369Y-119969883D01*
X178448226Y-119698875D01*
X178537428Y-119404813D01*
X178560000Y-119175636D01*
X178560000Y-117824365D01*
X180440000Y-117824365D01*
X180440000Y-119175636D01*
X180462572Y-119404813D01*
X180551774Y-119698875D01*
X180696632Y-119969883D01*
X180891577Y-120207424D01*
X181129118Y-120402369D01*
X181400126Y-120547226D01*
X181694188Y-120636428D01*
X182000000Y-120666548D01*
X182305813Y-120636428D01*
X182599875Y-120547226D01*
X182870883Y-120402369D01*
X183108424Y-120207424D01*
X183303369Y-119969883D01*
X183448226Y-119698875D01*
X183537428Y-119404813D01*
X183560000Y-119175636D01*
X183560000Y-117824364D01*
X183537428Y-117595187D01*
X183448226Y-117301125D01*
X183303369Y-117030117D01*
X183108424Y-116792576D01*
X182870882Y-116597631D01*
X182599874Y-116452774D01*
X182305812Y-116363572D01*
X182000000Y-116333452D01*
X181694187Y-116363572D01*
X181400125Y-116452774D01*
X181129117Y-116597631D01*
X180891576Y-116792576D01*
X180696631Y-117030118D01*
X180551774Y-117301126D01*
X180462572Y-117595188D01*
X180440000Y-117824365D01*
X178560000Y-117824365D01*
X178560000Y-117824364D01*
X178537428Y-117595187D01*
X178448226Y-117301125D01*
X178303369Y-117030117D01*
X178108424Y-116792576D01*
X177870882Y-116597631D01*
X177599874Y-116452774D01*
X177305812Y-116363572D01*
X177000000Y-116333452D01*
X176694187Y-116363572D01*
X176400125Y-116452774D01*
X176129117Y-116597631D01*
X175891576Y-116792576D01*
X175696631Y-117030118D01*
X175551774Y-117301126D01*
X175462572Y-117595188D01*
X175440000Y-117824365D01*
X175440000Y-119175636D01*
X175462572Y-119404813D01*
X175551774Y-119698875D01*
X175696632Y-119969883D01*
X175891577Y-120207424D01*
X175987968Y-120286530D01*
X174122199Y-122152300D01*
X160703842Y-122152300D01*
X160646034Y-122121401D01*
X160366111Y-122036487D01*
X160180730Y-122018229D01*
X157227204Y-119064703D01*
X157203401Y-119035699D01*
X157087676Y-118940726D01*
X156955647Y-118870154D01*
X156812386Y-118826697D01*
X156700733Y-118815700D01*
X156700722Y-118815700D01*
X156663400Y-118812024D01*
X156626078Y-118815700D01*
X146437122Y-118815700D01*
X146399799Y-118812024D01*
X146362476Y-118815700D01*
X146362467Y-118815700D01*
X146250814Y-118826697D01*
X146107553Y-118870154D01*
X145975524Y-118940726D01*
X145859799Y-119035699D01*
X145836000Y-119064698D01*
X145526999Y-119373700D01*
X122544424Y-119373700D01*
X122551904Y-119349039D01*
X122429915Y-119127000D01*
X121287000Y-119127000D01*
X121287000Y-119147000D01*
X121033000Y-119147000D01*
X121033000Y-119127000D01*
X119890085Y-119127000D01*
X119768096Y-119349039D01*
X119775576Y-119373700D01*
X112448502Y-119373700D01*
X112398688Y-119323886D01*
X112435000Y-119141335D01*
X112435000Y-118858665D01*
X112393685Y-118650961D01*
X119768096Y-118650961D01*
X119890085Y-118873000D01*
X121033000Y-118873000D01*
X121033000Y-117729376D01*
X121287000Y-117729376D01*
X121287000Y-118873000D01*
X122429915Y-118873000D01*
X122551904Y-118650961D01*
X122511246Y-118516913D01*
X122391037Y-118262580D01*
X122223519Y-118036586D01*
X122015131Y-117847615D01*
X121773881Y-117702930D01*
X121509040Y-117608091D01*
X121287000Y-117729376D01*
X121033000Y-117729376D01*
X120810960Y-117608091D01*
X120546119Y-117702930D01*
X120304869Y-117847615D01*
X120096481Y-118036586D01*
X119928963Y-118262580D01*
X119808754Y-118516913D01*
X119768096Y-118650961D01*
X112393685Y-118650961D01*
X112379853Y-118581426D01*
X112271680Y-118320273D01*
X112114637Y-118085241D01*
X111914759Y-117885363D01*
X111679727Y-117728320D01*
X111418574Y-117620147D01*
X111141335Y-117565000D01*
X110858665Y-117565000D01*
X110581426Y-117620147D01*
X110320273Y-117728320D01*
X110085241Y-117885363D01*
X109885363Y-118085241D01*
X109728320Y-118320273D01*
X109620147Y-118581426D01*
X109565000Y-118858665D01*
X108557467Y-118858665D01*
X99979047Y-110280246D01*
X99999727Y-110271680D01*
X100216222Y-110127023D01*
X102600205Y-112511008D01*
X102623999Y-112540001D01*
X102652992Y-112563795D01*
X102652996Y-112563799D01*
X102723685Y-112621811D01*
X102739724Y-112634974D01*
X102871753Y-112705546D01*
X103015014Y-112749003D01*
X103126667Y-112760000D01*
X103126676Y-112760000D01*
X103163999Y-112763676D01*
X103201322Y-112760000D01*
X146361928Y-112760000D01*
X146361928Y-113000000D01*
X146374188Y-113124482D01*
X146410498Y-113244180D01*
X146469463Y-113354494D01*
X146548815Y-113451185D01*
X146645506Y-113530537D01*
X146755820Y-113589502D01*
X146875518Y-113625812D01*
X147000000Y-113638072D01*
X149000000Y-113638072D01*
X149124482Y-113625812D01*
X149244180Y-113589502D01*
X149354494Y-113530537D01*
X149451185Y-113451185D01*
X149530537Y-113354494D01*
X149589502Y-113244180D01*
X149625812Y-113124482D01*
X149638072Y-113000000D01*
X149638072Y-111000000D01*
X149625812Y-110875518D01*
X149589502Y-110755820D01*
X149530537Y-110645506D01*
X149451185Y-110548815D01*
X149354494Y-110469463D01*
X149308370Y-110444809D01*
X149448918Y-110234463D01*
X149572168Y-109936912D01*
X149635000Y-109621033D01*
X149635000Y-109298967D01*
X149572168Y-108983088D01*
X149448918Y-108685537D01*
X149269987Y-108417748D01*
X149042252Y-108190013D01*
X148933400Y-108117280D01*
X148955808Y-108055413D01*
X148000000Y-107099605D01*
X147044192Y-108055413D01*
X147066600Y-108117280D01*
X146957748Y-108190013D01*
X146730013Y-108417748D01*
X146551082Y-108685537D01*
X146427832Y-108983088D01*
X146365000Y-109298967D01*
X146365000Y-109621033D01*
X146427832Y-109936912D01*
X146551082Y-110234463D01*
X146691630Y-110444809D01*
X146645506Y-110469463D01*
X146548815Y-110548815D01*
X146469463Y-110645506D01*
X146410498Y-110755820D01*
X146374188Y-110875518D01*
X146361928Y-111000000D01*
X146361928Y-111240000D01*
X103478803Y-111240000D01*
X102519048Y-110280246D01*
X102539727Y-110271680D01*
X102774759Y-110114637D01*
X102974637Y-109914759D01*
X103092187Y-109738833D01*
X103125714Y-109749003D01*
X103178053Y-109754158D01*
X103285363Y-109914759D01*
X103485241Y-110114637D01*
X103720273Y-110271680D01*
X103981426Y-110379853D01*
X104258665Y-110435000D01*
X104541335Y-110435000D01*
X104818574Y-110379853D01*
X105079727Y-110271680D01*
X105314759Y-110114637D01*
X105514637Y-109914759D01*
X105621947Y-109754158D01*
X105674286Y-109749003D01*
X105707813Y-109738833D01*
X105825363Y-109914759D01*
X106025241Y-110114637D01*
X106260273Y-110271680D01*
X106521426Y-110379853D01*
X106798665Y-110435000D01*
X107081335Y-110435000D01*
X107358574Y-110379853D01*
X107619727Y-110271680D01*
X107854759Y-110114637D01*
X108054637Y-109914759D01*
X108210000Y-109682241D01*
X108365363Y-109914759D01*
X108565241Y-110114637D01*
X108800273Y-110271680D01*
X109061426Y-110379853D01*
X109338665Y-110435000D01*
X109621335Y-110435000D01*
X109898574Y-110379853D01*
X110159727Y-110271680D01*
X110394759Y-110114637D01*
X110594637Y-109914759D01*
X110750000Y-109682241D01*
X110905363Y-109914759D01*
X111105241Y-110114637D01*
X111340273Y-110271680D01*
X111601426Y-110379853D01*
X111878665Y-110435000D01*
X112161335Y-110435000D01*
X112438574Y-110379853D01*
X112699727Y-110271680D01*
X112934759Y-110114637D01*
X113134637Y-109914759D01*
X113290000Y-109682241D01*
X113445363Y-109914759D01*
X113645241Y-110114637D01*
X113880273Y-110271680D01*
X114141426Y-110379853D01*
X114418665Y-110435000D01*
X114701335Y-110435000D01*
X114978574Y-110379853D01*
X115239727Y-110271680D01*
X115474759Y-110114637D01*
X115674637Y-109914759D01*
X115781947Y-109754158D01*
X115834286Y-109749003D01*
X115977547Y-109705546D01*
X116109576Y-109634974D01*
X116225301Y-109540001D01*
X116249104Y-109510997D01*
X119675402Y-106084700D01*
X146588149Y-106084700D01*
X146459296Y-106349571D01*
X146377616Y-106661108D01*
X146358282Y-106982595D01*
X146402039Y-107301675D01*
X146507205Y-107606088D01*
X146600186Y-107780044D01*
X146864587Y-107875808D01*
X147820395Y-106920000D01*
X147806253Y-106905858D01*
X147985858Y-106726253D01*
X148000000Y-106740395D01*
X148014143Y-106726253D01*
X148193748Y-106905858D01*
X148179605Y-106920000D01*
X149135413Y-107875808D01*
X149399814Y-107780044D01*
X149540704Y-107490429D01*
X149622384Y-107178892D01*
X149641718Y-106857405D01*
X149597961Y-106538325D01*
X149492795Y-106233912D01*
X149413040Y-106084700D01*
X158499159Y-106084700D01*
X158461487Y-106208889D01*
X158432815Y-106500000D01*
X158461487Y-106791111D01*
X158546401Y-107071034D01*
X158684294Y-107329014D01*
X158869866Y-107555134D01*
X158933337Y-107607223D01*
X158831614Y-107661595D01*
X158697038Y-107772038D01*
X158586595Y-107906614D01*
X158504528Y-108060150D01*
X158453992Y-108226746D01*
X158436928Y-108400000D01*
X158436928Y-109600000D01*
X158453992Y-109773254D01*
X158504528Y-109939850D01*
X158586595Y-110093386D01*
X158697038Y-110227962D01*
X158831614Y-110338405D01*
X158985150Y-110420472D01*
X159151746Y-110471008D01*
X159325000Y-110488072D01*
X160675000Y-110488072D01*
X160848254Y-110471008D01*
X161014850Y-110420472D01*
X161168386Y-110338405D01*
X161302962Y-110227962D01*
X161413405Y-110093386D01*
X161495472Y-109939850D01*
X161546008Y-109773254D01*
X161563072Y-109600000D01*
X161563072Y-108400000D01*
X161546008Y-108226746D01*
X161495472Y-108060150D01*
X161413405Y-107906614D01*
X161302962Y-107772038D01*
X161168386Y-107661595D01*
X161066663Y-107607223D01*
X161130134Y-107555134D01*
X161315706Y-107329014D01*
X161453599Y-107071034D01*
X161538513Y-106791111D01*
X161550215Y-106672300D01*
X172677000Y-106672300D01*
X172677001Y-107550368D01*
X172673324Y-107587700D01*
X172677001Y-107625033D01*
X172687998Y-107736686D01*
X172691677Y-107748815D01*
X172731454Y-107879946D01*
X172802026Y-108011976D01*
X172862154Y-108085241D01*
X172897000Y-108127701D01*
X172925998Y-108151499D01*
X175987968Y-111213469D01*
X175891576Y-111292576D01*
X175696631Y-111530118D01*
X175551774Y-111801126D01*
X175462572Y-112095188D01*
X175440000Y-112324365D01*
X175440000Y-113675636D01*
X175462572Y-113904813D01*
X175551774Y-114198875D01*
X175696632Y-114469883D01*
X175891577Y-114707424D01*
X176129118Y-114902369D01*
X176400126Y-115047226D01*
X176694188Y-115136428D01*
X177000000Y-115166548D01*
X177305813Y-115136428D01*
X177599875Y-115047226D01*
X177870883Y-114902369D01*
X178108424Y-114707424D01*
X178303369Y-114469883D01*
X178448226Y-114198875D01*
X178537428Y-113904813D01*
X178560000Y-113675636D01*
X178560000Y-112324365D01*
X180440000Y-112324365D01*
X180440000Y-113675636D01*
X180462572Y-113904813D01*
X180551774Y-114198875D01*
X180696632Y-114469883D01*
X180891577Y-114707424D01*
X181129118Y-114902369D01*
X181400126Y-115047226D01*
X181694188Y-115136428D01*
X182000000Y-115166548D01*
X182305813Y-115136428D01*
X182599875Y-115047226D01*
X182870883Y-114902369D01*
X183108424Y-114707424D01*
X183303369Y-114469883D01*
X183448226Y-114198875D01*
X183537428Y-113904813D01*
X183560000Y-113675636D01*
X183560000Y-112324364D01*
X183537428Y-112095187D01*
X183448226Y-111801125D01*
X183303369Y-111530117D01*
X183108424Y-111292576D01*
X182870882Y-111097631D01*
X182599874Y-110952774D01*
X182305812Y-110863572D01*
X182000000Y-110833452D01*
X181694187Y-110863572D01*
X181400125Y-110952774D01*
X181129117Y-111097631D01*
X180891576Y-111292576D01*
X180696631Y-111530118D01*
X180551774Y-111801126D01*
X180462572Y-112095188D01*
X180440000Y-112324365D01*
X178560000Y-112324365D01*
X178560000Y-112324364D01*
X178537428Y-112095187D01*
X178448226Y-111801125D01*
X178303369Y-111530117D01*
X178108424Y-111292576D01*
X177870882Y-111097631D01*
X177752202Y-111034195D01*
X177749003Y-111001714D01*
X177705546Y-110858453D01*
X177634974Y-110726423D01*
X177563799Y-110639697D01*
X177540001Y-110610699D01*
X177511003Y-110586901D01*
X174197000Y-107272899D01*
X174197000Y-106227101D01*
X177511003Y-102913099D01*
X177540001Y-102889301D01*
X177575928Y-102845524D01*
X177634974Y-102773577D01*
X177705546Y-102641547D01*
X177707585Y-102634826D01*
X177749003Y-102498286D01*
X177752202Y-102465805D01*
X177870883Y-102402369D01*
X178108424Y-102207424D01*
X178303369Y-101969883D01*
X178448226Y-101698875D01*
X178537428Y-101404813D01*
X178560000Y-101175636D01*
X178560000Y-99824365D01*
X180440000Y-99824365D01*
X180440000Y-101175636D01*
X180462572Y-101404813D01*
X180551774Y-101698875D01*
X180696632Y-101969883D01*
X180891577Y-102207424D01*
X181129118Y-102402369D01*
X181400126Y-102547226D01*
X181694188Y-102636428D01*
X182000000Y-102666548D01*
X182305813Y-102636428D01*
X182599875Y-102547226D01*
X182870883Y-102402369D01*
X183108424Y-102207424D01*
X183303369Y-101969883D01*
X183448226Y-101698875D01*
X183537428Y-101404813D01*
X183560000Y-101175636D01*
X183560000Y-99824364D01*
X183537428Y-99595187D01*
X183448226Y-99301125D01*
X183303369Y-99030117D01*
X183108424Y-98792576D01*
X182870882Y-98597631D01*
X182599874Y-98452774D01*
X182305812Y-98363572D01*
X182000000Y-98333452D01*
X181694187Y-98363572D01*
X181400125Y-98452774D01*
X181129117Y-98597631D01*
X180891576Y-98792576D01*
X180696631Y-99030118D01*
X180551774Y-99301126D01*
X180462572Y-99595188D01*
X180440000Y-99824365D01*
X178560000Y-99824365D01*
X178560000Y-99824364D01*
X178537428Y-99595187D01*
X178448226Y-99301125D01*
X178303369Y-99030117D01*
X178108424Y-98792576D01*
X177870882Y-98597631D01*
X177599874Y-98452774D01*
X177305812Y-98363572D01*
X177000000Y-98333452D01*
X176694187Y-98363572D01*
X176400125Y-98452774D01*
X176129117Y-98597631D01*
X175891576Y-98792576D01*
X175696631Y-99030118D01*
X175551774Y-99301126D01*
X175462572Y-99595188D01*
X175440000Y-99824365D01*
X175440000Y-101175636D01*
X175462572Y-101404813D01*
X175551774Y-101698875D01*
X175696632Y-101969883D01*
X175891577Y-102207424D01*
X175987968Y-102286530D01*
X173122199Y-105152300D01*
X160741901Y-105152300D01*
X160705546Y-105032453D01*
X160634974Y-104900424D01*
X160540001Y-104784699D01*
X160424276Y-104689726D01*
X160292247Y-104619154D01*
X160148986Y-104575697D01*
X160037333Y-104564700D01*
X160000000Y-104561023D01*
X159962667Y-104564700D01*
X119397922Y-104564700D01*
X119360599Y-104561024D01*
X119323276Y-104564700D01*
X119323267Y-104564700D01*
X119211614Y-104575697D01*
X119068353Y-104619154D01*
X118936323Y-104689726D01*
X118852683Y-104758368D01*
X118820599Y-104784699D01*
X118796801Y-104813697D01*
X115599947Y-108010551D01*
X115474759Y-107885363D01*
X115239727Y-107728320D01*
X114978574Y-107620147D01*
X114701335Y-107565000D01*
X114418665Y-107565000D01*
X114141426Y-107620147D01*
X113880273Y-107728320D01*
X113645241Y-107885363D01*
X113445363Y-108085241D01*
X113290000Y-108317759D01*
X113134637Y-108085241D01*
X112934759Y-107885363D01*
X112699727Y-107728320D01*
X112438574Y-107620147D01*
X112161335Y-107565000D01*
X111878665Y-107565000D01*
X111601426Y-107620147D01*
X111340273Y-107728320D01*
X111105241Y-107885363D01*
X110905363Y-108085241D01*
X110750000Y-108317759D01*
X110594637Y-108085241D01*
X110394759Y-107885363D01*
X110159727Y-107728320D01*
X109898574Y-107620147D01*
X109621335Y-107565000D01*
X109338665Y-107565000D01*
X109061426Y-107620147D01*
X108800273Y-107728320D01*
X108565241Y-107885363D01*
X108365363Y-108085241D01*
X108210000Y-108317759D01*
X108054637Y-108085241D01*
X107854759Y-107885363D01*
X107619727Y-107728320D01*
X107599047Y-107719754D01*
X111289002Y-104029800D01*
X151795978Y-104029800D01*
X151833300Y-104033476D01*
X151870622Y-104029800D01*
X151870633Y-104029800D01*
X151982286Y-104018803D01*
X152125547Y-103975346D01*
X152257576Y-103904774D01*
X152373301Y-103809801D01*
X152397104Y-103780797D01*
X161580302Y-94597600D01*
X175440000Y-94597600D01*
X175440000Y-94675636D01*
X175462572Y-94904813D01*
X175551774Y-95198875D01*
X175696632Y-95469883D01*
X175891577Y-95707424D01*
X176129118Y-95902369D01*
X176400126Y-96047226D01*
X176694188Y-96136428D01*
X177000000Y-96166548D01*
X177305813Y-96136428D01*
X177599875Y-96047226D01*
X177870883Y-95902369D01*
X178108424Y-95707424D01*
X178303369Y-95469883D01*
X178448226Y-95198875D01*
X178537428Y-94904813D01*
X178560000Y-94675636D01*
X178560000Y-93324365D01*
X180440000Y-93324365D01*
X180440000Y-94675636D01*
X180462572Y-94904813D01*
X180551774Y-95198875D01*
X180696632Y-95469883D01*
X180891577Y-95707424D01*
X181129118Y-95902369D01*
X181400126Y-96047226D01*
X181694188Y-96136428D01*
X182000000Y-96166548D01*
X182305813Y-96136428D01*
X182599875Y-96047226D01*
X182870883Y-95902369D01*
X183108424Y-95707424D01*
X183303369Y-95469883D01*
X183448226Y-95198875D01*
X183537428Y-94904813D01*
X183560000Y-94675636D01*
X183560000Y-93324364D01*
X183537428Y-93095187D01*
X183448226Y-92801125D01*
X183303369Y-92530117D01*
X183108424Y-92292576D01*
X182870882Y-92097631D01*
X182599874Y-91952774D01*
X182305812Y-91863572D01*
X182000000Y-91833452D01*
X181694187Y-91863572D01*
X181400125Y-91952774D01*
X181129117Y-92097631D01*
X180891576Y-92292576D01*
X180696631Y-92530118D01*
X180551774Y-92801126D01*
X180462572Y-93095188D01*
X180440000Y-93324365D01*
X178560000Y-93324365D01*
X178560000Y-93324364D01*
X178537428Y-93095187D01*
X178448226Y-92801125D01*
X178303369Y-92530117D01*
X178108424Y-92292576D01*
X177870882Y-92097631D01*
X177599874Y-91952774D01*
X177597600Y-91952084D01*
X177597600Y-83819116D01*
X177634974Y-83773576D01*
X177705546Y-83641547D01*
X177749003Y-83498286D01*
X177752202Y-83465805D01*
X177870883Y-83402369D01*
X178108424Y-83207424D01*
X178303369Y-82969883D01*
X178448226Y-82698875D01*
X178537428Y-82404813D01*
X178560000Y-82175636D01*
X178560000Y-80824365D01*
X180440000Y-80824365D01*
X180440000Y-82175636D01*
X180462572Y-82404813D01*
X180551774Y-82698875D01*
X180696632Y-82969883D01*
X180891577Y-83207424D01*
X181129118Y-83402369D01*
X181400126Y-83547226D01*
X181694188Y-83636428D01*
X182000000Y-83666548D01*
X182305813Y-83636428D01*
X182599875Y-83547226D01*
X182870883Y-83402369D01*
X183108424Y-83207424D01*
X183303369Y-82969883D01*
X183448226Y-82698875D01*
X183537428Y-82404813D01*
X183560000Y-82175636D01*
X183560000Y-80824364D01*
X183537428Y-80595187D01*
X183448226Y-80301125D01*
X183303369Y-80030117D01*
X183108424Y-79792576D01*
X182870882Y-79597631D01*
X182599874Y-79452774D01*
X182305812Y-79363572D01*
X182000000Y-79333452D01*
X181694187Y-79363572D01*
X181400125Y-79452774D01*
X181129117Y-79597631D01*
X180891576Y-79792576D01*
X180696631Y-80030118D01*
X180551774Y-80301126D01*
X180462572Y-80595188D01*
X180440000Y-80824365D01*
X178560000Y-80824365D01*
X178560000Y-80824364D01*
X178537428Y-80595187D01*
X178448226Y-80301125D01*
X178303369Y-80030117D01*
X178108424Y-79792576D01*
X177870882Y-79597631D01*
X177599874Y-79452774D01*
X177305812Y-79363572D01*
X177000000Y-79333452D01*
X176694187Y-79363572D01*
X176400125Y-79452774D01*
X176129117Y-79597631D01*
X175891576Y-79792576D01*
X175696631Y-80030118D01*
X175551774Y-80301126D01*
X175462572Y-80595188D01*
X175440000Y-80824365D01*
X175440000Y-82175636D01*
X175462572Y-82404813D01*
X175551774Y-82698875D01*
X175696632Y-82969883D01*
X175891577Y-83207424D01*
X176088014Y-83368636D01*
X176077600Y-83474368D01*
X176077600Y-83474378D01*
X176073924Y-83511700D01*
X176077600Y-83549022D01*
X176077601Y-92139909D01*
X175891576Y-92292576D01*
X175696631Y-92530118D01*
X175551774Y-92801126D01*
X175467907Y-93077600D01*
X162025500Y-93077600D01*
X162025500Y-92187122D01*
X162029176Y-92149799D01*
X162025500Y-92112476D01*
X162025500Y-92112467D01*
X162014503Y-92000814D01*
X161971046Y-91857553D01*
X161900474Y-91725524D01*
X161805501Y-91609799D01*
X161776498Y-91585997D01*
X161386698Y-91196197D01*
X161453599Y-91071034D01*
X161538513Y-90791111D01*
X161567185Y-90500000D01*
X161538513Y-90208889D01*
X161453599Y-89928966D01*
X161315706Y-89670986D01*
X161130134Y-89444866D01*
X160904014Y-89259294D01*
X160646034Y-89121401D01*
X160366111Y-89036487D01*
X160147950Y-89015000D01*
X159852050Y-89015000D01*
X159633889Y-89036487D01*
X159353966Y-89121401D01*
X159095986Y-89259294D01*
X158869866Y-89444866D01*
X158684294Y-89670986D01*
X158546401Y-89928966D01*
X158461487Y-90208889D01*
X158445546Y-90370744D01*
X158155004Y-90080203D01*
X158131201Y-90051199D01*
X158015476Y-89956226D01*
X157883447Y-89885654D01*
X157740186Y-89842197D01*
X157628533Y-89831200D01*
X157628522Y-89831200D01*
X157591200Y-89827524D01*
X157553878Y-89831200D01*
X116070125Y-89831200D01*
X116032800Y-89827524D01*
X115995475Y-89831200D01*
X115995467Y-89831200D01*
X115883814Y-89842197D01*
X115740553Y-89885654D01*
X115608524Y-89956226D01*
X115492799Y-90051199D01*
X115469001Y-90080197D01*
X112916222Y-92632977D01*
X112699727Y-92488320D01*
X112438574Y-92380147D01*
X112161335Y-92325000D01*
X111878665Y-92325000D01*
X111601426Y-92380147D01*
X111340273Y-92488320D01*
X111105241Y-92645363D01*
X110905363Y-92845241D01*
X110750000Y-93077759D01*
X110594637Y-92845241D01*
X110394759Y-92645363D01*
X110159727Y-92488320D01*
X109898574Y-92380147D01*
X109621335Y-92325000D01*
X109338665Y-92325000D01*
X109061426Y-92380147D01*
X108800273Y-92488320D01*
X108565241Y-92645363D01*
X108365363Y-92845241D01*
X108210000Y-93077759D01*
X108054637Y-92845241D01*
X107854759Y-92645363D01*
X107619727Y-92488320D01*
X107358574Y-92380147D01*
X107081335Y-92325000D01*
X106798665Y-92325000D01*
X106521426Y-92380147D01*
X106260273Y-92488320D01*
X106025241Y-92645363D01*
X105825363Y-92845241D01*
X105670000Y-93077759D01*
X105514637Y-92845241D01*
X105314759Y-92645363D01*
X105079727Y-92488320D01*
X104818574Y-92380147D01*
X104541335Y-92325000D01*
X104258665Y-92325000D01*
X103981426Y-92380147D01*
X103720273Y-92488320D01*
X103485241Y-92645363D01*
X103285363Y-92845241D01*
X103130000Y-93077759D01*
X102974637Y-92845241D01*
X102774759Y-92645363D01*
X102539727Y-92488320D01*
X102278574Y-92380147D01*
X102001335Y-92325000D01*
X101718665Y-92325000D01*
X101441426Y-92380147D01*
X101180273Y-92488320D01*
X100945241Y-92645363D01*
X100745363Y-92845241D01*
X100590000Y-93077759D01*
X100434637Y-92845241D01*
X100234759Y-92645363D01*
X99999727Y-92488320D01*
X99738574Y-92380147D01*
X99461335Y-92325000D01*
X99178665Y-92325000D01*
X98901426Y-92380147D01*
X98640273Y-92488320D01*
X98405241Y-92645363D01*
X98205363Y-92845241D01*
X98050000Y-93077759D01*
X97894637Y-92845241D01*
X97694759Y-92645363D01*
X97459727Y-92488320D01*
X97198574Y-92380147D01*
X96921335Y-92325000D01*
X96638665Y-92325000D01*
X96361426Y-92380147D01*
X96100273Y-92488320D01*
X95865241Y-92645363D01*
X95665363Y-92845241D01*
X95510000Y-93077759D01*
X95354637Y-92845241D01*
X95154759Y-92645363D01*
X94919727Y-92488320D01*
X94658574Y-92380147D01*
X94381335Y-92325000D01*
X94098665Y-92325000D01*
X93821426Y-92380147D01*
X93560273Y-92488320D01*
X93325241Y-92645363D01*
X93125363Y-92845241D01*
X92970000Y-93077759D01*
X92814637Y-92845241D01*
X92614759Y-92645363D01*
X92379727Y-92488320D01*
X92118574Y-92380147D01*
X91841335Y-92325000D01*
X91558665Y-92325000D01*
X91281426Y-92380147D01*
X91020273Y-92488320D01*
X90785241Y-92645363D01*
X90585363Y-92845241D01*
X90430000Y-93077759D01*
X90274637Y-92845241D01*
X90074759Y-92645363D01*
X89839727Y-92488320D01*
X89578574Y-92380147D01*
X89301335Y-92325000D01*
X89018665Y-92325000D01*
X88741426Y-92380147D01*
X88480273Y-92488320D01*
X88245241Y-92645363D01*
X88045363Y-92845241D01*
X87890000Y-93077759D01*
X87734637Y-92845241D01*
X87534759Y-92645363D01*
X87299727Y-92488320D01*
X87038574Y-92380147D01*
X86761335Y-92325000D01*
X86478665Y-92325000D01*
X86201426Y-92380147D01*
X85940273Y-92488320D01*
X85705241Y-92645363D01*
X85505363Y-92845241D01*
X85350000Y-93077759D01*
X85194637Y-92845241D01*
X84994759Y-92645363D01*
X84759727Y-92488320D01*
X84498574Y-92380147D01*
X84221335Y-92325000D01*
X83938665Y-92325000D01*
X83661426Y-92380147D01*
X83400273Y-92488320D01*
X83165241Y-92645363D01*
X82965363Y-92845241D01*
X82808320Y-93080273D01*
X82803933Y-93090865D01*
X82692385Y-92904869D01*
X82503414Y-92696481D01*
X82277420Y-92528963D01*
X82023087Y-92408754D01*
X81889039Y-92368096D01*
X81667000Y-92490085D01*
X81667000Y-93633000D01*
X81687000Y-93633000D01*
X81687000Y-93887000D01*
X81667000Y-93887000D01*
X81667000Y-95029915D01*
X81889039Y-95151904D01*
X82023087Y-95111246D01*
X82277420Y-94991037D01*
X82503414Y-94823519D01*
X82692385Y-94615131D01*
X82803933Y-94429135D01*
X82808320Y-94439727D01*
X82965363Y-94674759D01*
X83165241Y-94874637D01*
X83400273Y-95031680D01*
X83661426Y-95139853D01*
X83938665Y-95195000D01*
X84221335Y-95195000D01*
X84498574Y-95139853D01*
X84759727Y-95031680D01*
X84994759Y-94874637D01*
X85194637Y-94674759D01*
X85350000Y-94442241D01*
X85505363Y-94674759D01*
X85705241Y-94874637D01*
X85940273Y-95031680D01*
X86201426Y-95139853D01*
X86478665Y-95195000D01*
X86761335Y-95195000D01*
X87038574Y-95139853D01*
X87299727Y-95031680D01*
X87534759Y-94874637D01*
X87734637Y-94674759D01*
X87890000Y-94442241D01*
X88045363Y-94674759D01*
X88245241Y-94874637D01*
X88480273Y-95031680D01*
X88741426Y-95139853D01*
X89018665Y-95195000D01*
X89301335Y-95195000D01*
X89578574Y-95139853D01*
X89839727Y-95031680D01*
X90074759Y-94874637D01*
X90274637Y-94674759D01*
X90430000Y-94442241D01*
X90585363Y-94674759D01*
X90785241Y-94874637D01*
X91020273Y-95031680D01*
X91281426Y-95139853D01*
X91558665Y-95195000D01*
X91841335Y-95195000D01*
X92118574Y-95139853D01*
X92379727Y-95031680D01*
X92614759Y-94874637D01*
X92814637Y-94674759D01*
X92970000Y-94442241D01*
X93125363Y-94674759D01*
X93325241Y-94874637D01*
X93560273Y-95031680D01*
X93821426Y-95139853D01*
X94098665Y-95195000D01*
X94381335Y-95195000D01*
X94658574Y-95139853D01*
X94919727Y-95031680D01*
X95154759Y-94874637D01*
X95354637Y-94674759D01*
X95510000Y-94442241D01*
X95665363Y-94674759D01*
X95865241Y-94874637D01*
X96100273Y-95031680D01*
X96361426Y-95139853D01*
X96638665Y-95195000D01*
X96921335Y-95195000D01*
X97198574Y-95139853D01*
X97459727Y-95031680D01*
X97694759Y-94874637D01*
X97894637Y-94674759D01*
X98050000Y-94442241D01*
X98205363Y-94674759D01*
X98405241Y-94874637D01*
X98640273Y-95031680D01*
X98901426Y-95139853D01*
X99178665Y-95195000D01*
X99461335Y-95195000D01*
X99738574Y-95139853D01*
X99999727Y-95031680D01*
X100234759Y-94874637D01*
X100434637Y-94674759D01*
X100590000Y-94442241D01*
X100745363Y-94674759D01*
X100945241Y-94874637D01*
X101180273Y-95031680D01*
X101441426Y-95139853D01*
X101718665Y-95195000D01*
X102001335Y-95195000D01*
X102278574Y-95139853D01*
X102539727Y-95031680D01*
X102774759Y-94874637D01*
X102974637Y-94674759D01*
X103130000Y-94442241D01*
X103285363Y-94674759D01*
X103485241Y-94874637D01*
X103720273Y-95031680D01*
X103981426Y-95139853D01*
X104258665Y-95195000D01*
X104541335Y-95195000D01*
X104818574Y-95139853D01*
X105079727Y-95031680D01*
X105314759Y-94874637D01*
X105514637Y-94674759D01*
X105670000Y-94442241D01*
X105825363Y-94674759D01*
X106025241Y-94874637D01*
X106260273Y-95031680D01*
X106521426Y-95139853D01*
X106798665Y-95195000D01*
X107081335Y-95195000D01*
X107358574Y-95139853D01*
X107619727Y-95031680D01*
X107854759Y-94874637D01*
X108054637Y-94674759D01*
X108210000Y-94442241D01*
X108365363Y-94674759D01*
X108565241Y-94874637D01*
X108800273Y-95031680D01*
X109061426Y-95139853D01*
X109338665Y-95195000D01*
X109621335Y-95195000D01*
X109898574Y-95139853D01*
X110159727Y-95031680D01*
X110394759Y-94874637D01*
X110594637Y-94674759D01*
X110750000Y-94442241D01*
X110905363Y-94674759D01*
X111105241Y-94874637D01*
X111340273Y-95031680D01*
X111601426Y-95139853D01*
X111878665Y-95195000D01*
X112161335Y-95195000D01*
X112438574Y-95139853D01*
X112699727Y-95031680D01*
X112934759Y-94874637D01*
X113134637Y-94674759D01*
X113241947Y-94514158D01*
X113294286Y-94509003D01*
X113327813Y-94498833D01*
X113445363Y-94674759D01*
X113645241Y-94874637D01*
X113880273Y-95031680D01*
X114141426Y-95139853D01*
X114418665Y-95195000D01*
X114701335Y-95195000D01*
X114978574Y-95139853D01*
X115239727Y-95031680D01*
X115474759Y-94874637D01*
X115674637Y-94674759D01*
X115831680Y-94439727D01*
X115939853Y-94178574D01*
X115995000Y-93901335D01*
X115995000Y-93618665D01*
X115939853Y-93341426D01*
X115831680Y-93080273D01*
X115674637Y-92845241D01*
X115474759Y-92645363D01*
X115239727Y-92488320D01*
X115219047Y-92479754D01*
X116347602Y-91351200D01*
X146458869Y-91351200D01*
X146377616Y-91661108D01*
X146358282Y-91982595D01*
X146402039Y-92301675D01*
X146507205Y-92606088D01*
X146600186Y-92780044D01*
X146864587Y-92875808D01*
X147820395Y-91920000D01*
X147806253Y-91905858D01*
X147985858Y-91726253D01*
X148000000Y-91740395D01*
X148014143Y-91726253D01*
X148193748Y-91905858D01*
X148179605Y-91920000D01*
X149135413Y-92875808D01*
X149399814Y-92780044D01*
X149540704Y-92490429D01*
X149622384Y-92178892D01*
X149641718Y-91857405D01*
X149597961Y-91538325D01*
X149533315Y-91351200D01*
X157276399Y-91351200D01*
X158436928Y-92511730D01*
X158436928Y-93600000D01*
X158453992Y-93773254D01*
X158504528Y-93939850D01*
X158586595Y-94093386D01*
X158697038Y-94227962D01*
X158831614Y-94338405D01*
X158985150Y-94420472D01*
X159151746Y-94471008D01*
X159325000Y-94488072D01*
X159540226Y-94488072D01*
X151518499Y-102509800D01*
X111011522Y-102509800D01*
X110974199Y-102506124D01*
X110936876Y-102509800D01*
X110936867Y-102509800D01*
X110825214Y-102520797D01*
X110681953Y-102564254D01*
X110549924Y-102634826D01*
X110434199Y-102729799D01*
X110410401Y-102758797D01*
X105296222Y-107872977D01*
X105079727Y-107728320D01*
X104818574Y-107620147D01*
X104541335Y-107565000D01*
X104258665Y-107565000D01*
X103981426Y-107620147D01*
X103720273Y-107728320D01*
X103503778Y-107872977D01*
X102981003Y-107350202D01*
X102957201Y-107321199D01*
X102841476Y-107226226D01*
X102709447Y-107155654D01*
X102566186Y-107112197D01*
X102454533Y-107101200D01*
X102454522Y-107101200D01*
X102417200Y-107097524D01*
X102379878Y-107101200D01*
X96361422Y-107101200D01*
X96324099Y-107097524D01*
X96286776Y-107101200D01*
X96286767Y-107101200D01*
X96175114Y-107112197D01*
X96031853Y-107155654D01*
X95899824Y-107226226D01*
X95784099Y-107321199D01*
X95760301Y-107350198D01*
X95189947Y-107920551D01*
X95154759Y-107885363D01*
X94919727Y-107728320D01*
X94899047Y-107719754D01*
X104858803Y-97760000D01*
X146361928Y-97760000D01*
X146361928Y-98000000D01*
X146374188Y-98124482D01*
X146410498Y-98244180D01*
X146469463Y-98354494D01*
X146548815Y-98451185D01*
X146645506Y-98530537D01*
X146755820Y-98589502D01*
X146875518Y-98625812D01*
X147000000Y-98638072D01*
X149000000Y-98638072D01*
X149124482Y-98625812D01*
X149244180Y-98589502D01*
X149354494Y-98530537D01*
X149451185Y-98451185D01*
X149530537Y-98354494D01*
X149589502Y-98244180D01*
X149625812Y-98124482D01*
X149638072Y-98000000D01*
X149638072Y-96000000D01*
X149625812Y-95875518D01*
X149589502Y-95755820D01*
X149530537Y-95645506D01*
X149451185Y-95548815D01*
X149354494Y-95469463D01*
X149308370Y-95444809D01*
X149448918Y-95234463D01*
X149572168Y-94936912D01*
X149635000Y-94621033D01*
X149635000Y-94298967D01*
X149572168Y-93983088D01*
X149448918Y-93685537D01*
X149269987Y-93417748D01*
X149042252Y-93190013D01*
X148933400Y-93117280D01*
X148955808Y-93055413D01*
X148000000Y-92099605D01*
X147044192Y-93055413D01*
X147066600Y-93117280D01*
X146957748Y-93190013D01*
X146730013Y-93417748D01*
X146551082Y-93685537D01*
X146427832Y-93983088D01*
X146365000Y-94298967D01*
X146365000Y-94621033D01*
X146427832Y-94936912D01*
X146551082Y-95234463D01*
X146691630Y-95444809D01*
X146645506Y-95469463D01*
X146548815Y-95548815D01*
X146469463Y-95645506D01*
X146410498Y-95755820D01*
X146374188Y-95875518D01*
X146361928Y-96000000D01*
X146361928Y-96240000D01*
X104581322Y-96240000D01*
X104543999Y-96236324D01*
X104506676Y-96240000D01*
X104506667Y-96240000D01*
X104395014Y-96250997D01*
X104251753Y-96294454D01*
X104119724Y-96365026D01*
X104119722Y-96365027D01*
X104119723Y-96365027D01*
X104032996Y-96436201D01*
X104032992Y-96436205D01*
X104003999Y-96459999D01*
X103980205Y-96488992D01*
X92596222Y-107872977D01*
X92379727Y-107728320D01*
X92118574Y-107620147D01*
X91841335Y-107565000D01*
X91558665Y-107565000D01*
X91281426Y-107620147D01*
X91020273Y-107728320D01*
X90785241Y-107885363D01*
X90585363Y-108085241D01*
X90430000Y-108317759D01*
X90274637Y-108085241D01*
X90074759Y-107885363D01*
X89839727Y-107728320D01*
X89578574Y-107620147D01*
X89301335Y-107565000D01*
X89018665Y-107565000D01*
X88741426Y-107620147D01*
X88480273Y-107728320D01*
X88245241Y-107885363D01*
X88045363Y-108085241D01*
X87888320Y-108320273D01*
X87883933Y-108330865D01*
X87772385Y-108144869D01*
X87583414Y-107936481D01*
X87357420Y-107768963D01*
X87103087Y-107648754D01*
X86969039Y-107608096D01*
X86747000Y-107730085D01*
X86747000Y-108873000D01*
X86767000Y-108873000D01*
X86767000Y-109127000D01*
X86747000Y-109127000D01*
X86747000Y-110269915D01*
X86969039Y-110391904D01*
X87103087Y-110351246D01*
X87357420Y-110231037D01*
X87583414Y-110063519D01*
X87772385Y-109855131D01*
X87883933Y-109669135D01*
X87888320Y-109679727D01*
X88045363Y-109914759D01*
X88245241Y-110114637D01*
X88480273Y-110271680D01*
X88741426Y-110379853D01*
X89018665Y-110435000D01*
X89301335Y-110435000D01*
X89578574Y-110379853D01*
X89839727Y-110271680D01*
X90074759Y-110114637D01*
X90274637Y-109914759D01*
X90430000Y-109682241D01*
X90585363Y-109914759D01*
X90785241Y-110114637D01*
X91020273Y-110271680D01*
X91281426Y-110379853D01*
X91558665Y-110435000D01*
X91841335Y-110435000D01*
X92118574Y-110379853D01*
X92379727Y-110271680D01*
X92614759Y-110114637D01*
X92814637Y-109914759D01*
X92921947Y-109754158D01*
X92974286Y-109749003D01*
X93007813Y-109738833D01*
X93125363Y-109914759D01*
X93325241Y-110114637D01*
X93560273Y-110271680D01*
X93562780Y-110272718D01*
X85595499Y-118240000D01*
X79218043Y-118240000D01*
X79114637Y-118085241D01*
X78914759Y-117885363D01*
X78679727Y-117728320D01*
X78418574Y-117620147D01*
X78141335Y-117565000D01*
X77858665Y-117565000D01*
X77581426Y-117620147D01*
X77320273Y-117728320D01*
X77085241Y-117885363D01*
X76885363Y-118085241D01*
X76728320Y-118320273D01*
X76620147Y-118581426D01*
X76565000Y-118858665D01*
X72517000Y-118858665D01*
X72517000Y-108200000D01*
X77561928Y-108200000D01*
X77561928Y-109800000D01*
X77574188Y-109924482D01*
X77610498Y-110044180D01*
X77669463Y-110154494D01*
X77748815Y-110251185D01*
X77845506Y-110330537D01*
X77955820Y-110389502D01*
X78075518Y-110425812D01*
X78200000Y-110438072D01*
X79800000Y-110438072D01*
X79924482Y-110425812D01*
X80044180Y-110389502D01*
X80154494Y-110330537D01*
X80251185Y-110251185D01*
X80330537Y-110154494D01*
X80389502Y-110044180D01*
X80425812Y-109924482D01*
X80426643Y-109916039D01*
X80625241Y-110114637D01*
X80860273Y-110271680D01*
X81121426Y-110379853D01*
X81398665Y-110435000D01*
X81681335Y-110435000D01*
X81958574Y-110379853D01*
X82219727Y-110271680D01*
X82454759Y-110114637D01*
X82654637Y-109914759D01*
X82810000Y-109682241D01*
X82965363Y-109914759D01*
X83165241Y-110114637D01*
X83400273Y-110271680D01*
X83661426Y-110379853D01*
X83938665Y-110435000D01*
X84221335Y-110435000D01*
X84498574Y-110379853D01*
X84759727Y-110271680D01*
X84994759Y-110114637D01*
X85194637Y-109914759D01*
X85351680Y-109679727D01*
X85356067Y-109669135D01*
X85467615Y-109855131D01*
X85656586Y-110063519D01*
X85882580Y-110231037D01*
X86136913Y-110351246D01*
X86270961Y-110391904D01*
X86493000Y-110269915D01*
X86493000Y-109127000D01*
X86473000Y-109127000D01*
X86473000Y-108873000D01*
X86493000Y-108873000D01*
X86493000Y-107730085D01*
X86270961Y-107608096D01*
X86136913Y-107648754D01*
X85882580Y-107768963D01*
X85656586Y-107936481D01*
X85467615Y-108144869D01*
X85356067Y-108330865D01*
X85351680Y-108320273D01*
X85194637Y-108085241D01*
X84994759Y-107885363D01*
X84759727Y-107728320D01*
X84498574Y-107620147D01*
X84221335Y-107565000D01*
X83938665Y-107565000D01*
X83661426Y-107620147D01*
X83400273Y-107728320D01*
X83165241Y-107885363D01*
X82965363Y-108085241D01*
X82810000Y-108317759D01*
X82654637Y-108085241D01*
X82454759Y-107885363D01*
X82219727Y-107728320D01*
X81958574Y-107620147D01*
X81681335Y-107565000D01*
X81398665Y-107565000D01*
X81121426Y-107620147D01*
X80860273Y-107728320D01*
X80625241Y-107885363D01*
X80426643Y-108083961D01*
X80425812Y-108075518D01*
X80389502Y-107955820D01*
X80330537Y-107845506D01*
X80251185Y-107748815D01*
X80154494Y-107669463D01*
X80044180Y-107610498D01*
X79924482Y-107574188D01*
X79800000Y-107561928D01*
X78200000Y-107561928D01*
X78075518Y-107574188D01*
X77955820Y-107610498D01*
X77845506Y-107669463D01*
X77748815Y-107748815D01*
X77669463Y-107845506D01*
X77610498Y-107955820D01*
X77574188Y-108075518D01*
X77561928Y-108200000D01*
X72517000Y-108200000D01*
X72517000Y-93618665D01*
X77565000Y-93618665D01*
X77565000Y-93901335D01*
X77620147Y-94178574D01*
X77728320Y-94439727D01*
X77885363Y-94674759D01*
X78085241Y-94874637D01*
X78320273Y-95031680D01*
X78581426Y-95139853D01*
X78858665Y-95195000D01*
X79141335Y-95195000D01*
X79418574Y-95139853D01*
X79679727Y-95031680D01*
X79914759Y-94874637D01*
X80114637Y-94674759D01*
X80271680Y-94439727D01*
X80276067Y-94429135D01*
X80387615Y-94615131D01*
X80576586Y-94823519D01*
X80802580Y-94991037D01*
X81056913Y-95111246D01*
X81190961Y-95151904D01*
X81413000Y-95029915D01*
X81413000Y-93887000D01*
X81393000Y-93887000D01*
X81393000Y-93633000D01*
X81413000Y-93633000D01*
X81413000Y-92490085D01*
X81190961Y-92368096D01*
X81056913Y-92408754D01*
X80802580Y-92528963D01*
X80576586Y-92696481D01*
X80387615Y-92904869D01*
X80276067Y-93090865D01*
X80271680Y-93080273D01*
X80114637Y-92845241D01*
X79914759Y-92645363D01*
X79679727Y-92488320D01*
X79418574Y-92380147D01*
X79141335Y-92325000D01*
X78858665Y-92325000D01*
X78581426Y-92380147D01*
X78320273Y-92488320D01*
X78085241Y-92645363D01*
X77885363Y-92845241D01*
X77728320Y-93080273D01*
X77620147Y-93341426D01*
X77565000Y-93618665D01*
X72517000Y-93618665D01*
X72517000Y-83127000D01*
X97025000Y-83127000D01*
X97025000Y-83577000D01*
X97077350Y-83854514D01*
X97182834Y-84116483D01*
X97337399Y-84352839D01*
X97535105Y-84554500D01*
X97768354Y-84713715D01*
X98028182Y-84824367D01*
X98110961Y-84841904D01*
X98333000Y-84719915D01*
X98333000Y-83127000D01*
X97025000Y-83127000D01*
X72517000Y-83127000D01*
X72517000Y-82423000D01*
X97025000Y-82423000D01*
X97025000Y-82873000D01*
X98333000Y-82873000D01*
X98333000Y-81280085D01*
X98587000Y-81280085D01*
X98587000Y-82873000D01*
X98607000Y-82873000D01*
X98607000Y-83127000D01*
X98587000Y-83127000D01*
X98587000Y-84719915D01*
X98809039Y-84841904D01*
X98891818Y-84824367D01*
X99151646Y-84713715D01*
X99384895Y-84554500D01*
X99582601Y-84352839D01*
X99732735Y-84123259D01*
X99801068Y-84251101D01*
X99980393Y-84469608D01*
X100198900Y-84648932D01*
X100448193Y-84782182D01*
X100718692Y-84864236D01*
X101000000Y-84891943D01*
X101281309Y-84864236D01*
X101551808Y-84782182D01*
X101801101Y-84648932D01*
X102019608Y-84469608D01*
X102198932Y-84251101D01*
X102332182Y-84001808D01*
X102414236Y-83731309D01*
X102435000Y-83520491D01*
X102435000Y-83127000D01*
X123025000Y-83127000D01*
X123025000Y-83577000D01*
X123077350Y-83854514D01*
X123182834Y-84116483D01*
X123337399Y-84352839D01*
X123535105Y-84554500D01*
X123768354Y-84713715D01*
X124028182Y-84824367D01*
X124110961Y-84841904D01*
X124333000Y-84719915D01*
X124333000Y-83127000D01*
X123025000Y-83127000D01*
X102435000Y-83127000D01*
X102435000Y-82479508D01*
X102429435Y-82423000D01*
X123025000Y-82423000D01*
X123025000Y-82873000D01*
X124333000Y-82873000D01*
X124333000Y-81280085D01*
X124587000Y-81280085D01*
X124587000Y-82873000D01*
X124607000Y-82873000D01*
X124607000Y-83127000D01*
X124587000Y-83127000D01*
X124587000Y-84719915D01*
X124809039Y-84841904D01*
X124891818Y-84824367D01*
X125151646Y-84713715D01*
X125384895Y-84554500D01*
X125582601Y-84352839D01*
X125732735Y-84123259D01*
X125801068Y-84251101D01*
X125980393Y-84469608D01*
X126198900Y-84648932D01*
X126448193Y-84782182D01*
X126718692Y-84864236D01*
X127000000Y-84891943D01*
X127281309Y-84864236D01*
X127551808Y-84782182D01*
X127801101Y-84648932D01*
X128019608Y-84469608D01*
X128198932Y-84251101D01*
X128332182Y-84001808D01*
X128414236Y-83731309D01*
X128435000Y-83520491D01*
X128435000Y-83127000D01*
X148025000Y-83127000D01*
X148025000Y-83577000D01*
X148077350Y-83854514D01*
X148182834Y-84116483D01*
X148337399Y-84352839D01*
X148535105Y-84554500D01*
X148768354Y-84713715D01*
X149028182Y-84824367D01*
X149110961Y-84841904D01*
X149333000Y-84719915D01*
X149333000Y-83127000D01*
X148025000Y-83127000D01*
X128435000Y-83127000D01*
X128435000Y-82479508D01*
X128429435Y-82423000D01*
X148025000Y-82423000D01*
X148025000Y-82873000D01*
X149333000Y-82873000D01*
X149333000Y-81280085D01*
X149587000Y-81280085D01*
X149587000Y-82873000D01*
X149607000Y-82873000D01*
X149607000Y-83127000D01*
X149587000Y-83127000D01*
X149587000Y-84719915D01*
X149809039Y-84841904D01*
X149891818Y-84824367D01*
X150151646Y-84713715D01*
X150384895Y-84554500D01*
X150582601Y-84352839D01*
X150732735Y-84123259D01*
X150801068Y-84251101D01*
X150980393Y-84469608D01*
X151198900Y-84648932D01*
X151448193Y-84782182D01*
X151718692Y-84864236D01*
X152000000Y-84891943D01*
X152281309Y-84864236D01*
X152551808Y-84782182D01*
X152801101Y-84648932D01*
X153019608Y-84469608D01*
X153198932Y-84251101D01*
X153332182Y-84001808D01*
X153414236Y-83731309D01*
X153435000Y-83520491D01*
X153435000Y-82479508D01*
X153414236Y-82268691D01*
X153332182Y-81998192D01*
X153198932Y-81748899D01*
X153019607Y-81530392D01*
X152801100Y-81351068D01*
X152551807Y-81217818D01*
X152281308Y-81135764D01*
X152000000Y-81108057D01*
X151718691Y-81135764D01*
X151448192Y-81217818D01*
X151198899Y-81351068D01*
X150980392Y-81530393D01*
X150801068Y-81748900D01*
X150732735Y-81876742D01*
X150582601Y-81647161D01*
X150384895Y-81445500D01*
X150151646Y-81286285D01*
X149891818Y-81175633D01*
X149809039Y-81158096D01*
X149587000Y-81280085D01*
X149333000Y-81280085D01*
X149110961Y-81158096D01*
X149028182Y-81175633D01*
X148768354Y-81286285D01*
X148535105Y-81445500D01*
X148337399Y-81647161D01*
X148182834Y-81883517D01*
X148077350Y-82145486D01*
X148025000Y-82423000D01*
X128429435Y-82423000D01*
X128414236Y-82268691D01*
X128332182Y-81998192D01*
X128198932Y-81748899D01*
X128019607Y-81530392D01*
X127801100Y-81351068D01*
X127551807Y-81217818D01*
X127281308Y-81135764D01*
X127000000Y-81108057D01*
X126718691Y-81135764D01*
X126448192Y-81217818D01*
X126198899Y-81351068D01*
X125980392Y-81530393D01*
X125801068Y-81748900D01*
X125732735Y-81876742D01*
X125582601Y-81647161D01*
X125384895Y-81445500D01*
X125151646Y-81286285D01*
X124891818Y-81175633D01*
X124809039Y-81158096D01*
X124587000Y-81280085D01*
X124333000Y-81280085D01*
X124110961Y-81158096D01*
X124028182Y-81175633D01*
X123768354Y-81286285D01*
X123535105Y-81445500D01*
X123337399Y-81647161D01*
X123182834Y-81883517D01*
X123077350Y-82145486D01*
X123025000Y-82423000D01*
X102429435Y-82423000D01*
X102414236Y-82268691D01*
X102332182Y-81998192D01*
X102198932Y-81748899D01*
X102019607Y-81530392D01*
X101801100Y-81351068D01*
X101551807Y-81217818D01*
X101281308Y-81135764D01*
X101000000Y-81108057D01*
X100718691Y-81135764D01*
X100448192Y-81217818D01*
X100198899Y-81351068D01*
X99980392Y-81530393D01*
X99801068Y-81748900D01*
X99732735Y-81876742D01*
X99582601Y-81647161D01*
X99384895Y-81445500D01*
X99151646Y-81286285D01*
X98891818Y-81175633D01*
X98809039Y-81158096D01*
X98587000Y-81280085D01*
X98333000Y-81280085D01*
X98110961Y-81158096D01*
X98028182Y-81175633D01*
X97768354Y-81286285D01*
X97535105Y-81445500D01*
X97337399Y-81647161D01*
X97182834Y-81883517D01*
X97077350Y-82145486D01*
X97025000Y-82423000D01*
X72517000Y-82423000D01*
X72517000Y-78867000D01*
X80010000Y-78867000D01*
X80034776Y-78864560D01*
X80058601Y-78857333D01*
X80080557Y-78845597D01*
X80099803Y-78829803D01*
X80115597Y-78810557D01*
X80127333Y-78788601D01*
X80134560Y-78764776D01*
X80137000Y-78740000D01*
X80137000Y-78047000D01*
X93535000Y-78047000D01*
X93535000Y-79797000D01*
X93605604Y-80259850D01*
X93765148Y-80700032D01*
X94007502Y-81100631D01*
X94323352Y-81446252D01*
X94700561Y-81723612D01*
X95124632Y-81922053D01*
X95421997Y-82002427D01*
X95793000Y-81892625D01*
X95793000Y-78047000D01*
X96047000Y-78047000D01*
X96047000Y-81892625D01*
X96418003Y-82002427D01*
X96715368Y-81922053D01*
X97139439Y-81723612D01*
X97516648Y-81446252D01*
X97832498Y-81100631D01*
X98074852Y-80700032D01*
X98234396Y-80259850D01*
X98305000Y-79797000D01*
X98305000Y-78047000D01*
X103695000Y-78047000D01*
X103695000Y-79797000D01*
X103765604Y-80259850D01*
X103925148Y-80700032D01*
X104167502Y-81100631D01*
X104483352Y-81446252D01*
X104860561Y-81723612D01*
X105284632Y-81922053D01*
X105581997Y-82002427D01*
X105953000Y-81892625D01*
X105953000Y-78047000D01*
X106207000Y-78047000D01*
X106207000Y-81892625D01*
X106578003Y-82002427D01*
X106875368Y-81922053D01*
X107299439Y-81723612D01*
X107676648Y-81446252D01*
X107992498Y-81100631D01*
X108234852Y-80700032D01*
X108394396Y-80259850D01*
X108465000Y-79797000D01*
X108465000Y-78047000D01*
X119535000Y-78047000D01*
X119535000Y-79797000D01*
X119605604Y-80259850D01*
X119765148Y-80700032D01*
X120007502Y-81100631D01*
X120323352Y-81446252D01*
X120700561Y-81723612D01*
X121124632Y-81922053D01*
X121421997Y-82002427D01*
X121793000Y-81892625D01*
X121793000Y-78047000D01*
X122047000Y-78047000D01*
X122047000Y-81892625D01*
X122418003Y-82002427D01*
X122715368Y-81922053D01*
X123139439Y-81723612D01*
X123516648Y-81446252D01*
X123832498Y-81100631D01*
X124074852Y-80700032D01*
X124234396Y-80259850D01*
X124305000Y-79797000D01*
X124305000Y-78047000D01*
X129695000Y-78047000D01*
X129695000Y-79797000D01*
X129765604Y-80259850D01*
X129925148Y-80700032D01*
X130167502Y-81100631D01*
X130483352Y-81446252D01*
X130860561Y-81723612D01*
X131284632Y-81922053D01*
X131581997Y-82002427D01*
X131953000Y-81892625D01*
X131953000Y-78047000D01*
X132207000Y-78047000D01*
X132207000Y-81892625D01*
X132578003Y-82002427D01*
X132875368Y-81922053D01*
X133299439Y-81723612D01*
X133676648Y-81446252D01*
X133992498Y-81100631D01*
X134234852Y-80700032D01*
X134394396Y-80259850D01*
X134465000Y-79797000D01*
X134465000Y-78047000D01*
X144535000Y-78047000D01*
X144535000Y-79797000D01*
X144605604Y-80259850D01*
X144765148Y-80700032D01*
X145007502Y-81100631D01*
X145323352Y-81446252D01*
X145700561Y-81723612D01*
X146124632Y-81922053D01*
X146421997Y-82002427D01*
X146793000Y-81892625D01*
X146793000Y-78047000D01*
X147047000Y-78047000D01*
X147047000Y-81892625D01*
X147418003Y-82002427D01*
X147715368Y-81922053D01*
X148139439Y-81723612D01*
X148516648Y-81446252D01*
X148832498Y-81100631D01*
X149074852Y-80700032D01*
X149234396Y-80259850D01*
X149305000Y-79797000D01*
X149305000Y-78047000D01*
X154695000Y-78047000D01*
X154695000Y-79797000D01*
X154765604Y-80259850D01*
X154925148Y-80700032D01*
X155167502Y-81100631D01*
X155483352Y-81446252D01*
X155860561Y-81723612D01*
X156284632Y-81922053D01*
X156581997Y-82002427D01*
X156953000Y-81892625D01*
X156953000Y-78047000D01*
X157207000Y-78047000D01*
X157207000Y-81892625D01*
X157578003Y-82002427D01*
X157875368Y-81922053D01*
X158299439Y-81723612D01*
X158676648Y-81446252D01*
X158992498Y-81100631D01*
X159234852Y-80700032D01*
X159394396Y-80259850D01*
X159465000Y-79797000D01*
X159465000Y-78047000D01*
X157207000Y-78047000D01*
X156953000Y-78047000D01*
X154695000Y-78047000D01*
X149305000Y-78047000D01*
X147047000Y-78047000D01*
X146793000Y-78047000D01*
X144535000Y-78047000D01*
X134465000Y-78047000D01*
X132207000Y-78047000D01*
X131953000Y-78047000D01*
X129695000Y-78047000D01*
X124305000Y-78047000D01*
X122047000Y-78047000D01*
X121793000Y-78047000D01*
X119535000Y-78047000D01*
X108465000Y-78047000D01*
X106207000Y-78047000D01*
X105953000Y-78047000D01*
X103695000Y-78047000D01*
X98305000Y-78047000D01*
X96047000Y-78047000D01*
X95793000Y-78047000D01*
X93535000Y-78047000D01*
X80137000Y-78047000D01*
X80137000Y-76043000D01*
X93535000Y-76043000D01*
X93535000Y-77793000D01*
X95793000Y-77793000D01*
X95793000Y-73947375D01*
X96047000Y-73947375D01*
X96047000Y-77793000D01*
X98305000Y-77793000D01*
X98305000Y-76043000D01*
X103695000Y-76043000D01*
X103695000Y-77793000D01*
X105953000Y-77793000D01*
X105953000Y-73947375D01*
X106207000Y-73947375D01*
X106207000Y-77793000D01*
X108465000Y-77793000D01*
X108465000Y-76043000D01*
X119535000Y-76043000D01*
X119535000Y-77793000D01*
X121793000Y-77793000D01*
X121793000Y-73947375D01*
X122047000Y-73947375D01*
X122047000Y-77793000D01*
X124305000Y-77793000D01*
X124305000Y-76043000D01*
X129695000Y-76043000D01*
X129695000Y-77793000D01*
X131953000Y-77793000D01*
X131953000Y-73947375D01*
X132207000Y-73947375D01*
X132207000Y-77793000D01*
X134465000Y-77793000D01*
X134465000Y-76043000D01*
X144535000Y-76043000D01*
X144535000Y-77793000D01*
X146793000Y-77793000D01*
X146793000Y-73947375D01*
X147047000Y-73947375D01*
X147047000Y-77793000D01*
X149305000Y-77793000D01*
X149305000Y-76043000D01*
X154695000Y-76043000D01*
X154695000Y-77793000D01*
X156953000Y-77793000D01*
X156953000Y-73947375D01*
X157207000Y-73947375D01*
X157207000Y-77793000D01*
X159465000Y-77793000D01*
X159465000Y-76043000D01*
X159394396Y-75580150D01*
X159234852Y-75139968D01*
X158992498Y-74739369D01*
X158676648Y-74393748D01*
X158299439Y-74116388D01*
X157875368Y-73917947D01*
X157578003Y-73837573D01*
X157207000Y-73947375D01*
X156953000Y-73947375D01*
X156581997Y-73837573D01*
X156284632Y-73917947D01*
X155860561Y-74116388D01*
X155483352Y-74393748D01*
X155167502Y-74739369D01*
X154925148Y-75139968D01*
X154765604Y-75580150D01*
X154695000Y-76043000D01*
X149305000Y-76043000D01*
X149234396Y-75580150D01*
X149074852Y-75139968D01*
X148832498Y-74739369D01*
X148516648Y-74393748D01*
X148139439Y-74116388D01*
X147715368Y-73917947D01*
X147418003Y-73837573D01*
X147047000Y-73947375D01*
X146793000Y-73947375D01*
X146421997Y-73837573D01*
X146124632Y-73917947D01*
X145700561Y-74116388D01*
X145323352Y-74393748D01*
X145007502Y-74739369D01*
X144765148Y-75139968D01*
X144605604Y-75580150D01*
X144535000Y-76043000D01*
X134465000Y-76043000D01*
X134394396Y-75580150D01*
X134234852Y-75139968D01*
X133992498Y-74739369D01*
X133676648Y-74393748D01*
X133299439Y-74116388D01*
X132875368Y-73917947D01*
X132578003Y-73837573D01*
X132207000Y-73947375D01*
X131953000Y-73947375D01*
X131581997Y-73837573D01*
X131284632Y-73917947D01*
X130860561Y-74116388D01*
X130483352Y-74393748D01*
X130167502Y-74739369D01*
X129925148Y-75139968D01*
X129765604Y-75580150D01*
X129695000Y-76043000D01*
X124305000Y-76043000D01*
X124234396Y-75580150D01*
X124074852Y-75139968D01*
X123832498Y-74739369D01*
X123516648Y-74393748D01*
X123139439Y-74116388D01*
X122715368Y-73917947D01*
X122418003Y-73837573D01*
X122047000Y-73947375D01*
X121793000Y-73947375D01*
X121421997Y-73837573D01*
X121124632Y-73917947D01*
X120700561Y-74116388D01*
X120323352Y-74393748D01*
X120007502Y-74739369D01*
X119765148Y-75139968D01*
X119605604Y-75580150D01*
X119535000Y-76043000D01*
X108465000Y-76043000D01*
X108394396Y-75580150D01*
X108234852Y-75139968D01*
X107992498Y-74739369D01*
X107676648Y-74393748D01*
X107299439Y-74116388D01*
X106875368Y-73917947D01*
X106578003Y-73837573D01*
X106207000Y-73947375D01*
X105953000Y-73947375D01*
X105581997Y-73837573D01*
X105284632Y-73917947D01*
X104860561Y-74116388D01*
X104483352Y-74393748D01*
X104167502Y-74739369D01*
X103925148Y-75139968D01*
X103765604Y-75580150D01*
X103695000Y-76043000D01*
X98305000Y-76043000D01*
X98234396Y-75580150D01*
X98074852Y-75139968D01*
X97832498Y-74739369D01*
X97516648Y-74393748D01*
X97139439Y-74116388D01*
X96715368Y-73917947D01*
X96418003Y-73837573D01*
X96047000Y-73947375D01*
X95793000Y-73947375D01*
X95421997Y-73837573D01*
X95124632Y-73917947D01*
X94700561Y-74116388D01*
X94323352Y-74393748D01*
X94007502Y-74739369D01*
X93765148Y-75139968D01*
X93605604Y-75580150D01*
X93535000Y-76043000D01*
X80137000Y-76043000D01*
X80137000Y-72517000D01*
X186563000Y-72517000D01*
X186563000Y-78740000D01*
%TD*%
M02*
