%TF.GenerationSoftware,KiCad,Pcbnew,(5.1.6)-1*%
%TF.CreationDate,2020-08-03T18:02:55+09:00*%
%TF.ProjectId,arduino_pcb,61726475-696e-46f5-9f70-63622e6b6963,rev?*%
%TF.SameCoordinates,Original*%
%TF.FileFunction,Legend,Bot*%
%TF.FilePolarity,Positive*%
%FSLAX46Y46*%
G04 Gerber Fmt 4.6, Leading zero omitted, Abs format (unit mm)*
G04 Created by KiCad (PCBNEW (5.1.6)-1) date 2020-08-03 18:02:55*
%MOMM*%
%LPD*%
G01*
G04 APERTURE LIST*
%ADD10C,0.150000*%
G04 APERTURE END LIST*
D10*
X136103809Y-102562380D02*
X136103809Y-101562380D01*
X135865714Y-101562380D01*
X135722857Y-101610000D01*
X135627619Y-101705238D01*
X135580000Y-101800476D01*
X135532380Y-101990952D01*
X135532380Y-102133809D01*
X135580000Y-102324285D01*
X135627619Y-102419523D01*
X135722857Y-102514761D01*
X135865714Y-102562380D01*
X136103809Y-102562380D01*
X134532380Y-102562380D02*
X134865714Y-102086190D01*
X135103809Y-102562380D02*
X135103809Y-101562380D01*
X134722857Y-101562380D01*
X134627619Y-101610000D01*
X134580000Y-101657619D01*
X134532380Y-101752857D01*
X134532380Y-101895714D01*
X134580000Y-101990952D01*
X134627619Y-102038571D01*
X134722857Y-102086190D01*
X135103809Y-102086190D01*
X134103809Y-102467142D02*
X134056190Y-102514761D01*
X134103809Y-102562380D01*
X134151428Y-102514761D01*
X134103809Y-102467142D01*
X134103809Y-102562380D01*
X132580000Y-101562380D02*
X132580000Y-102276666D01*
X132627619Y-102419523D01*
X132722857Y-102514761D01*
X132865714Y-102562380D01*
X132960952Y-102562380D01*
X131580000Y-101610000D02*
X131675238Y-101562380D01*
X131818095Y-101562380D01*
X131960952Y-101610000D01*
X132056190Y-101705238D01*
X132103809Y-101800476D01*
X132151428Y-101990952D01*
X132151428Y-102133809D01*
X132103809Y-102324285D01*
X132056190Y-102419523D01*
X131960952Y-102514761D01*
X131818095Y-102562380D01*
X131722857Y-102562380D01*
X131580000Y-102514761D01*
X131532380Y-102467142D01*
X131532380Y-102133809D01*
X131722857Y-102133809D01*
X131151428Y-102514761D02*
X131008571Y-102562380D01*
X130770476Y-102562380D01*
X130675238Y-102514761D01*
X130627619Y-102467142D01*
X130580000Y-102371904D01*
X130580000Y-102276666D01*
X130627619Y-102181428D01*
X130675238Y-102133809D01*
X130770476Y-102086190D01*
X130960952Y-102038571D01*
X131056190Y-101990952D01*
X131103809Y-101943333D01*
X131151428Y-101848095D01*
X131151428Y-101752857D01*
X131103809Y-101657619D01*
X131056190Y-101610000D01*
X130960952Y-101562380D01*
X130722857Y-101562380D01*
X130580000Y-101610000D01*
X130151428Y-102562380D02*
X130151428Y-101562380D01*
X130151428Y-102038571D02*
X129580000Y-102038571D01*
X129580000Y-102562380D02*
X129580000Y-101562380D01*
X129103809Y-102562380D02*
X129103809Y-101562380D01*
X128627619Y-102562380D02*
X128627619Y-101562380D01*
X128056190Y-102562380D01*
X128056190Y-101562380D01*
X137508571Y-103926666D02*
X137032380Y-103926666D01*
X137603809Y-104212380D02*
X137270476Y-103212380D01*
X136937142Y-104212380D01*
X136032380Y-104212380D02*
X136365714Y-103736190D01*
X136603809Y-104212380D02*
X136603809Y-103212380D01*
X136222857Y-103212380D01*
X136127619Y-103260000D01*
X136080000Y-103307619D01*
X136032380Y-103402857D01*
X136032380Y-103545714D01*
X136080000Y-103640952D01*
X136127619Y-103688571D01*
X136222857Y-103736190D01*
X136603809Y-103736190D01*
X135603809Y-104212380D02*
X135603809Y-103212380D01*
X135365714Y-103212380D01*
X135222857Y-103260000D01*
X135127619Y-103355238D01*
X135080000Y-103450476D01*
X135032380Y-103640952D01*
X135032380Y-103783809D01*
X135080000Y-103974285D01*
X135127619Y-104069523D01*
X135222857Y-104164761D01*
X135365714Y-104212380D01*
X135603809Y-104212380D01*
X134603809Y-103212380D02*
X134603809Y-104021904D01*
X134556190Y-104117142D01*
X134508571Y-104164761D01*
X134413333Y-104212380D01*
X134222857Y-104212380D01*
X134127619Y-104164761D01*
X134080000Y-104117142D01*
X134032380Y-104021904D01*
X134032380Y-103212380D01*
X133556190Y-104212380D02*
X133556190Y-103212380D01*
X133080000Y-104212380D02*
X133080000Y-103212380D01*
X132508571Y-104212380D01*
X132508571Y-103212380D01*
X131841904Y-103212380D02*
X131651428Y-103212380D01*
X131556190Y-103260000D01*
X131460952Y-103355238D01*
X131413333Y-103545714D01*
X131413333Y-103879047D01*
X131460952Y-104069523D01*
X131556190Y-104164761D01*
X131651428Y-104212380D01*
X131841904Y-104212380D01*
X131937142Y-104164761D01*
X132032380Y-104069523D01*
X132080000Y-103879047D01*
X132080000Y-103545714D01*
X132032380Y-103355238D01*
X131937142Y-103260000D01*
X131841904Y-103212380D01*
X130222857Y-104212380D02*
X130222857Y-103212380D01*
X129651428Y-104212380D01*
X129651428Y-103212380D01*
X129222857Y-103926666D02*
X128746666Y-103926666D01*
X129318095Y-104212380D02*
X128984761Y-103212380D01*
X128651428Y-104212380D01*
X128318095Y-104212380D02*
X128318095Y-103212380D01*
X127746666Y-104212380D01*
X127746666Y-103212380D01*
X127080000Y-103212380D02*
X126889523Y-103212380D01*
X126794285Y-103260000D01*
X126699047Y-103355238D01*
X126651428Y-103545714D01*
X126651428Y-103879047D01*
X126699047Y-104069523D01*
X126794285Y-104164761D01*
X126889523Y-104212380D01*
X127080000Y-104212380D01*
X127175238Y-104164761D01*
X127270476Y-104069523D01*
X127318095Y-103879047D01*
X127318095Y-103545714D01*
X127270476Y-103355238D01*
X127175238Y-103260000D01*
X127080000Y-103212380D01*
X137818095Y-105862380D02*
X138294285Y-105862380D01*
X138294285Y-104862380D01*
X137484761Y-105338571D02*
X137151428Y-105338571D01*
X137008571Y-105862380D02*
X137484761Y-105862380D01*
X137484761Y-104862380D01*
X137008571Y-104862380D01*
X136580000Y-105862380D02*
X136580000Y-104862380D01*
X136341904Y-104862380D01*
X136199047Y-104910000D01*
X136103809Y-105005238D01*
X136056190Y-105100476D01*
X136008571Y-105290952D01*
X136008571Y-105433809D01*
X136056190Y-105624285D01*
X136103809Y-105719523D01*
X136199047Y-105814761D01*
X136341904Y-105862380D01*
X136580000Y-105862380D01*
X134246666Y-105767142D02*
X134294285Y-105814761D01*
X134437142Y-105862380D01*
X134532380Y-105862380D01*
X134675238Y-105814761D01*
X134770476Y-105719523D01*
X134818095Y-105624285D01*
X134865714Y-105433809D01*
X134865714Y-105290952D01*
X134818095Y-105100476D01*
X134770476Y-105005238D01*
X134675238Y-104910000D01*
X134532380Y-104862380D01*
X134437142Y-104862380D01*
X134294285Y-104910000D01*
X134246666Y-104957619D01*
X133627619Y-104862380D02*
X133437142Y-104862380D01*
X133341904Y-104910000D01*
X133246666Y-105005238D01*
X133199047Y-105195714D01*
X133199047Y-105529047D01*
X133246666Y-105719523D01*
X133341904Y-105814761D01*
X133437142Y-105862380D01*
X133627619Y-105862380D01*
X133722857Y-105814761D01*
X133818095Y-105719523D01*
X133865714Y-105529047D01*
X133865714Y-105195714D01*
X133818095Y-105005238D01*
X133722857Y-104910000D01*
X133627619Y-104862380D01*
X132770476Y-105862380D02*
X132770476Y-104862380D01*
X132199047Y-105862380D01*
X132199047Y-104862380D01*
X131865714Y-104862380D02*
X131294285Y-104862380D01*
X131580000Y-105862380D02*
X131580000Y-104862380D01*
X130389523Y-105862380D02*
X130722857Y-105386190D01*
X130960952Y-105862380D02*
X130960952Y-104862380D01*
X130580000Y-104862380D01*
X130484761Y-104910000D01*
X130437142Y-104957619D01*
X130389523Y-105052857D01*
X130389523Y-105195714D01*
X130437142Y-105290952D01*
X130484761Y-105338571D01*
X130580000Y-105386190D01*
X130960952Y-105386190D01*
X129770476Y-104862380D02*
X129580000Y-104862380D01*
X129484761Y-104910000D01*
X129389523Y-105005238D01*
X129341904Y-105195714D01*
X129341904Y-105529047D01*
X129389523Y-105719523D01*
X129484761Y-105814761D01*
X129580000Y-105862380D01*
X129770476Y-105862380D01*
X129865714Y-105814761D01*
X129960952Y-105719523D01*
X130008571Y-105529047D01*
X130008571Y-105195714D01*
X129960952Y-105005238D01*
X129865714Y-104910000D01*
X129770476Y-104862380D01*
X128437142Y-105862380D02*
X128913333Y-105862380D01*
X128913333Y-104862380D01*
X127627619Y-105862380D02*
X128103809Y-105862380D01*
X128103809Y-104862380D01*
X127294285Y-105338571D02*
X126960952Y-105338571D01*
X126818095Y-105862380D02*
X127294285Y-105862380D01*
X127294285Y-104862380D01*
X126818095Y-104862380D01*
X125818095Y-105862380D02*
X126151428Y-105386190D01*
X126389523Y-105862380D02*
X126389523Y-104862380D01*
X126008571Y-104862380D01*
X125913333Y-104910000D01*
X125865714Y-104957619D01*
X125818095Y-105052857D01*
X125818095Y-105195714D01*
X125865714Y-105290952D01*
X125913333Y-105338571D01*
X126008571Y-105386190D01*
X126389523Y-105386190D01*
X134222857Y-107512380D02*
X134556190Y-107036190D01*
X134794285Y-107512380D02*
X134794285Y-106512380D01*
X134413333Y-106512380D01*
X134318095Y-106560000D01*
X134270476Y-106607619D01*
X134222857Y-106702857D01*
X134222857Y-106845714D01*
X134270476Y-106940952D01*
X134318095Y-106988571D01*
X134413333Y-107036190D01*
X134794285Y-107036190D01*
X133794285Y-106988571D02*
X133460952Y-106988571D01*
X133318095Y-107512380D02*
X133794285Y-107512380D01*
X133794285Y-106512380D01*
X133318095Y-106512380D01*
X133032380Y-106512380D02*
X132699047Y-107512380D01*
X132365714Y-106512380D01*
X130746666Y-107512380D02*
X131318095Y-107512380D01*
X131032380Y-107512380D02*
X131032380Y-106512380D01*
X131127619Y-106655238D01*
X131222857Y-106750476D01*
X131318095Y-106798095D01*
X130318095Y-107417142D02*
X130270476Y-107464761D01*
X130318095Y-107512380D01*
X130365714Y-107464761D01*
X130318095Y-107417142D01*
X130318095Y-107512380D01*
X129651428Y-106512380D02*
X129556190Y-106512380D01*
X129460952Y-106560000D01*
X129413333Y-106607619D01*
X129365714Y-106702857D01*
X129318095Y-106893333D01*
X129318095Y-107131428D01*
X129365714Y-107321904D01*
X129413333Y-107417142D01*
X129460952Y-107464761D01*
X129556190Y-107512380D01*
X129651428Y-107512380D01*
X129746666Y-107464761D01*
X129794285Y-107417142D01*
X129841904Y-107321904D01*
X129889523Y-107131428D01*
X129889523Y-106893333D01*
X129841904Y-106702857D01*
X129794285Y-106607619D01*
X129746666Y-106560000D01*
X129651428Y-106512380D01*
X134080000Y-109162380D02*
X134080000Y-108162380D01*
X133841904Y-108162380D01*
X133699047Y-108210000D01*
X133603809Y-108305238D01*
X133556190Y-108400476D01*
X133508571Y-108590952D01*
X133508571Y-108733809D01*
X133556190Y-108924285D01*
X133603809Y-109019523D01*
X133699047Y-109114761D01*
X133841904Y-109162380D01*
X134080000Y-109162380D01*
X132556190Y-108210000D02*
X132651428Y-108162380D01*
X132794285Y-108162380D01*
X132937142Y-108210000D01*
X133032380Y-108305238D01*
X133080000Y-108400476D01*
X133127619Y-108590952D01*
X133127619Y-108733809D01*
X133080000Y-108924285D01*
X133032380Y-109019523D01*
X132937142Y-109114761D01*
X132794285Y-109162380D01*
X132699047Y-109162380D01*
X132556190Y-109114761D01*
X132508571Y-109067142D01*
X132508571Y-108733809D01*
X132699047Y-108733809D01*
X132080000Y-109162380D02*
X132080000Y-108162380D01*
X131746666Y-108876666D01*
X131413333Y-108162380D01*
X131413333Y-109162380D01*
X130937142Y-109162380D02*
X130937142Y-108162380D01*
X130127619Y-108638571D02*
X130460952Y-108638571D01*
X130460952Y-109162380D02*
X130460952Y-108162380D01*
X129984761Y-108162380D01*
M02*
