G04 #@! TF.GenerationSoftware,KiCad,Pcbnew,(5.1.10)-1*
G04 #@! TF.CreationDate,2021-08-03T10:16:23+09:00*
G04 #@! TF.ProjectId,electrode_FPCB_rev1.2d,656c6563-7472-46f6-9465-5f465043425f,1.2d*
G04 #@! TF.SameCoordinates,Original*
G04 #@! TF.FileFunction,Other,Comment*
%FSLAX46Y46*%
G04 Gerber Fmt 4.6, Leading zero omitted, Abs format (unit mm)*
G04 Created by KiCad (PCBNEW (5.1.10)-1) date 2021-08-03 10:16:23*
%MOMM*%
%LPD*%
G01*
G04 APERTURE LIST*
%ADD10C,0.150000*%
G04 APERTURE END LIST*
D10*
X81009523Y-95302380D02*
X80676190Y-94826190D01*
X80438095Y-95302380D02*
X80438095Y-94302380D01*
X80819047Y-94302380D01*
X80914285Y-94350000D01*
X80961904Y-94397619D01*
X81009523Y-94492857D01*
X81009523Y-94635714D01*
X80961904Y-94730952D01*
X80914285Y-94778571D01*
X80819047Y-94826190D01*
X80438095Y-94826190D01*
X81819047Y-95254761D02*
X81723809Y-95302380D01*
X81533333Y-95302380D01*
X81438095Y-95254761D01*
X81390476Y-95159523D01*
X81390476Y-94778571D01*
X81438095Y-94683333D01*
X81533333Y-94635714D01*
X81723809Y-94635714D01*
X81819047Y-94683333D01*
X81866666Y-94778571D01*
X81866666Y-94873809D01*
X81390476Y-94969047D01*
X82295238Y-95302380D02*
X82295238Y-94635714D01*
X82295238Y-94302380D02*
X82247619Y-94350000D01*
X82295238Y-94397619D01*
X82342857Y-94350000D01*
X82295238Y-94302380D01*
X82295238Y-94397619D01*
X82771428Y-94635714D02*
X82771428Y-95302380D01*
X82771428Y-94730952D02*
X82819047Y-94683333D01*
X82914285Y-94635714D01*
X83057142Y-94635714D01*
X83152380Y-94683333D01*
X83200000Y-94778571D01*
X83200000Y-95302380D01*
X83533333Y-94635714D02*
X83914285Y-94635714D01*
X83676190Y-95302380D02*
X83676190Y-94445238D01*
X83723809Y-94350000D01*
X83819047Y-94302380D01*
X83914285Y-94302380D01*
X84390476Y-95302380D02*
X84295238Y-95254761D01*
X84247619Y-95207142D01*
X84200000Y-95111904D01*
X84200000Y-94826190D01*
X84247619Y-94730952D01*
X84295238Y-94683333D01*
X84390476Y-94635714D01*
X84533333Y-94635714D01*
X84628571Y-94683333D01*
X84676190Y-94730952D01*
X84723809Y-94826190D01*
X84723809Y-95111904D01*
X84676190Y-95207142D01*
X84628571Y-95254761D01*
X84533333Y-95302380D01*
X84390476Y-95302380D01*
X85152380Y-95302380D02*
X85152380Y-94635714D01*
X85152380Y-94826190D02*
X85200000Y-94730952D01*
X85247619Y-94683333D01*
X85342857Y-94635714D01*
X85438095Y-94635714D01*
X86200000Y-95254761D02*
X86104761Y-95302380D01*
X85914285Y-95302380D01*
X85819047Y-95254761D01*
X85771428Y-95207142D01*
X85723809Y-95111904D01*
X85723809Y-94826190D01*
X85771428Y-94730952D01*
X85819047Y-94683333D01*
X85914285Y-94635714D01*
X86104761Y-94635714D01*
X86200000Y-94683333D01*
X86628571Y-95302380D02*
X86628571Y-94635714D01*
X86628571Y-94302380D02*
X86580952Y-94350000D01*
X86628571Y-94397619D01*
X86676190Y-94350000D01*
X86628571Y-94302380D01*
X86628571Y-94397619D01*
X87104761Y-94635714D02*
X87104761Y-95302380D01*
X87104761Y-94730952D02*
X87152380Y-94683333D01*
X87247619Y-94635714D01*
X87390476Y-94635714D01*
X87485714Y-94683333D01*
X87533333Y-94778571D01*
X87533333Y-95302380D01*
X88438095Y-94635714D02*
X88438095Y-95445238D01*
X88390476Y-95540476D01*
X88342857Y-95588095D01*
X88247619Y-95635714D01*
X88104761Y-95635714D01*
X88009523Y-95588095D01*
X88438095Y-95254761D02*
X88342857Y-95302380D01*
X88152380Y-95302380D01*
X88057142Y-95254761D01*
X88009523Y-95207142D01*
X87961904Y-95111904D01*
X87961904Y-94826190D01*
X88009523Y-94730952D01*
X88057142Y-94683333D01*
X88152380Y-94635714D01*
X88342857Y-94635714D01*
X88438095Y-94683333D01*
X89676190Y-94635714D02*
X89676190Y-95635714D01*
X89676190Y-94683333D02*
X89771428Y-94635714D01*
X89961904Y-94635714D01*
X90057142Y-94683333D01*
X90104761Y-94730952D01*
X90152380Y-94826190D01*
X90152380Y-95111904D01*
X90104761Y-95207142D01*
X90057142Y-95254761D01*
X89961904Y-95302380D01*
X89771428Y-95302380D01*
X89676190Y-95254761D01*
X90723809Y-95302380D02*
X90628571Y-95254761D01*
X90580952Y-95159523D01*
X90580952Y-94302380D01*
X91533333Y-95302380D02*
X91533333Y-94778571D01*
X91485714Y-94683333D01*
X91390476Y-94635714D01*
X91200000Y-94635714D01*
X91104761Y-94683333D01*
X91533333Y-95254761D02*
X91438095Y-95302380D01*
X91200000Y-95302380D01*
X91104761Y-95254761D01*
X91057142Y-95159523D01*
X91057142Y-95064285D01*
X91104761Y-94969047D01*
X91200000Y-94921428D01*
X91438095Y-94921428D01*
X91533333Y-94873809D01*
X91866666Y-94635714D02*
X92247619Y-94635714D01*
X92009523Y-94302380D02*
X92009523Y-95159523D01*
X92057142Y-95254761D01*
X92152380Y-95302380D01*
X92247619Y-95302380D01*
X92961904Y-95254761D02*
X92866666Y-95302380D01*
X92676190Y-95302380D01*
X92580952Y-95254761D01*
X92533333Y-95159523D01*
X92533333Y-94778571D01*
X92580952Y-94683333D01*
X92676190Y-94635714D01*
X92866666Y-94635714D01*
X92961904Y-94683333D01*
X93009523Y-94778571D01*
X93009523Y-94873809D01*
X92533333Y-94969047D01*
X93550000Y-97700000D02*
X99050000Y-97700000D01*
X93550000Y-92950000D02*
X93550000Y-97700000D01*
X99050000Y-92950000D02*
X93550000Y-92950000D01*
X99050000Y-97700000D02*
X99050000Y-92950000D01*
M02*
